solid Created by Gmsh
facet normal -1 0 0
  outer loop
    vertex -11 1.609028930648371 27.20976096338085
    vertex -11 11 27.5
    vertex -11 5.673717566028657 22.09138611467936
  endloop
endfacet
facet normal -1 -0 0
  outer loop
    vertex -11 11 27.5
    vertex -11 1.609028930648371 27.20976096338085
    vertex -11 5.74020404267802 32.60365476043215
  endloop
endfacet
facet normal -1 0 0
  outer loop
    vertex -11 -5.188908991316956 31.08517273193104
    vertex -11 5.329070518200751e-15 36.14914703891412
    vertex -11 1.609028930648371 27.20976096338085
  endloop
endfacet
facet normal -1 0 0
  outer loop
    vertex -11 1.609028930648371 27.20976096338085
    vertex -11 5.329070518200751e-15 36.14914703891412
    vertex -11 5.74020404267802 32.60365476043215
  endloop
endfacet
facet normal -1 0 0
  outer loop
    vertex -11 0.2796479175661286 18.92116340920545
    vertex -11 -5.058575873296404 23.73554695349012
    vertex -11 1.609028930648371 27.20976096338085
  endloop
endfacet
facet normal -1 0 0
  outer loop
    vertex -11 3.66666666666667 12.5
    vertex -11 -3.666666666666662 12.5
    vertex -11 0.2796479175661286 18.92116340920545
  endloop
endfacet
facet normal -1 0 0
  outer loop
    vertex -11 -3.666666666666662 42.5
    vertex -11 3.66666666666667 42.5
    vertex -11 5.329070518200751e-15 36.14914703891412
  endloop
endfacet
facet normal -1 0 0
  outer loop
    vertex -11 -10.99999999999999 27.5
    vertex -11 -10.99999999999999 35
    vertex -11 -5.188908991316956 31.08517273193104
  endloop
endfacet
facet normal -1 0 0
  outer loop
    vertex -11 -5.058575873296404 23.73554695349012
    vertex -11 -5.188908991316956 31.08517273193104
    vertex -11 1.609028930648371 27.20976096338085
  endloop
endfacet
facet normal -1 0 -0
  outer loop
    vertex -11 11 27.5
    vertex -11 11 20
    vertex -11 5.673717566028657 22.09138611467936
  endloop
endfacet
facet normal -1 0 0
  outer loop
    vertex -11 0.2796479175661286 18.92116340920545
    vertex -11 1.609028930648371 27.20976096338085
    vertex -11 5.673717566028657 22.09138611467936
  endloop
endfacet
facet normal -1 0 -0
  outer loop
    vertex -11 11 35
    vertex -11 11 27.5
    vertex -11 5.74020404267802 32.60365476043215
  endloop
endfacet
facet normal -1 0 0
  outer loop
    vertex -11 -10.99999999999999 20
    vertex -11 -10.99999999999999 27.5
    vertex -11 -5.058575873296404 23.73554695349012
  endloop
endfacet
facet normal -1 0 0
  outer loop
    vertex -11 -10.99999999999999 12.5
    vertex -11 -10.99999999999999 20
    vertex -11 -5.660896799147149 17.88527127787093
  endloop
endfacet
facet normal -1 0 0
  outer loop
    vertex -11 -10.99999999999999 35
    vertex -11 -10.99999999999999 42.5
    vertex -11 -5.660896799147149 37.11472872212907
  endloop
endfacet
facet normal -1 0 0
  outer loop
    vertex -11 -10.99999999999999 42.5
    vertex -11 -3.666666666666662 42.5
    vertex -11 -5.660896799147149 37.11472872212907
  endloop
endfacet
facet normal -1 0 0
  outer loop
    vertex -11 -3.666666666666662 12.5
    vertex -11 -10.99999999999999 12.5
    vertex -11 -5.660896799147149 17.88527127787093
  endloop
endfacet
facet normal -1 0 0
  outer loop
    vertex -11 -5.058575873296404 23.73554695349012
    vertex -11 -10.99999999999999 27.5
    vertex -11 -5.188908991316956 31.08517273193104
  endloop
endfacet
facet normal -1 0 -0
  outer loop
    vertex -11 11 42.5
    vertex -11 11 35
    vertex -11 6.281374141868941 37.75056035986925
  endloop
endfacet
facet normal -1 0 0
  outer loop
    vertex -11 3.66666666666667 42.5
    vertex -11 11 42.5
    vertex -11 6.281374141868941 37.75056035986925
  endloop
endfacet
facet normal -1 0 0
  outer loop
    vertex -11 3.66666666666667 12.5
    vertex -11 0.2796479175661286 18.92116340920545
    vertex -11 6.32400643005229 17.20250990477696
  endloop
endfacet
facet normal -1 0 0
  outer loop
    vertex -11 -5.188908991316956 31.08517273193104
    vertex -11 -10.99999999999999 35
    vertex -11 -5.660896799147149 37.11472872212907
  endloop
endfacet
facet normal -1 0 -0
  outer loop
    vertex -11 11 20
    vertex -11 11 12.5
    vertex -11 6.32400643005229 17.20250990477696
  endloop
endfacet
facet normal -1 0 0
  outer loop
    vertex -11 5.329070518200751e-15 36.14914703891412
    vertex -11 3.66666666666667 42.5
    vertex -11 6.281374141868941 37.75056035986925
  endloop
endfacet
facet normal -1 0 0
  outer loop
    vertex -11 11 12.5
    vertex -11 3.66666666666667 12.5
    vertex -11 6.32400643005229 17.20250990477696
  endloop
endfacet
facet normal -1 0 -0
  outer loop
    vertex -11 -3.666666666666662 42.5
    vertex -11 5.329070518200751e-15 36.14914703891412
    vertex -11 -5.660896799147149 37.11472872212907
  endloop
endfacet
facet normal -1 0 0
  outer loop
    vertex -11 0.2796479175661286 18.92116340920545
    vertex -11 -3.666666666666662 12.5
    vertex -11 -5.660896799147149 17.88527127787093
  endloop
endfacet
facet normal -1 -0 0
  outer loop
    vertex -11 5.329070518200751e-15 36.14914703891412
    vertex -11 -5.188908991316956 31.08517273193104
    vertex -11 -5.660896799147149 37.11472872212907
  endloop
endfacet
facet normal -1 0 -0
  outer loop
    vertex -11 -5.058575873296404 23.73554695349012
    vertex -11 0.2796479175661286 18.92116340920545
    vertex -11 -5.660896799147149 17.88527127787093
  endloop
endfacet
facet normal -1 0 0
  outer loop
    vertex -11 -10.99999999999999 20
    vertex -11 -5.058575873296404 23.73554695349012
    vertex -11 -5.660896799147149 17.88527127787093
  endloop
endfacet
facet normal -1 0 0
  outer loop
    vertex -11 0.2796479175661286 18.92116340920545
    vertex -11 5.673717566028657 22.09138611467936
    vertex -11 6.32400643005229 17.20250990477696
  endloop
endfacet
facet normal -1 0 0
  outer loop
    vertex -11 5.74020404267802 32.60365476043215
    vertex -11 5.329070518200751e-15 36.14914703891412
    vertex -11 6.281374141868941 37.75056035986925
  endloop
endfacet
facet normal -1 -0 0
  outer loop
    vertex -11 11 35
    vertex -11 5.74020404267802 32.60365476043215
    vertex -11 6.281374141868941 37.75056035986925
  endloop
endfacet
facet normal -1 0 0
  outer loop
    vertex -11 5.673717566028657 22.09138611467936
    vertex -11 11 20
    vertex -11 6.32400643005229 17.20250990477696
  endloop
endfacet
facet normal -0 -1 0
  outer loop
    vertex -1.609028930648366 -10.99999999999999 27.20976096338086
    vertex -11 -10.99999999999999 27.5
    vertex -5.673717566028652 -10.99999999999999 22.09138611467936
  endloop
endfacet
facet normal 0 -1 0
  outer loop
    vertex -11 -10.99999999999999 27.5
    vertex -1.609028930648366 -10.99999999999999 27.20976096338086
    vertex -5.740204042678021 -10.99999999999999 32.60365476043215
  endloop
endfacet
facet normal -0 -1 0
  outer loop
    vertex 5.188908991316961 -10.99999999999999 31.08517273193104
    vertex -3.552713678800501e-15 -10.99999999999999 36.14914703891412
    vertex -1.609028930648366 -10.99999999999999 27.20976096338086
  endloop
endfacet
facet normal 0 -1 0
  outer loop
    vertex -1.609028930648366 -10.99999999999999 27.20976096338086
    vertex -3.552713678800501e-15 -10.99999999999999 36.14914703891412
    vertex -5.740204042678021 -10.99999999999999 32.60365476043215
  endloop
endfacet
facet normal 0 -1 0
  outer loop
    vertex -0.2796479175661233 -10.99999999999999 18.92116340920545
    vertex 5.058575873296412 -10.99999999999999 23.73554695349013
    vertex -1.609028930648366 -10.99999999999999 27.20976096338086
  endloop
endfacet
facet normal -0 -1 0
  outer loop
    vertex 3.666666666666666 -10.99999999999999 42.5
    vertex -3.666666666666667 -10.99999999999999 42.5
    vertex -3.552713678800501e-15 -10.99999999999999 36.14914703891412
  endloop
endfacet
facet normal 0 -1 0
  outer loop
    vertex -3.666666666666667 -10.99999999999999 12.5
    vertex 3.666666666666666 -10.99999999999999 12.5
    vertex -0.2796479175661233 -10.99999999999999 18.92116340920545
  endloop
endfacet
facet normal 0 -1 0
  outer loop
    vertex 11 -10.99999999999999 27.5
    vertex 11 -10.99999999999999 35
    vertex 5.188908991316961 -10.99999999999999 31.08517273193104
  endloop
endfacet
facet normal 0 -1 0
  outer loop
    vertex 5.058575873296412 -10.99999999999999 23.73554695349013
    vertex 5.188908991316961 -10.99999999999999 31.08517273193104
    vertex -1.609028930648366 -10.99999999999999 27.20976096338086
  endloop
endfacet
facet normal 0 -1 0
  outer loop
    vertex -11 -10.99999999999999 27.5
    vertex -11 -10.99999999999999 20
    vertex -5.673717566028652 -10.99999999999999 22.09138611467936
  endloop
endfacet
facet normal 0 -1 0
  outer loop
    vertex -0.2796479175661233 -10.99999999999999 18.92116340920545
    vertex -1.609028930648366 -10.99999999999999 27.20976096338086
    vertex -5.673717566028652 -10.99999999999999 22.09138611467936
  endloop
endfacet
facet normal 0 -1 0
  outer loop
    vertex -11 -10.99999999999999 35
    vertex -11 -10.99999999999999 27.5
    vertex -5.740204042678021 -10.99999999999999 32.60365476043215
  endloop
endfacet
facet normal 0 -1 0
  outer loop
    vertex 11 -10.99999999999999 20
    vertex 11 -10.99999999999999 27.5
    vertex 5.058575873296412 -10.99999999999999 23.73554695349013
  endloop
endfacet
facet normal 0 -1 0
  outer loop
    vertex 11 -10.99999999999999 12.5
    vertex 11 -10.99999999999999 20
    vertex 5.660896799147157 -10.99999999999999 17.88527127787093
  endloop
endfacet
facet normal 0 -1 0
  outer loop
    vertex 11 -10.99999999999999 35
    vertex 11 -10.99999999999999 42.5
    vertex 5.660896799147153 -10.99999999999999 37.11472872212907
  endloop
endfacet
facet normal -0 -1 0
  outer loop
    vertex 11 -10.99999999999999 42.5
    vertex 3.666666666666666 -10.99999999999999 42.5
    vertex 5.660896799147153 -10.99999999999999 37.11472872212907
  endloop
endfacet
facet normal 0 -1 0
  outer loop
    vertex 3.666666666666666 -10.99999999999999 12.5
    vertex 11 -10.99999999999999 12.5
    vertex 5.660896799147157 -10.99999999999999 17.88527127787093
  endloop
endfacet
facet normal 0 -1 0
  outer loop
    vertex 5.058575873296412 -10.99999999999999 23.73554695349013
    vertex 11 -10.99999999999999 27.5
    vertex 5.188908991316961 -10.99999999999999 31.08517273193104
  endloop
endfacet
facet normal 0 -1 0
  outer loop
    vertex -11 -10.99999999999999 42.5
    vertex -11 -10.99999999999999 35
    vertex -6.281374141868938 -10.99999999999999 37.75056035986925
  endloop
endfacet
facet normal -0 -1 0
  outer loop
    vertex -3.666666666666667 -10.99999999999999 42.5
    vertex -11 -10.99999999999999 42.5
    vertex -6.281374141868938 -10.99999999999999 37.75056035986925
  endloop
endfacet
facet normal 0 -1 0
  outer loop
    vertex -3.666666666666667 -10.99999999999999 12.5
    vertex -0.2796479175661233 -10.99999999999999 18.92116340920545
    vertex -6.324006430052289 -10.99999999999999 17.20250990477696
  endloop
endfacet
facet normal 0 -1 0
  outer loop
    vertex 5.188908991316961 -10.99999999999999 31.08517273193104
    vertex 11 -10.99999999999999 35
    vertex 5.660896799147153 -10.99999999999999 37.11472872212907
  endloop
endfacet
facet normal 0 -1 0
  outer loop
    vertex -11 -10.99999999999999 20
    vertex -11 -10.99999999999999 12.5
    vertex -6.324006430052289 -10.99999999999999 17.20250990477696
  endloop
endfacet
facet normal 0 -1 0
  outer loop
    vertex -3.552713678800501e-15 -10.99999999999999 36.14914703891412
    vertex -3.666666666666667 -10.99999999999999 42.5
    vertex -6.281374141868938 -10.99999999999999 37.75056035986925
  endloop
endfacet
facet normal 0 -1 0
  outer loop
    vertex -11 -10.99999999999999 12.5
    vertex -3.666666666666667 -10.99999999999999 12.5
    vertex -6.324006430052289 -10.99999999999999 17.20250990477696
  endloop
endfacet
facet normal 0 -1 0
  outer loop
    vertex -0.2796479175661233 -10.99999999999999 18.92116340920545
    vertex 3.666666666666666 -10.99999999999999 12.5
    vertex 5.660896799147157 -10.99999999999999 17.88527127787093
  endloop
endfacet
facet normal 0 -1 -0
  outer loop
    vertex 3.666666666666666 -10.99999999999999 42.5
    vertex -3.552713678800501e-15 -10.99999999999999 36.14914703891412
    vertex 5.660896799147153 -10.99999999999999 37.11472872212907
  endloop
endfacet
facet normal 0 -1 0
  outer loop
    vertex -3.552713678800501e-15 -10.99999999999999 36.14914703891412
    vertex 5.188908991316961 -10.99999999999999 31.08517273193104
    vertex 5.660896799147153 -10.99999999999999 37.11472872212907
  endloop
endfacet
facet normal 0 -1 -0
  outer loop
    vertex 5.058575873296412 -10.99999999999999 23.73554695349013
    vertex -0.2796479175661233 -10.99999999999999 18.92116340920545
    vertex 5.660896799147157 -10.99999999999999 17.88527127787093
  endloop
endfacet
facet normal -0 -1 0
  outer loop
    vertex 11 -10.99999999999999 20
    vertex 5.058575873296412 -10.99999999999999 23.73554695349013
    vertex 5.660896799147157 -10.99999999999999 17.88527127787093
  endloop
endfacet
facet normal -0 -1 0
  outer loop
    vertex -0.2796479175661233 -10.99999999999999 18.92116340920545
    vertex -5.673717566028652 -10.99999999999999 22.09138611467936
    vertex -6.324006430052289 -10.99999999999999 17.20250990477696
  endloop
endfacet
facet normal 0 -1 0
  outer loop
    vertex -5.740204042678021 -10.99999999999999 32.60365476043215
    vertex -3.552713678800501e-15 -10.99999999999999 36.14914703891412
    vertex -6.281374141868938 -10.99999999999999 37.75056035986925
  endloop
endfacet
facet normal 0 -1 0
  outer loop
    vertex -11 -10.99999999999999 35
    vertex -5.740204042678021 -10.99999999999999 32.60365476043215
    vertex -6.281374141868938 -10.99999999999999 37.75056035986925
  endloop
endfacet
facet normal 0 -1 0
  outer loop
    vertex -5.673717566028652 -10.99999999999999 22.09138611467936
    vertex -11 -10.99999999999999 20
    vertex -6.324006430052289 -10.99999999999999 17.20250990477696
  endloop
endfacet
facet normal 0 0 1
  outer loop
    vertex -4.511113743733926 7.105427357601002e-15 42.5
    vertex -0.0008885470428836584 -5.5563217977543 42.5
    vertex 4.505782461476626 5.329070518200751e-15 42.5
  endloop
endfacet
facet normal 0 0 1
  outer loop
    vertex 4.505782461476626 5.329070518200751e-15 42.5
    vertex -0.0008885470428872111 5.556321797754308 42.5
    vertex -4.511113743733926 7.105427357601002e-15 42.5
  endloop
endfacet
facet normal 0 0 1
  outer loop
    vertex -11 -3.666666666666662 42.5
    vertex -4.511113743733926 7.105427357601002e-15 42.5
    vertex -11 3.66666666666667 42.5
  endloop
endfacet
facet normal 0 0 1
  outer loop
    vertex 11 3.66666666666667 42.5
    vertex 4.505782461476626 5.329070518200751e-15 42.5
    vertex 11 -3.666666666666662 42.5
  endloop
endfacet
facet normal 0 0 1
  outer loop
    vertex 3.666666666666666 -10.99999999999999 42.5
    vertex -0.0008885470428836584 -5.5563217977543 42.5
    vertex -3.666666666666667 -10.99999999999999 42.5
  endloop
endfacet
facet normal -0 0 1
  outer loop
    vertex -3.666666666666667 11 42.5
    vertex -0.0008885470428872111 5.556321797754308 42.5
    vertex 3.666666666666666 11 42.5
  endloop
endfacet
facet normal 0 0 1
  outer loop
    vertex 11 -10.99999999999999 42.5
    vertex 5.668965393262919 -5.668965393262911 42.5
    vertex 3.666666666666666 -10.99999999999999 42.5
  endloop
endfacet
facet normal 0 0 1
  outer loop
    vertex 11 -3.666666666666662 42.5
    vertex 5.668965393262919 -5.668965393262911 42.5
    vertex 11 -10.99999999999999 42.5
  endloop
endfacet
facet normal 0 0 1
  outer loop
    vertex 11 11 42.5
    vertex 5.668965393262916 5.668965393262916 42.5
    vertex 11 3.66666666666667 42.5
  endloop
endfacet
facet normal -0 0 1
  outer loop
    vertex 3.666666666666666 11 42.5
    vertex 5.668965393262916 5.668965393262916 42.5
    vertex 11 11 42.5
  endloop
endfacet
facet normal 0 0 1
  outer loop
    vertex -11 -10.99999999999999 42.5
    vertex -5.66896539326292 -5.668965393262913 42.5
    vertex -11 -3.666666666666662 42.5
  endloop
endfacet
facet normal 0 0 1
  outer loop
    vertex -3.666666666666667 -10.99999999999999 42.5
    vertex -5.66896539326292 -5.668965393262913 42.5
    vertex -11 -10.99999999999999 42.5
  endloop
endfacet
facet normal -0 0 1
  outer loop
    vertex -11 11 42.5
    vertex -5.668965393262922 5.668965393262923 42.5
    vertex -3.666666666666667 11 42.5
  endloop
endfacet
facet normal 0 0 1
  outer loop
    vertex -11 3.66666666666667 42.5
    vertex -5.668965393262922 5.668965393262923 42.5
    vertex -11 11 42.5
  endloop
endfacet
facet normal -0 0 1
  outer loop
    vertex -11 -3.666666666666662 42.5
    vertex -5.66896539326292 -5.668965393262913 42.5
    vertex -4.511113743733926 7.105427357601002e-15 42.5
  endloop
endfacet
facet normal 0 0 1
  outer loop
    vertex -4.511113743733926 7.105427357601002e-15 42.5
    vertex -5.668965393262922 5.668965393262923 42.5
    vertex -11 3.66666666666667 42.5
  endloop
endfacet
facet normal 0 0 1
  outer loop
    vertex 4.505782461476626 5.329070518200751e-15 42.5
    vertex 5.668965393262919 -5.668965393262911 42.5
    vertex 11 -3.666666666666662 42.5
  endloop
endfacet
facet normal 0 0 1
  outer loop
    vertex 11 3.66666666666667 42.5
    vertex 5.668965393262916 5.668965393262916 42.5
    vertex 4.505782461476626 5.329070518200751e-15 42.5
  endloop
endfacet
facet normal -0 0 1
  outer loop
    vertex -0.0008885470428836584 -5.5563217977543 42.5
    vertex 5.668965393262919 -5.668965393262911 42.5
    vertex 4.505782461476626 5.329070518200751e-15 42.5
  endloop
endfacet
facet normal 0 0 1
  outer loop
    vertex -4.511113743733926 7.105427357601002e-15 42.5
    vertex -5.66896539326292 -5.668965393262913 42.5
    vertex -0.0008885470428836584 -5.5563217977543 42.5
  endloop
endfacet
facet normal 0 -0 1
  outer loop
    vertex 4.505782461476626 5.329070518200751e-15 42.5
    vertex 5.668965393262916 5.668965393262916 42.5
    vertex -0.0008885470428872111 5.556321797754308 42.5
  endloop
endfacet
facet normal 0 0 1
  outer loop
    vertex -0.0008885470428872111 5.556321797754308 42.5
    vertex -5.668965393262922 5.668965393262923 42.5
    vertex -4.511113743733926 7.105427357601002e-15 42.5
  endloop
endfacet
facet normal 0 0 1
  outer loop
    vertex -0.0008885470428836584 -5.5563217977543 42.5
    vertex -5.66896539326292 -5.668965393262913 42.5
    vertex -3.666666666666667 -10.99999999999999 42.5
  endloop
endfacet
facet normal 0 0 1
  outer loop
    vertex -0.0008885470428872111 5.556321797754308 42.5
    vertex 5.668965393262916 5.668965393262916 42.5
    vertex 3.666666666666666 11 42.5
  endloop
endfacet
facet normal 0 -0 1
  outer loop
    vertex 3.666666666666666 -10.99999999999999 42.5
    vertex 5.668965393262919 -5.668965393262911 42.5
    vertex -0.0008885470428836584 -5.5563217977543 42.5
  endloop
endfacet
facet normal 0 0 1
  outer loop
    vertex -3.666666666666667 11 42.5
    vertex -5.668965393262922 5.668965393262923 42.5
    vertex -0.0008885470428872111 5.556321797754308 42.5
  endloop
endfacet
facet normal 0 1 0
  outer loop
    vertex -1.609028930648366 11 27.20976096338086
    vertex -5.673717566028652 11 22.09138611467937
    vertex -11 11 27.5
  endloop
endfacet
facet normal -0 1 0
  outer loop
    vertex -11 11 27.5
    vertex -5.740204042678021 11 32.60365476043215
    vertex -1.609028930648366 11 27.20976096338086
  endloop
endfacet
facet normal 0 1 0
  outer loop
    vertex 5.188908991316961 11 31.08517273193105
    vertex -1.609028930648366 11 27.20976096338086
    vertex -1.77635683940025e-15 11 36.14914703891412
  endloop
endfacet
facet normal 0 1 -0
  outer loop
    vertex -1.609028930648366 11 27.20976096338086
    vertex -5.740204042678021 11 32.60365476043215
    vertex -1.77635683940025e-15 11 36.14914703891412
  endloop
endfacet
facet normal 0 1 -0
  outer loop
    vertex -0.2796479175661233 11 18.92116340920546
    vertex -1.609028930648366 11 27.20976096338086
    vertex 5.058575873296412 11 23.73554695349013
  endloop
endfacet
facet normal 0 1 0
  outer loop
    vertex 3.666666666666666 11 42.5
    vertex -1.77635683940025e-15 11 36.14914703891412
    vertex -3.666666666666667 11 42.5
  endloop
endfacet
facet normal 0 1 0
  outer loop
    vertex -3.666666666666667 11 12.5
    vertex -0.2796479175661233 11 18.92116340920546
    vertex 3.666666666666666 11 12.5
  endloop
endfacet
facet normal 0 1 -0
  outer loop
    vertex 11 11 27.5
    vertex 5.188908991316961 11 31.08517273193105
    vertex 11 11 35
  endloop
endfacet
facet normal 0 1 -0
  outer loop
    vertex 5.058575873296412 11 23.73554695349013
    vertex -1.609028930648366 11 27.20976096338086
    vertex 5.188908991316961 11 31.08517273193105
  endloop
endfacet
facet normal 0 1 0
  outer loop
    vertex -11 11 27.5
    vertex -5.673717566028652 11 22.09138611467937
    vertex -11 11 20
  endloop
endfacet
facet normal 0 1 0
  outer loop
    vertex -0.2796479175661233 11 18.92116340920546
    vertex -5.673717566028652 11 22.09138611467937
    vertex -1.609028930648366 11 27.20976096338086
  endloop
endfacet
facet normal 0 1 0
  outer loop
    vertex -11 11 35
    vertex -5.740204042678021 11 32.60365476043215
    vertex -11 11 27.5
  endloop
endfacet
facet normal 0 1 -0
  outer loop
    vertex 11 11 20
    vertex 5.058575873296412 11 23.73554695349013
    vertex 11 11 27.5
  endloop
endfacet
facet normal 0 1 -0
  outer loop
    vertex 11 11 12.5
    vertex 5.660896799147157 11 17.88527127787093
    vertex 11 11 20
  endloop
endfacet
facet normal 0 1 -0
  outer loop
    vertex 11 11 35
    vertex 5.660896799147157 11 37.11472872212907
    vertex 11 11 42.5
  endloop
endfacet
facet normal 0 1 0
  outer loop
    vertex 3.666666666666666 11 12.5
    vertex 5.660896799147157 11 17.88527127787093
    vertex 11 11 12.5
  endloop
endfacet
facet normal 0 1 0
  outer loop
    vertex 11 11 42.5
    vertex 5.660896799147157 11 37.11472872212907
    vertex 3.666666666666666 11 42.5
  endloop
endfacet
facet normal 0 1 0
  outer loop
    vertex 5.058575873296412 11 23.73554695349013
    vertex 5.188908991316961 11 31.08517273193105
    vertex 11 11 27.5
  endloop
endfacet
facet normal 0 1 0
  outer loop
    vertex -11 11 42.5
    vertex -6.281374141868938 11 37.75056035986925
    vertex -11 11 35
  endloop
endfacet
facet normal 0 1 0
  outer loop
    vertex -3.666666666666667 11 42.5
    vertex -6.281374141868938 11 37.75056035986925
    vertex -11 11 42.5
  endloop
endfacet
facet normal 0 1 -0
  outer loop
    vertex -3.666666666666667 11 12.5
    vertex -6.324006430052288 11 17.20250990477696
    vertex -0.2796479175661233 11 18.92116340920546
  endloop
endfacet
facet normal 0 1 0
  outer loop
    vertex 5.188908991316961 11 31.08517273193105
    vertex 5.660896799147157 11 37.11472872212907
    vertex 11 11 35
  endloop
endfacet
facet normal 0 1 0
  outer loop
    vertex -11 11 20
    vertex -6.324006430052288 11 17.20250990477696
    vertex -11 11 12.5
  endloop
endfacet
facet normal 0 1 0
  outer loop
    vertex -1.77635683940025e-15 11 36.14914703891412
    vertex -6.281374141868938 11 37.75056035986925
    vertex -3.666666666666667 11 42.5
  endloop
endfacet
facet normal 0 1 0
  outer loop
    vertex -11 11 12.5
    vertex -6.324006430052288 11 17.20250990477696
    vertex -3.666666666666667 11 12.5
  endloop
endfacet
facet normal 0 1 0
  outer loop
    vertex 3.666666666666666 11 42.5
    vertex 5.660896799147157 11 37.11472872212907
    vertex -1.77635683940025e-15 11 36.14914703891412
  endloop
endfacet
facet normal 0 1 0
  outer loop
    vertex -0.2796479175661233 11 18.92116340920546
    vertex 5.660896799147157 11 17.88527127787093
    vertex 3.666666666666666 11 12.5
  endloop
endfacet
facet normal -0 1 0
  outer loop
    vertex -1.77635683940025e-15 11 36.14914703891412
    vertex 5.660896799147157 11 37.11472872212907
    vertex 5.188908991316961 11 31.08517273193105
  endloop
endfacet
facet normal 0 1 0
  outer loop
    vertex 5.058575873296412 11 23.73554695349013
    vertex 5.660896799147157 11 17.88527127787093
    vertex -0.2796479175661233 11 18.92116340920546
  endloop
endfacet
facet normal 0 1 0
  outer loop
    vertex 11 11 20
    vertex 5.660896799147157 11 17.88527127787093
    vertex 5.058575873296412 11 23.73554695349013
  endloop
endfacet
facet normal 0 1 0
  outer loop
    vertex -0.2796479175661233 11 18.92116340920546
    vertex -6.324006430052288 11 17.20250990477696
    vertex -5.673717566028652 11 22.09138611467937
  endloop
endfacet
facet normal 0 1 -0
  outer loop
    vertex -5.740204042678021 11 32.60365476043215
    vertex -6.281374141868938 11 37.75056035986925
    vertex -1.77635683940025e-15 11 36.14914703891412
  endloop
endfacet
facet normal -0 1 0
  outer loop
    vertex -11 11 35
    vertex -6.281374141868938 11 37.75056035986925
    vertex -5.740204042678021 11 32.60365476043215
  endloop
endfacet
facet normal 0 1 0
  outer loop
    vertex -5.673717566028652 11 22.09138611467937
    vertex -6.324006430052288 11 17.20250990477696
    vertex -11 11 20
  endloop
endfacet
facet normal 0 0 -1
  outer loop
    vertex -11 -10.99999999999999 12.5
    vertex -11 -3.666666666666662 12.5
    vertex -8 -7.999999999999993 12.5
  endloop
endfacet
facet normal 0 0 -1
  outer loop
    vertex -3.666666666666667 -10.99999999999999 12.5
    vertex -11 -10.99999999999999 12.5
    vertex -8 -7.999999999999993 12.5
  endloop
endfacet
facet normal 0 0 -1
  outer loop
    vertex -11 11 12.5
    vertex -8 8 12.5
    vertex -11 3.66666666666667 12.5
  endloop
endfacet
facet normal 0 0 -1
  outer loop
    vertex -8 8 12.5
    vertex -11 11 12.5
    vertex -3.666666666666667 11 12.5
  endloop
endfacet
facet normal 0 -0 -1
  outer loop
    vertex 8 -7.999999999999993 12.5
    vertex 11 -10.99999999999999 12.5
    vertex 3.666666666666666 -10.99999999999999 12.5
  endloop
endfacet
facet normal 0 0 -1
  outer loop
    vertex 11 -10.99999999999999 12.5
    vertex 8 -7.999999999999993 12.5
    vertex 11 -3.666666666666662 12.5
  endloop
endfacet
facet normal -0 0 -1
  outer loop
    vertex 11 11 12.5
    vertex 8 8 12.5
    vertex 3.666666666666666 11 12.5
  endloop
endfacet
facet normal 0 0 -1
  outer loop
    vertex 8 8 12.5
    vertex 11 11 12.5
    vertex 11 3.66666666666667 12.5
  endloop
endfacet
facet normal 0 0 -1
  outer loop
    vertex -11 -3.666666666666662 12.5
    vertex -8 3.552713678800501e-15 12.5
    vertex -8 -7.999999999999993 12.5
  endloop
endfacet
facet normal -0 0 -1
  outer loop
    vertex 0 -7.999999999999993 12.5
    vertex -3.666666666666667 -10.99999999999999 12.5
    vertex -8 -7.999999999999993 12.5
  endloop
endfacet
facet normal 0 -0 -1
  outer loop
    vertex -8 8 12.5
    vertex -8 3.552713678800501e-15 12.5
    vertex -11 3.66666666666667 12.5
  endloop
endfacet
facet normal 0 0 -1
  outer loop
    vertex 0 8 12.5
    vertex -8 8 12.5
    vertex -3.666666666666667 11 12.5
  endloop
endfacet
facet normal 0 0 -1
  outer loop
    vertex 8 8 12.5
    vertex 0 8 12.5
    vertex 3.666666666666666 11 12.5
  endloop
endfacet
facet normal 0 0 -1
  outer loop
    vertex 8 3.552713678800501e-15 12.5
    vertex 8 8 12.5
    vertex 11 3.66666666666667 12.5
  endloop
endfacet
facet normal 0 0 -1
  outer loop
    vertex 0 -7.999999999999993 12.5
    vertex 8 -7.999999999999993 12.5
    vertex 3.666666666666666 -10.99999999999999 12.5
  endloop
endfacet
facet normal 0 0 -1
  outer loop
    vertex 8 -7.999999999999993 12.5
    vertex 8 3.552713678800501e-15 12.5
    vertex 11 -3.666666666666662 12.5
  endloop
endfacet
facet normal 0 0 -1
  outer loop
    vertex -11 3.66666666666667 12.5
    vertex -8 3.552713678800501e-15 12.5
    vertex -11 -3.666666666666662 12.5
  endloop
endfacet
facet normal 0 0 -1
  outer loop
    vertex -3.666666666666667 -10.99999999999999 12.5
    vertex 0 -7.999999999999993 12.5
    vertex 3.666666666666666 -10.99999999999999 12.5
  endloop
endfacet
facet normal -0 0 -1
  outer loop
    vertex 3.666666666666666 11 12.5
    vertex 0 8 12.5
    vertex -3.666666666666667 11 12.5
  endloop
endfacet
facet normal 0 0 -1
  outer loop
    vertex 11 -3.666666666666662 12.5
    vertex 8 3.552713678800501e-15 12.5
    vertex 11 3.66666666666667 12.5
  endloop
endfacet
facet normal 1 -0 0
  outer loop
    vertex 11 1.609028930648371 27.20976096338085
    vertex 11 5.673717566028657 22.09138611467936
    vertex 11 11 27.5
  endloop
endfacet
facet normal 1 0 0
  outer loop
    vertex 11 11 27.5
    vertex 11 5.74020404267802 32.60365476043215
    vertex 11 1.609028930648371 27.20976096338085
  endloop
endfacet
facet normal 1 -0 0
  outer loop
    vertex 11 -5.188908991316956 31.08517273193104
    vertex 11 1.609028930648371 27.20976096338085
    vertex 11 5.329070518200751e-15 36.14914703891412
  endloop
endfacet
facet normal 1 0 -0
  outer loop
    vertex 11 1.609028930648371 27.20976096338085
    vertex 11 5.74020404267802 32.60365476043215
    vertex 11 5.329070518200751e-15 36.14914703891412
  endloop
endfacet
facet normal 1 0 -0
  outer loop
    vertex 11 0.2796479175661286 18.92116340920545
    vertex 11 1.609028930648371 27.20976096338085
    vertex 11 -5.058575873296404 23.73554695349012
  endloop
endfacet
facet normal 1 0 0
  outer loop
    vertex 11 3.66666666666667 12.5
    vertex 11 0.2796479175661286 18.92116340920545
    vertex 11 -3.666666666666662 12.5
  endloop
endfacet
facet normal 1 -0 0
  outer loop
    vertex 11 -3.666666666666662 42.5
    vertex 11 5.329070518200751e-15 36.14914703891412
    vertex 11 3.66666666666667 42.5
  endloop
endfacet
facet normal 1 0 0
  outer loop
    vertex 11 -10.99999999999999 27.5
    vertex 11 -5.188908991316956 31.08517273193104
    vertex 11 -10.99999999999999 35
  endloop
endfacet
facet normal 1 0 -0
  outer loop
    vertex 11 -5.058575873296404 23.73554695349012
    vertex 11 1.609028930648371 27.20976096338085
    vertex 11 -5.188908991316956 31.08517273193104
  endloop
endfacet
facet normal 1 0 0
  outer loop
    vertex 11 11 27.5
    vertex 11 5.673717566028657 22.09138611467936
    vertex 11 11 20
  endloop
endfacet
facet normal 1 0 0
  outer loop
    vertex 11 0.2796479175661286 18.92116340920545
    vertex 11 5.673717566028657 22.09138611467936
    vertex 11 1.609028930648371 27.20976096338085
  endloop
endfacet
facet normal 1 0 0
  outer loop
    vertex 11 11 35
    vertex 11 5.74020404267802 32.60365476043215
    vertex 11 11 27.5
  endloop
endfacet
facet normal 1 0 0
  outer loop
    vertex 11 -10.99999999999999 20
    vertex 11 -5.058575873296404 23.73554695349012
    vertex 11 -10.99999999999999 27.5
  endloop
endfacet
facet normal 1 0 0
  outer loop
    vertex 11 -10.99999999999999 12.5
    vertex 11 -5.660896799147149 17.88527127787093
    vertex 11 -10.99999999999999 20
  endloop
endfacet
facet normal 1 0 0
  outer loop
    vertex 11 -10.99999999999999 35
    vertex 11 -5.660896799147149 37.11472872212907
    vertex 11 -10.99999999999999 42.5
  endloop
endfacet
facet normal 1 -0 0
  outer loop
    vertex 11 -10.99999999999999 42.5
    vertex 11 -5.660896799147149 37.11472872212907
    vertex 11 -3.666666666666662 42.5
  endloop
endfacet
facet normal 1 0 0
  outer loop
    vertex 11 -3.666666666666662 12.5
    vertex 11 -5.660896799147149 17.88527127787093
    vertex 11 -10.99999999999999 12.5
  endloop
endfacet
facet normal 1 0 0
  outer loop
    vertex 11 -5.058575873296404 23.73554695349012
    vertex 11 -5.188908991316956 31.08517273193104
    vertex 11 -10.99999999999999 27.5
  endloop
endfacet
facet normal 1 0 0
  outer loop
    vertex 11 11 42.5
    vertex 11 6.281374141868941 37.75056035986925
    vertex 11 11 35
  endloop
endfacet
facet normal 1 -0 0
  outer loop
    vertex 11 3.66666666666667 42.5
    vertex 11 6.281374141868941 37.75056035986925
    vertex 11 11 42.5
  endloop
endfacet
facet normal 1 0 -0
  outer loop
    vertex 11 3.66666666666667 12.5
    vertex 11 6.32400643005229 17.20250990477696
    vertex 11 0.2796479175661286 18.92116340920545
  endloop
endfacet
facet normal 1 0 0
  outer loop
    vertex 11 -5.188908991316956 31.08517273193104
    vertex 11 -5.660896799147149 37.11472872212907
    vertex 11 -10.99999999999999 35
  endloop
endfacet
facet normal 1 0 0
  outer loop
    vertex 11 11 20
    vertex 11 6.32400643005229 17.20250990477696
    vertex 11 11 12.5
  endloop
endfacet
facet normal 1 0 0
  outer loop
    vertex 11 5.329070518200751e-15 36.14914703891412
    vertex 11 6.281374141868941 37.75056035986925
    vertex 11 3.66666666666667 42.5
  endloop
endfacet
facet normal 1 0 0
  outer loop
    vertex 11 11 12.5
    vertex 11 6.32400643005229 17.20250990477696
    vertex 11 3.66666666666667 12.5
  endloop
endfacet
facet normal 1 0 0
  outer loop
    vertex 11 -3.666666666666662 42.5
    vertex 11 -5.660896799147149 37.11472872212907
    vertex 11 5.329070518200751e-15 36.14914703891412
  endloop
endfacet
facet normal 1 0 0
  outer loop
    vertex 11 0.2796479175661286 18.92116340920545
    vertex 11 -5.660896799147149 17.88527127787093
    vertex 11 -3.666666666666662 12.5
  endloop
endfacet
facet normal 1 0 0
  outer loop
    vertex 11 5.329070518200751e-15 36.14914703891412
    vertex 11 -5.660896799147149 37.11472872212907
    vertex 11 -5.188908991316956 31.08517273193104
  endloop
endfacet
facet normal 1 0 0
  outer loop
    vertex 11 -5.058575873296404 23.73554695349012
    vertex 11 -5.660896799147149 17.88527127787093
    vertex 11 0.2796479175661286 18.92116340920545
  endloop
endfacet
facet normal 1 -0 0
  outer loop
    vertex 11 -10.99999999999999 20
    vertex 11 -5.660896799147149 17.88527127787093
    vertex 11 -5.058575873296404 23.73554695349012
  endloop
endfacet
facet normal 1 -0 0
  outer loop
    vertex 11 0.2796479175661286 18.92116340920545
    vertex 11 6.32400643005229 17.20250990477696
    vertex 11 5.673717566028657 22.09138611467936
  endloop
endfacet
facet normal 1 0 -0
  outer loop
    vertex 11 5.74020404267802 32.60365476043215
    vertex 11 6.281374141868941 37.75056035986925
    vertex 11 5.329070518200751e-15 36.14914703891412
  endloop
endfacet
facet normal 1 0 0
  outer loop
    vertex 11 11 35
    vertex 11 6.281374141868941 37.75056035986925
    vertex 11 5.74020404267802 32.60365476043215
  endloop
endfacet
facet normal 1 0 0
  outer loop
    vertex 11 5.673717566028657 22.09138611467936
    vertex 11 6.32400643005229 17.20250990477696
    vertex 11 11 20
  endloop
endfacet
facet normal -1 0 0
  outer loop
    vertex -8 -7.999999999999993 -37.5
    vertex -8 -7.999999999999993 -30.35714285714286
    vertex -8 -2.184657919525407 -32.06360569489885
  endloop
endfacet
facet normal -1 0 -0
  outer loop
    vertex -8 8 12.5
    vertex -8 8 5.357142857142861
    vertex -8 2.185684993965078 7.071324419093713
  endloop
endfacet
facet normal -1 0 0
  outer loop
    vertex -8 2.558980321592026 -4.216727894382494
    vertex -8 1.857441847059725 -12.33708357674852
    vertex -8 -2.964430548995006 -6.38045837766623
  endloop
endfacet
facet normal -1 0 -0
  outer loop
    vertex -8 -2.964430548995006 -6.38045837766623
    vertex -8 1.857441847059725 -12.33708357674852
    vertex -8 -3.784218592123568 -12.67207981945438
  endloop
endfacet
facet normal -1 0 0
  outer loop
    vertex -8 3.552713678800501e-15 -37.5
    vertex -8 -7.999999999999993 -37.5
    vertex -8 -2.184657919525407 -32.06360569489885
  endloop
endfacet
facet normal -1 0 0
  outer loop
    vertex -8 3.552713678800501e-15 12.5
    vertex -8 8 12.5
    vertex -8 2.185684993965078 7.071324419093713
  endloop
endfacet
facet normal -1 0 0
  outer loop
    vertex -8 -1.814104258682574 -19.64285714285714
    vertex -8 1.857441847059725 -12.33708357674852
    vertex -8 3.742783133491377 -19.64285714285714
  endloop
endfacet
facet normal -1 0 -0
  outer loop
    vertex -8 -1.814104258682574 -19.64285714285714
    vertex -8 2.460222329130433 -26.48534691941935
    vertex -8 -3.56816984628289 -26.61057296425951
  endloop
endfacet
facet normal -1 0 0
  outer loop
    vertex -8 2.460222329130433 -26.48534691941935
    vertex -8 -1.814104258682574 -19.64285714285714
    vertex -8 3.742783133491377 -19.64285714285714
  endloop
endfacet
facet normal -1 0 -0
  outer loop
    vertex -8 -2.460222329130424 1.485346919419349
    vertex -8 2.558980321592026 -4.216727894382494
    vertex -8 -2.964430548995006 -6.38045837766623
  endloop
endfacet
facet normal -1 0 0
  outer loop
    vertex -8 1.857441847059725 -12.33708357674852
    vertex -8 -1.814104258682574 -19.64285714285714
    vertex -8 -3.784218592123568 -12.67207981945438
  endloop
endfacet
facet normal -1 0 0
  outer loop
    vertex -8 2.558980321592026 -4.216727894382494
    vertex -8 -2.460222329130424 1.485346919419349
    vertex -8 3.574332292920882 1.65688530942866
  endloop
endfacet
facet normal -1 0 -0
  outer loop
    vertex -8 8 -23.21428571428572
    vertex -8 8 -30.35714285714286
    vertex -8 2.460222329130433 -26.48534691941935
  endloop
endfacet
facet normal -1 0 -0
  outer loop
    vertex -8 8 -8.928571428571427
    vertex -8 8 -16.07142857142857
    vertex -8 1.857441847059725 -12.33708357674852
  endloop
endfacet
facet normal -1 0 -0
  outer loop
    vertex -8 8 -1.785714285714285
    vertex -8 8 -8.928571428571427
    vertex -8 2.558980321592026 -4.216727894382494
  endloop
endfacet
facet normal -1 0 -0
  outer loop
    vertex -8 2.558980321592026 -4.216727894382494
    vertex -8 8 -8.928571428571427
    vertex -8 1.857441847059725 -12.33708357674852
  endloop
endfacet
facet normal -1 0 0
  outer loop
    vertex -8 -7.999999999999993 -23.21428571428572
    vertex -8 -7.999999999999993 -16.07142857142857
    vertex -8 -1.814104258682574 -19.64285714285714
  endloop
endfacet
facet normal -1 0 0
  outer loop
    vertex -8 -7.999999999999993 -1.785714285714285
    vertex -8 -7.999999999999993 5.357142857142861
    vertex -8 -2.460222329130424 1.485346919419349
  endloop
endfacet
facet normal -1 0 0
  outer loop
    vertex -8 1.857441847059725 -12.33708357674852
    vertex -8 8 -16.07142857142857
    vertex -8 3.742783133491377 -19.64285714285714
  endloop
endfacet
facet normal -1 0 0
  outer loop
    vertex -8 -7.999999999999993 -23.21428571428572
    vertex -8 -1.814104258682574 -19.64285714285714
    vertex -8 -3.56816984628289 -26.61057296425951
  endloop
endfacet
facet normal -1 -0 0
  outer loop
    vertex -8 8 -23.21428571428572
    vertex -8 2.460222329130433 -26.48534691941935
    vertex -8 3.742783133491377 -19.64285714285714
  endloop
endfacet
facet normal -1 0 0
  outer loop
    vertex -8 -7.999999999999993 -1.785714285714285
    vertex -8 -2.460222329130424 1.485346919419349
    vertex -8 -2.964430548995006 -6.38045837766623
  endloop
endfacet
facet normal -1 0 0
  outer loop
    vertex -8 -1.814104258682574 -19.64285714285714
    vertex -8 -7.999999999999993 -16.07142857142857
    vertex -8 -3.784218592123568 -12.67207981945438
  endloop
endfacet
facet normal -1 -0 0
  outer loop
    vertex -8 8 -1.785714285714285
    vertex -8 2.558980321592026 -4.216727894382494
    vertex -8 3.574332292920882 1.65688530942866
  endloop
endfacet
facet normal -1 0 0
  outer loop
    vertex -8 -2.460222329130424 1.485346919419349
    vertex -8 -7.999999999999993 5.357142857142861
    vertex -8 -3.254907467033065 7.782762839131188
  endloop
endfacet
facet normal -1 0 0
  outer loop
    vertex -8 2.460222329130433 -26.48534691941935
    vertex -8 8 -30.35714285714286
    vertex -8 3.255112881921008 -32.78121909429221
  endloop
endfacet
facet normal -1 0 0
  outer loop
    vertex -8 -7.999999999999993 12.5
    vertex -8 3.552713678800501e-15 12.5
    vertex -8 -3.254907467033065 7.782762839131188
  endloop
endfacet
facet normal -1 0 0
  outer loop
    vertex -8 8 -37.5
    vertex -8 3.552713678800501e-15 -37.5
    vertex -8 3.255112881921008 -32.78121909429221
  endloop
endfacet
facet normal -1 0 0
  outer loop
    vertex -8 -7.999999999999993 -8.928571428571427
    vertex -8 -2.964430548995006 -6.38045837766623
    vertex -8 -3.784218592123568 -12.67207981945438
  endloop
endfacet
facet normal -1 0 0
  outer loop
    vertex -8 -7.999999999999993 -30.35714285714286
    vertex -8 -7.999999999999993 -23.21428571428572
    vertex -8 -3.56816984628289 -26.61057296425951
  endloop
endfacet
facet normal -1 0 -0
  outer loop
    vertex -8 8 -16.07142857142857
    vertex -8 8 -23.21428571428572
    vertex -8 3.742783133491377 -19.64285714285714
  endloop
endfacet
facet normal -1 0 -0
  outer loop
    vertex -8 8 5.357142857142861
    vertex -8 8 -1.785714285714285
    vertex -8 3.574332292920882 1.65688530942866
  endloop
endfacet
facet normal -1 0 0
  outer loop
    vertex -8 -7.999999999999993 -8.928571428571427
    vertex -8 -7.999999999999993 -1.785714285714285
    vertex -8 -2.964430548995006 -6.38045837766623
  endloop
endfacet
facet normal -1 0 0
  outer loop
    vertex -8 -7.999999999999993 -16.07142857142857
    vertex -8 -7.999999999999993 -8.928571428571427
    vertex -8 -3.784218592123568 -12.67207981945438
  endloop
endfacet
facet normal -1 -0 0
  outer loop
    vertex -8 2.185684993965078 7.071324419093713
    vertex -8 -2.460222329130424 1.485346919419349
    vertex -8 -3.254907467033065 7.782762839131188
  endloop
endfacet
facet normal -1 0 0
  outer loop
    vertex -8 -2.184657919525407 -32.06360569489885
    vertex -8 2.460222329130433 -26.48534691941935
    vertex -8 3.255112881921008 -32.78121909429221
  endloop
endfacet
facet normal -1 0 0
  outer loop
    vertex -8 -7.999999999999993 -30.35714285714286
    vertex -8 -3.56816984628289 -26.61057296425951
    vertex -8 -2.184657919525407 -32.06360569489885
  endloop
endfacet
facet normal -1 -0 0
  outer loop
    vertex -8 8 5.357142857142861
    vertex -8 3.574332292920882 1.65688530942866
    vertex -8 2.185684993965078 7.071324419093713
  endloop
endfacet
facet normal -1 0 -0
  outer loop
    vertex -8 8 -30.35714285714286
    vertex -8 8 -37.5
    vertex -8 3.255112881921008 -32.78121909429221
  endloop
endfacet
facet normal -1 0 0
  outer loop
    vertex -8 -7.999999999999993 5.357142857142861
    vertex -8 -7.999999999999993 12.5
    vertex -8 -3.254907467033065 7.782762839131188
  endloop
endfacet
facet normal -1 -0 0
  outer loop
    vertex -8 3.574332292920882 1.65688530942866
    vertex -8 -2.460222329130424 1.485346919419349
    vertex -8 2.185684993965078 7.071324419093713
  endloop
endfacet
facet normal -1 0 0
  outer loop
    vertex -8 -3.56816984628289 -26.61057296425951
    vertex -8 2.460222329130433 -26.48534691941935
    vertex -8 -2.184657919525407 -32.06360569489885
  endloop
endfacet
facet normal -1 0 0
  outer loop
    vertex -8 3.552713678800501e-15 -37.5
    vertex -8 -2.184657919525407 -32.06360569489885
    vertex -8 3.255112881921008 -32.78121909429221
  endloop
endfacet
facet normal -1 0 -0
  outer loop
    vertex -8 3.552713678800501e-15 12.5
    vertex -8 2.185684993965078 7.071324419093713
    vertex -8 -3.254907467033065 7.782762839131188
  endloop
endfacet
facet normal 0 -1 0
  outer loop
    vertex 8 -7.999999999999993 5.357142857142861
    vertex 8 -7.999999999999993 12.5
    vertex 2.184249984278404 -7.999999999999993 7.061018502831715
  endloop
endfacet
facet normal 0 -1 0
  outer loop
    vertex -8 -7.999999999999993 -30.35714285714286
    vertex -8 -7.999999999999993 -37.5
    vertex -2.184657919525412 -7.999999999999993 -32.06360569489885
  endloop
endfacet
facet normal 0 -1 0
  outer loop
    vertex -2.851616282726338 -7.999999999999993 -11.54343278309772
    vertex 1.780523029149265 -7.999999999999993 -5.570120508110158
    vertex -3.906263116541503 -7.999999999999993 -5.26849841721485
  endloop
endfacet
facet normal 0 -1 0
  outer loop
    vertex 2.666666666666666 -7.999999999999993 -13.69047619047619
    vertex 1.780523029149265 -7.999999999999993 -5.570120508110158
    vertex -2.851616282726338 -7.999999999999993 -11.54343278309772
  endloop
endfacet
facet normal -0 -1 0
  outer loop
    vertex 8 -7.999999999999993 12.5
    vertex 0 -7.999999999999993 12.5
    vertex 2.184249984278404 -7.999999999999993 7.061018502831715
  endloop
endfacet
facet normal 0 -1 0
  outer loop
    vertex -8 -7.999999999999993 -37.5
    vertex 0 -7.999999999999993 -37.5
    vertex -2.184657919525412 -7.999999999999993 -32.06360569489885
  endloop
endfacet
facet normal 0 -1 0
  outer loop
    vertex -2.460222329130437 -7.999999999999993 1.485346919419349
    vertex 1.780523029149265 -7.999999999999993 -5.570120508110158
    vertex 3.565722234800869 -7.999999999999993 1.595049811856647
  endloop
endfacet
facet normal -0 -1 0
  outer loop
    vertex 2.460222329130431 -7.999999999999993 -26.48534691941934
    vertex -1.814104258682582 -7.999999999999993 -19.64285714285714
    vertex -3.568169846282895 -7.999999999999993 -26.61057296425951
  endloop
endfacet
facet normal 0 -1 0
  outer loop
    vertex -1.814104258682582 -7.999999999999993 -19.64285714285714
    vertex 2.460222329130431 -7.999999999999993 -26.48534691941934
    vertex 3.862556947422902 -7.999999999999993 -19.82087890769339
  endloop
endfacet
facet normal 0 -1 0
  outer loop
    vertex 1.780523029149265 -7.999999999999993 -5.570120508110158
    vertex -2.460222329130437 -7.999999999999993 1.485346919419349
    vertex -3.906263116541503 -7.999999999999993 -5.26849841721485
  endloop
endfacet
facet normal 0 -1 0
  outer loop
    vertex -1.814104258682582 -7.999999999999993 -19.64285714285714
    vertex 2.666666666666666 -7.999999999999993 -13.69047619047619
    vertex -2.851616282726338 -7.999999999999993 -11.54343278309772
  endloop
endfacet
facet normal 0 -1 -0
  outer loop
    vertex 2.666666666666666 -7.999999999999993 -13.69047619047619
    vertex -1.814104258682582 -7.999999999999993 -19.64285714285714
    vertex 3.862556947422902 -7.999999999999993 -19.82087890769339
  endloop
endfacet
facet normal 0 -1 0
  outer loop
    vertex 8 -7.999999999999993 -30.35714285714286
    vertex 8 -7.999999999999993 -23.21428571428572
    vertex 2.460222329130431 -7.999999999999993 -26.48534691941934
  endloop
endfacet
facet normal 0 -1 0
  outer loop
    vertex 8 -7.999999999999993 -16.07142857142857
    vertex 8 -7.999999999999993 -8.928571428571427
    vertex 2.666666666666666 -7.999999999999993 -13.69047619047619
  endloop
endfacet
facet normal 0 -1 0
  outer loop
    vertex -8 -7.999999999999993 -16.07142857142857
    vertex -8 -7.999999999999993 -23.21428571428572
    vertex -1.814104258682582 -7.999999999999993 -19.64285714285714
  endloop
endfacet
facet normal 0 -1 0
  outer loop
    vertex -8 -7.999999999999993 5.357142857142861
    vertex -8 -7.999999999999993 -1.785714285714285
    vertex -2.460222329130437 -7.999999999999993 1.485346919419349
  endloop
endfacet
facet normal 0 -1 0
  outer loop
    vertex 8 -7.999999999999993 -8.928571428571427
    vertex 8 -7.999999999999993 -1.785714285714285
    vertex 1.780523029149265 -7.999999999999993 -5.570120508110158
  endloop
endfacet
facet normal 0 -1 0
  outer loop
    vertex 2.666666666666666 -7.999999999999993 -13.69047619047619
    vertex 8 -7.999999999999993 -8.928571428571427
    vertex 1.780523029149265 -7.999999999999993 -5.570120508110158
  endloop
endfacet
facet normal 0 -1 0
  outer loop
    vertex -1.814104258682582 -7.999999999999993 -19.64285714285714
    vertex -8 -7.999999999999993 -23.21428571428572
    vertex -3.568169846282895 -7.999999999999993 -26.61057296425951
  endloop
endfacet
facet normal 0 -1 0
  outer loop
    vertex 1.780523029149265 -7.999999999999993 -5.570120508110158
    vertex 8 -7.999999999999993 -1.785714285714285
    vertex 3.565722234800869 -7.999999999999993 1.595049811856647
  endloop
endfacet
facet normal -0 -1 0
  outer loop
    vertex 8 -7.999999999999993 -16.07142857142857
    vertex 2.666666666666666 -7.999999999999993 -13.69047619047619
    vertex 3.862556947422902 -7.999999999999993 -19.82087890769339
  endloop
endfacet
facet normal 0 -1 0
  outer loop
    vertex 2.460222329130431 -7.999999999999993 -26.48534691941934
    vertex 8 -7.999999999999993 -23.21428571428572
    vertex 3.862556947422902 -7.999999999999993 -19.82087890769339
  endloop
endfacet
facet normal 0 -1 0
  outer loop
    vertex -8 -7.999999999999993 -16.07142857142857
    vertex -1.814104258682582 -7.999999999999993 -19.64285714285714
    vertex -2.851616282726338 -7.999999999999993 -11.54343278309772
  endloop
endfacet
facet normal 0 -1 0
  outer loop
    vertex -2.460222329130437 -7.999999999999993 1.485346919419349
    vertex -8 -7.999999999999993 -1.785714285714285
    vertex -3.906263116541503 -7.999999999999993 -5.26849841721485
  endloop
endfacet
facet normal 0 -1 0
  outer loop
    vertex -8 -7.999999999999993 5.357142857142861
    vertex -2.460222329130437 -7.999999999999993 1.485346919419349
    vertex -3.255194468970407 -7.999999999999993 7.780701655878786
  endloop
endfacet
facet normal -0 -1 0
  outer loop
    vertex 8 -7.999999999999993 -30.35714285714286
    vertex 2.460222329130431 -7.999999999999993 -26.48534691941934
    vertex 3.255112881921004 -7.999999999999993 -32.78121909429221
  endloop
endfacet
facet normal -0 -1 0
  outer loop
    vertex 0 -7.999999999999993 12.5
    vertex -8 -7.999999999999993 12.5
    vertex -3.255194468970407 -7.999999999999993 7.780701655878786
  endloop
endfacet
facet normal 0 -1 0
  outer loop
    vertex 0 -7.999999999999993 -37.5
    vertex 8 -7.999999999999993 -37.5
    vertex 3.255112881921004 -7.999999999999993 -32.78121909429221
  endloop
endfacet
facet normal 0 -1 0
  outer loop
    vertex -8 -7.999999999999993 -8.928571428571427
    vertex -2.851616282726338 -7.999999999999993 -11.54343278309772
    vertex -3.906263116541503 -7.999999999999993 -5.26849841721485
  endloop
endfacet
facet normal 0 -1 0
  outer loop
    vertex 8 -7.999999999999993 -1.785714285714285
    vertex 8 -7.999999999999993 5.357142857142861
    vertex 3.565722234800869 -7.999999999999993 1.595049811856647
  endloop
endfacet
facet normal 0 -1 0
  outer loop
    vertex -8 -7.999999999999993 -23.21428571428572
    vertex -8 -7.999999999999993 -30.35714285714286
    vertex -3.568169846282895 -7.999999999999993 -26.61057296425951
  endloop
endfacet
facet normal 0 -1 0
  outer loop
    vertex 8 -7.999999999999993 -23.21428571428572
    vertex 8 -7.999999999999993 -16.07142857142857
    vertex 3.862556947422902 -7.999999999999993 -19.82087890769339
  endloop
endfacet
facet normal 0 -1 0
  outer loop
    vertex -8 -7.999999999999993 -1.785714285714285
    vertex -8 -7.999999999999993 -8.928571428571427
    vertex -3.906263116541503 -7.999999999999993 -5.26849841721485
  endloop
endfacet
facet normal 0 -1 0
  outer loop
    vertex -8 -7.999999999999993 -8.928571428571427
    vertex -8 -7.999999999999993 -16.07142857142857
    vertex -2.851616282726338 -7.999999999999993 -11.54343278309772
  endloop
endfacet
facet normal 0 -1 0
  outer loop
    vertex -2.460222329130437 -7.999999999999993 1.485346919419349
    vertex 2.184249984278404 -7.999999999999993 7.061018502831715
    vertex -3.255194468970407 -7.999999999999993 7.780701655878786
  endloop
endfacet
facet normal 0 -1 -0
  outer loop
    vertex 2.460222329130431 -7.999999999999993 -26.48534691941934
    vertex -2.184657919525412 -7.999999999999993 -32.06360569489885
    vertex 3.255112881921004 -7.999999999999993 -32.78121909429221
  endloop
endfacet
facet normal 0 -1 0
  outer loop
    vertex 3.565722234800869 -7.999999999999993 1.595049811856647
    vertex 8 -7.999999999999993 5.357142857142861
    vertex 2.184249984278404 -7.999999999999993 7.061018502831715
  endloop
endfacet
facet normal 0 -1 -0
  outer loop
    vertex -3.568169846282895 -7.999999999999993 -26.61057296425951
    vertex -8 -7.999999999999993 -30.35714285714286
    vertex -2.184657919525412 -7.999999999999993 -32.06360569489885
  endloop
endfacet
facet normal 0 -1 0
  outer loop
    vertex -8 -7.999999999999993 12.5
    vertex -8 -7.999999999999993 5.357142857142861
    vertex -3.255194468970407 -7.999999999999993 7.780701655878786
  endloop
endfacet
facet normal 0 -1 0
  outer loop
    vertex 8 -7.999999999999993 -37.5
    vertex 8 -7.999999999999993 -30.35714285714286
    vertex 3.255112881921004 -7.999999999999993 -32.78121909429221
  endloop
endfacet
facet normal 0 -1 0
  outer loop
    vertex -2.460222329130437 -7.999999999999993 1.485346919419349
    vertex 3.565722234800869 -7.999999999999993 1.595049811856647
    vertex 2.184249984278404 -7.999999999999993 7.061018502831715
  endloop
endfacet
facet normal 0 -1 0
  outer loop
    vertex 2.460222329130431 -7.999999999999993 -26.48534691941934
    vertex -3.568169846282895 -7.999999999999993 -26.61057296425951
    vertex -2.184657919525412 -7.999999999999993 -32.06360569489885
  endloop
endfacet
facet normal 0 -1 0
  outer loop
    vertex -2.184657919525412 -7.999999999999993 -32.06360569489885
    vertex 0 -7.999999999999993 -37.5
    vertex 3.255112881921004 -7.999999999999993 -32.78121909429221
  endloop
endfacet
facet normal 0 -1 0
  outer loop
    vertex 2.184249984278404 -7.999999999999993 7.061018502831715
    vertex 0 -7.999999999999993 12.5
    vertex -3.255194468970407 -7.999999999999993 7.780701655878786
  endloop
endfacet
facet normal 1 0 0
  outer loop
    vertex 8 8 -37.5
    vertex 8 2.454201908430184 -30.32667002250309
    vertex 8 3.552713678800501e-15 -37.5
  endloop
endfacet
facet normal 1 0 0
  outer loop
    vertex 8 8 12.5
    vertex 8 2.321446479134803 7.142857142857139
    vertex 8 8 5.357142857142861
  endloop
endfacet
facet normal 1 0 0
  outer loop
    vertex 8 8 -30.35714285714286
    vertex 8 2.454201908430184 -30.32667002250309
    vertex 8 8 -37.5
  endloop
endfacet
facet normal 1 0 0
  outer loop
    vertex 8 8 -23.21428571428572
    vertex 8 2.454201908430184 -30.32667002250309
    vertex 8 8 -30.35714285714286
  endloop
endfacet
facet normal 1 -0 0
  outer loop
    vertex 8 1.721730572001889 -23.60161122346003
    vertex 8 2.454201908430184 -30.32667002250309
    vertex 8 8 -23.21428571428572
  endloop
endfacet
facet normal 1 -0 0
  outer loop
    vertex 8 3.552713678800501e-15 12.5
    vertex 8 2.321446479134803 7.142857142857139
    vertex 8 8 12.5
  endloop
endfacet
facet normal 1 0 -0
  outer loop
    vertex 8 2.150039711096978 -4.469184223273963
    vertex 8 3.742783133491379 1.785714285714278
    vertex 8 -1.814104258682576 1.785714285714285
  endloop
endfacet
facet normal 1 0 0
  outer loop
    vertex 8 8 -8.928571428571427
    vertex 8 2.150039711096978 -4.469184223273963
    vertex 8 2.561831941809425 -11.90476190476191
  endloop
endfacet
facet normal 1 0 0
  outer loop
    vertex 8 -7.999999999999993 -30.35714285714286
    vertex 8 -2.214161183575793 -26.65669498650878
    vertex 8 -7.999999999999993 -23.21428571428572
  endloop
endfacet
facet normal 1 0 0
  outer loop
    vertex 8 8 -8.928571428571427
    vertex 8 2.561831941809425 -11.90476190476191
    vertex 8 8 -16.07142857142857
  endloop
endfacet
facet normal 1 0 0
  outer loop
    vertex 8 -7.999999999999993 -23.21428571428572
    vertex 8 -2.628508095958288 -20.21659202156099
    vertex 8 -7.999999999999993 -16.07142857142857
  endloop
endfacet
facet normal 1 0 0
  outer loop
    vertex 8 -2.214161183575793 -26.65669498650878
    vertex 8 -2.628508095958288 -20.21659202156099
    vertex 8 -7.999999999999993 -23.21428571428572
  endloop
endfacet
facet normal 1 0 0
  outer loop
    vertex 8 -7.999999999999993 -1.785714285714285
    vertex 8 -1.814104258682576 1.785714285714285
    vertex 8 -7.999999999999993 5.357142857142861
  endloop
endfacet
facet normal 1 0 0
  outer loop
    vertex 8 8 -1.785714285714285
    vertex 8 2.150039711096978 -4.469184223273963
    vertex 8 8 -8.928571428571427
  endloop
endfacet
facet normal 1 0 0
  outer loop
    vertex 8 -1.814104258682576 1.785714285714285
    vertex 8 -3.590894050097215 -4.449821884959796
    vertex 8 2.150039711096978 -4.469184223273963
  endloop
endfacet
facet normal 1 0 0
  outer loop
    vertex 8 8 -1.785714285714285
    vertex 8 3.742783133491379 1.785714285714278
    vertex 8 2.150039711096978 -4.469184223273963
  endloop
endfacet
facet normal 1 0 0
  outer loop
    vertex 8 -7.999999999999993 -16.07142857142857
    vertex 8 -2.732006926262012 -14.16188126963256
    vertex 8 -7.999999999999993 -8.928571428571427
  endloop
endfacet
facet normal 1 0 0
  outer loop
    vertex 8 -7.999999999999993 -8.928571428571427
    vertex 8 -3.590894050097215 -4.449821884959796
    vertex 8 -7.999999999999993 -1.785714285714285
  endloop
endfacet
facet normal 1 0 0
  outer loop
    vertex 8 8 -16.07142857142857
    vertex 8 2.60131223112044 -18.06938991663959
    vertex 8 8 -23.21428571428572
  endloop
endfacet
facet normal 1 0 0
  outer loop
    vertex 8 3.552713678800501e-15 -37.5
    vertex 8 -2.917141271217317 -32.45520805387916
    vertex 8 -7.999999999999993 -37.5
  endloop
endfacet
facet normal 1 0 0
  outer loop
    vertex 8 -7.999999999999993 -37.5
    vertex 8 -2.917141271217317 -32.45520805387916
    vertex 8 -7.999999999999993 -30.35714285714286
  endloop
endfacet
facet normal 1 0 0
  outer loop
    vertex 8 -1.814104258682576 1.785714285714285
    vertex 8 -3.098531555909551 7.857142857142861
    vertex 8 -7.999999999999993 5.357142857142861
  endloop
endfacet
facet normal 1 -0 0
  outer loop
    vertex 8 -7.999999999999993 12.5
    vertex 8 -3.098531555909551 7.857142857142861
    vertex 8 3.552713678800501e-15 12.5
  endloop
endfacet
facet normal 1 -0 0
  outer loop
    vertex 8 -7.999999999999993 -8.928571428571427
    vertex 8 -2.732006926262012 -14.16188126963256
    vertex 8 -2.29040570290049 -8.851353772953605
  endloop
endfacet
facet normal 1 0 0
  outer loop
    vertex 8 -2.29040570290049 -8.851353772953605
    vertex 8 -3.590894050097215 -4.449821884959796
    vertex 8 -7.999999999999993 -8.928571428571427
  endloop
endfacet
facet normal 1 0 0
  outer loop
    vertex 8 8 -23.21428571428572
    vertex 8 2.60131223112044 -18.06938991663959
    vertex 8 1.721730572001889 -23.60161122346003
  endloop
endfacet
facet normal 1 0 0
  outer loop
    vertex 8 2.150039711096978 -4.469184223273963
    vertex 8 -2.29040570290049 -8.851353772953605
    vertex 8 2.561831941809425 -11.90476190476191
  endloop
endfacet
facet normal 1 0 0
  outer loop
    vertex 8 8 5.357142857142861
    vertex 8 3.742783133491379 1.785714285714278
    vertex 8 8 -1.785714285714285
  endloop
endfacet
facet normal 1 0 -0
  outer loop
    vertex 8 -2.214161183575793 -26.65669498650878
    vertex 8 1.721730572001889 -23.60161122346003
    vertex 8 -2.628508095958288 -20.21659202156099
  endloop
endfacet
facet normal 1 0 0
  outer loop
    vertex 8 2.321446479134803 7.142857142857139
    vertex 8 -3.098531555909551 7.857142857142861
    vertex 8 -1.814104258682576 1.785714285714285
  endloop
endfacet
facet normal 1 -0 0
  outer loop
    vertex 8 -7.999999999999993 -30.35714285714286
    vertex 8 -2.917141271217317 -32.45520805387916
    vertex 8 -2.214161183575793 -26.65669498650878
  endloop
endfacet
facet normal 1 0 0
  outer loop
    vertex 8 8 5.357142857142861
    vertex 8 2.321446479134803 7.142857142857139
    vertex 8 3.742783133491379 1.785714285714278
  endloop
endfacet
facet normal 1 -0 0
  outer loop
    vertex 8 -2.214161183575793 -26.65669498650878
    vertex 8 2.454201908430184 -30.32667002250309
    vertex 8 1.721730572001889 -23.60161122346003
  endloop
endfacet
facet normal 1 0 -0
  outer loop
    vertex 8 3.552713678800501e-15 -37.5
    vertex 8 2.454201908430184 -30.32667002250309
    vertex 8 -2.917141271217317 -32.45520805387916
  endloop
endfacet
facet normal 1 -0 0
  outer loop
    vertex 8 -7.999999999999993 -1.785714285714285
    vertex 8 -3.590894050097215 -4.449821884959796
    vertex 8 -1.814104258682576 1.785714285714285
  endloop
endfacet
facet normal 1 0 0
  outer loop
    vertex 8 2.561831941809425 -11.90476190476191
    vertex 8 2.60131223112044 -18.06938991663959
    vertex 8 8 -16.07142857142857
  endloop
endfacet
facet normal 1 0 0
  outer loop
    vertex 8 -2.628508095958288 -20.21659202156099
    vertex 8 -2.732006926262012 -14.16188126963256
    vertex 8 -7.999999999999993 -16.07142857142857
  endloop
endfacet
facet normal 1 0 0
  outer loop
    vertex 8 -7.999999999999993 5.357142857142861
    vertex 8 -3.098531555909551 7.857142857142861
    vertex 8 -7.999999999999993 12.5
  endloop
endfacet
facet normal 1 0 0
  outer loop
    vertex 8 2.561831941809425 -11.90476190476191
    vertex 8 -2.732006926262012 -14.16188126963256
    vertex 8 2.60131223112044 -18.06938991663959
  endloop
endfacet
facet normal 1 0 0
  outer loop
    vertex 8 2.60131223112044 -18.06938991663959
    vertex 8 -2.732006926262012 -14.16188126963256
    vertex 8 -2.628508095958288 -20.21659202156099
  endloop
endfacet
facet normal 1 0 0
  outer loop
    vertex 8 3.742783133491379 1.785714285714278
    vertex 8 2.321446479134803 7.142857142857139
    vertex 8 -1.814104258682576 1.785714285714285
  endloop
endfacet
facet normal 1 0 0
  outer loop
    vertex 8 -2.29040570290049 -8.851353772953605
    vertex 8 -2.732006926262012 -14.16188126963256
    vertex 8 2.561831941809425 -11.90476190476191
  endloop
endfacet
facet normal 1 0 0
  outer loop
    vertex 8 2.150039711096978 -4.469184223273963
    vertex 8 -3.590894050097215 -4.449821884959796
    vertex 8 -2.29040570290049 -8.851353772953605
  endloop
endfacet
facet normal 1 0 -0
  outer loop
    vertex 8 1.721730572001889 -23.60161122346003
    vertex 8 2.60131223112044 -18.06938991663959
    vertex 8 -2.628508095958288 -20.21659202156099
  endloop
endfacet
facet normal 1 0 0
  outer loop
    vertex 8 -2.917141271217317 -32.45520805387916
    vertex 8 2.454201908430184 -30.32667002250309
    vertex 8 -2.214161183575793 -26.65669498650878
  endloop
endfacet
facet normal 1 0 0
  outer loop
    vertex 8 3.552713678800501e-15 12.5
    vertex 8 -3.098531555909551 7.857142857142861
    vertex 8 2.321446479134803 7.142857142857139
  endloop
endfacet
facet normal 0 1 -0
  outer loop
    vertex 8 8 5.357142857142861
    vertex 2.184249984278404 8 7.061018502831715
    vertex 8 8 12.5
  endloop
endfacet
facet normal 0 1 0
  outer loop
    vertex -8 8 -30.35714285714286
    vertex -2.184657919525412 8 -32.06360569489885
    vertex -8 8 -37.5
  endloop
endfacet
facet normal 0 1 -0
  outer loop
    vertex -2.851616282726338 8 -11.54343278309772
    vertex -3.906263116541503 8 -5.26849841721485
    vertex 1.780523029149265 8 -5.570120508110158
  endloop
endfacet
facet normal 0 1 0
  outer loop
    vertex 2.666666666666666 8 -13.69047619047619
    vertex -2.851616282726338 8 -11.54343278309772
    vertex 1.780523029149265 8 -5.570120508110158
  endloop
endfacet
facet normal 0 1 0
  outer loop
    vertex 8 8 12.5
    vertex 2.184249984278404 8 7.061018502831715
    vertex 0 8 12.5
  endloop
endfacet
facet normal 0 1 0
  outer loop
    vertex -8 8 -37.5
    vertex -2.184657919525412 8 -32.06360569489885
    vertex 0 8 -37.5
  endloop
endfacet
facet normal -0 1 0
  outer loop
    vertex -2.460222329130437 8 1.485346919419349
    vertex 3.565722234800869 8 1.595049811856647
    vertex 1.780523029149265 8 -5.570120508110158
  endloop
endfacet
facet normal 0 1 0
  outer loop
    vertex 2.460222329130431 8 -26.48534691941934
    vertex -3.568169846282895 8 -26.61057296425951
    vertex -1.814104258682582 8 -19.64285714285714
  endloop
endfacet
facet normal 0 1 0
  outer loop
    vertex -1.814104258682582 8 -19.64285714285714
    vertex 3.862556947422902 8 -19.82087890769339
    vertex 2.460222329130431 8 -26.48534691941934
  endloop
endfacet
facet normal 0 1 0
  outer loop
    vertex 1.780523029149265 8 -5.570120508110158
    vertex -3.906263116541503 8 -5.26849841721485
    vertex -2.460222329130437 8 1.485346919419349
  endloop
endfacet
facet normal 0 1 -0
  outer loop
    vertex -1.814104258682582 8 -19.64285714285714
    vertex -2.851616282726338 8 -11.54343278309772
    vertex 2.666666666666666 8 -13.69047619047619
  endloop
endfacet
facet normal 0 1 0
  outer loop
    vertex 2.666666666666666 8 -13.69047619047619
    vertex 3.862556947422902 8 -19.82087890769339
    vertex -1.814104258682582 8 -19.64285714285714
  endloop
endfacet
facet normal 0 1 -0
  outer loop
    vertex 8 8 -30.35714285714286
    vertex 2.460222329130431 8 -26.48534691941934
    vertex 8 8 -23.21428571428572
  endloop
endfacet
facet normal 0 1 -0
  outer loop
    vertex 8 8 -16.07142857142857
    vertex 2.666666666666666 8 -13.69047619047619
    vertex 8 8 -8.928571428571427
  endloop
endfacet
facet normal 0 1 0
  outer loop
    vertex -8 8 -16.07142857142857
    vertex -1.814104258682582 8 -19.64285714285714
    vertex -8 8 -23.21428571428572
  endloop
endfacet
facet normal 0 1 0
  outer loop
    vertex -8 8 5.357142857142861
    vertex -2.460222329130437 8 1.485346919419349
    vertex -8 8 -1.785714285714285
  endloop
endfacet
facet normal 0 1 -0
  outer loop
    vertex 8 8 -8.928571428571427
    vertex 1.780523029149265 8 -5.570120508110158
    vertex 8 8 -1.785714285714285
  endloop
endfacet
facet normal 0 1 -0
  outer loop
    vertex 2.666666666666666 8 -13.69047619047619
    vertex 1.780523029149265 8 -5.570120508110158
    vertex 8 8 -8.928571428571427
  endloop
endfacet
facet normal 0 1 0
  outer loop
    vertex -1.814104258682582 8 -19.64285714285714
    vertex -3.568169846282895 8 -26.61057296425951
    vertex -8 8 -23.21428571428572
  endloop
endfacet
facet normal 0 1 0
  outer loop
    vertex 1.780523029149265 8 -5.570120508110158
    vertex 3.565722234800869 8 1.595049811856647
    vertex 8 8 -1.785714285714285
  endloop
endfacet
facet normal 0 1 0
  outer loop
    vertex 8 8 -16.07142857142857
    vertex 3.862556947422902 8 -19.82087890769339
    vertex 2.666666666666666 8 -13.69047619047619
  endloop
endfacet
facet normal 0 1 0
  outer loop
    vertex 2.460222329130431 8 -26.48534691941934
    vertex 3.862556947422902 8 -19.82087890769339
    vertex 8 8 -23.21428571428572
  endloop
endfacet
facet normal -0 1 0
  outer loop
    vertex -8 8 -16.07142857142857
    vertex -2.851616282726338 8 -11.54343278309772
    vertex -1.814104258682582 8 -19.64285714285714
  endloop
endfacet
facet normal 0 1 0
  outer loop
    vertex -2.460222329130437 8 1.485346919419349
    vertex -3.906263116541503 8 -5.26849841721485
    vertex -8 8 -1.785714285714285
  endloop
endfacet
facet normal -0 1 0
  outer loop
    vertex -8 8 5.357142857142861
    vertex -3.255194468970407 8 7.780701655878786
    vertex -2.460222329130437 8 1.485346919419349
  endloop
endfacet
facet normal 0 1 0
  outer loop
    vertex 8 8 -30.35714285714286
    vertex 3.255112881921004 8 -32.78121909429221
    vertex 2.460222329130431 8 -26.48534691941934
  endloop
endfacet
facet normal 0 1 0
  outer loop
    vertex 0 8 12.5
    vertex -3.255194468970407 8 7.780701655878786
    vertex -8 8 12.5
  endloop
endfacet
facet normal 0 1 0
  outer loop
    vertex 0 8 -37.5
    vertex 3.255112881921004 8 -32.78121909429221
    vertex 8 8 -37.5
  endloop
endfacet
facet normal -0 1 0
  outer loop
    vertex -8 8 -8.928571428571427
    vertex -3.906263116541503 8 -5.26849841721485
    vertex -2.851616282726338 8 -11.54343278309772
  endloop
endfacet
facet normal 0 1 -0
  outer loop
    vertex 8 8 -1.785714285714285
    vertex 3.565722234800869 8 1.595049811856647
    vertex 8 8 5.357142857142861
  endloop
endfacet
facet normal 0 1 0
  outer loop
    vertex -8 8 -23.21428571428572
    vertex -3.568169846282895 8 -26.61057296425951
    vertex -8 8 -30.35714285714286
  endloop
endfacet
facet normal 0 1 -0
  outer loop
    vertex 8 8 -23.21428571428572
    vertex 3.862556947422902 8 -19.82087890769339
    vertex 8 8 -16.07142857142857
  endloop
endfacet
facet normal 0 1 0
  outer loop
    vertex -8 8 -1.785714285714285
    vertex -3.906263116541503 8 -5.26849841721485
    vertex -8 8 -8.928571428571427
  endloop
endfacet
facet normal 0 1 0
  outer loop
    vertex -8 8 -8.928571428571427
    vertex -2.851616282726338 8 -11.54343278309772
    vertex -8 8 -16.07142857142857
  endloop
endfacet
facet normal 0 1 -0
  outer loop
    vertex -2.460222329130437 8 1.485346919419349
    vertex -3.255194468970407 8 7.780701655878786
    vertex 2.184249984278404 8 7.061018502831715
  endloop
endfacet
facet normal 0 1 0
  outer loop
    vertex 2.460222329130431 8 -26.48534691941934
    vertex 3.255112881921004 8 -32.78121909429221
    vertex -2.184657919525412 8 -32.06360569489885
  endloop
endfacet
facet normal 0 1 -0
  outer loop
    vertex 3.565722234800869 8 1.595049811856647
    vertex 2.184249984278404 8 7.061018502831715
    vertex 8 8 5.357142857142861
  endloop
endfacet
facet normal 0 1 0
  outer loop
    vertex -3.568169846282895 8 -26.61057296425951
    vertex -2.184657919525412 8 -32.06360569489885
    vertex -8 8 -30.35714285714286
  endloop
endfacet
facet normal 0 1 0
  outer loop
    vertex -8 8 12.5
    vertex -3.255194468970407 8 7.780701655878786
    vertex -8 8 5.357142857142861
  endloop
endfacet
facet normal 0 1 -0
  outer loop
    vertex 8 8 -37.5
    vertex 3.255112881921004 8 -32.78121909429221
    vertex 8 8 -30.35714285714286
  endloop
endfacet
facet normal 0 1 0
  outer loop
    vertex -2.460222329130437 8 1.485346919419349
    vertex 2.184249984278404 8 7.061018502831715
    vertex 3.565722234800869 8 1.595049811856647
  endloop
endfacet
facet normal 0 1 0
  outer loop
    vertex 2.460222329130431 8 -26.48534691941934
    vertex -2.184657919525412 8 -32.06360569489885
    vertex -3.568169846282895 8 -26.61057296425951
  endloop
endfacet
facet normal 0 1 0
  outer loop
    vertex -2.184657919525412 8 -32.06360569489885
    vertex 3.255112881921004 8 -32.78121909429221
    vertex 0 8 -37.5
  endloop
endfacet
facet normal 0 1 0
  outer loop
    vertex 2.184249984278404 8 7.061018502831715
    vertex -3.255194468970407 8 7.780701655878786
    vertex 0 8 12.5
  endloop
endfacet
facet normal 0 0 1
  outer loop
    vertex 8 3.552713678800501e-15 -37.5
    vertex 11 3.75 -37.5
    vertex 8 8 -37.5
  endloop
endfacet
facet normal -0 0 1
  outer loop
    vertex -8 -7.999999999999993 -37.5
    vertex -3.75 -10.99999999999999 -37.5
    vertex 0 -7.999999999999993 -37.5
  endloop
endfacet
facet normal 0 0 1
  outer loop
    vertex 8 -7.999999999999993 -37.5
    vertex 11 -3.749999999999996 -37.5
    vertex 8 3.552713678800501e-15 -37.5
  endloop
endfacet
facet normal -0 0 1
  outer loop
    vertex 0 -7.999999999999993 -37.5
    vertex 3.749999999999996 -10.99999999999999 -37.5
    vertex 8 -7.999999999999993 -37.5
  endloop
endfacet
facet normal 0 0 1
  outer loop
    vertex 8 8 -37.5
    vertex 3.749999999999996 11 -37.5
    vertex 0 8 -37.5
  endloop
endfacet
facet normal 0 0 1
  outer loop
    vertex -8 3.552713678800501e-15 -37.5
    vertex -11 -3.749999999999995 -37.5
    vertex -8 -7.999999999999993 -37.5
  endloop
endfacet
facet normal 0 0 1
  outer loop
    vertex -8 8 -37.5
    vertex -11 3.75 -37.5
    vertex -8 3.552713678800501e-15 -37.5
  endloop
endfacet
facet normal 0 0 1
  outer loop
    vertex 0 8 -37.5
    vertex -3.750000000000002 11 -37.5
    vertex -8 8 -37.5
  endloop
endfacet
facet normal 0 0 1
  outer loop
    vertex -8 -7.999999999999993 -37.5
    vertex -14 -6.999999999999995 -37.5
    vertex -14 -13.99999999999999 -37.5
  endloop
endfacet
facet normal 0 0 1
  outer loop
    vertex -14 -13.99999999999999 -37.5
    vertex -7.000000000000002 -13.99999999999999 -37.5
    vertex -8 -7.999999999999993 -37.5
  endloop
endfacet
facet normal 0 0 1
  outer loop
    vertex -14 14 -37.5
    vertex -14 7 -37.5
    vertex -8 8 -37.5
  endloop
endfacet
facet normal 0 0 1
  outer loop
    vertex -7.000000000000002 14 -37.5
    vertex -14 14 -37.5
    vertex -8 8 -37.5
  endloop
endfacet
facet normal 0 -0 1
  outer loop
    vertex 13.99999999999999 -13.99999999999999 -37.5
    vertex 13.99999999999999 -6.999999999999995 -37.5
    vertex 8 -7.999999999999993 -37.5
  endloop
endfacet
facet normal -0 0 1
  outer loop
    vertex 8 8 -37.5
    vertex 13.99999999999999 7 -37.5
    vertex 13.99999999999999 14 -37.5
  endloop
endfacet
facet normal 0 -0 1
  outer loop
    vertex 8 8 -37.5
    vertex 13.99999999999999 14 -37.5
    vertex 6.999999999999993 14 -37.5
  endloop
endfacet
facet normal 0 0 1
  outer loop
    vertex 8 -7.999999999999993 -37.5
    vertex 6.999999999999993 -13.99999999999999 -37.5
    vertex 13.99999999999999 -13.99999999999999 -37.5
  endloop
endfacet
facet normal 0 0 1
  outer loop
    vertex 13.99999999999999 3.552713678800501e-15 -37.5
    vertex 11 -3.749999999999996 -37.5
    vertex 13.99999999999999 -6.999999999999995 -37.5
  endloop
endfacet
facet normal 0 0 1
  outer loop
    vertex 13.99999999999999 7 -37.5
    vertex 11 3.75 -37.5
    vertex 13.99999999999999 3.552713678800501e-15 -37.5
  endloop
endfacet
facet normal -0 0 1
  outer loop
    vertex -7.000000000000002 14 -37.5
    vertex -3.750000000000002 11 -37.5
    vertex -3.552713678800501e-15 14 -37.5
  endloop
endfacet
facet normal 0 0 1
  outer loop
    vertex -14 -6.999999999999995 -37.5
    vertex -11 -3.749999999999995 -37.5
    vertex -14 3.552713678800501e-15 -37.5
  endloop
endfacet
facet normal 0 0 1
  outer loop
    vertex -3.552713678800501e-15 -13.99999999999999 -37.5
    vertex -3.75 -10.99999999999999 -37.5
    vertex -7.000000000000002 -13.99999999999999 -37.5
  endloop
endfacet
facet normal 0 0 1
  outer loop
    vertex 6.999999999999993 -13.99999999999999 -37.5
    vertex 3.749999999999996 -10.99999999999999 -37.5
    vertex -3.552713678800501e-15 -13.99999999999999 -37.5
  endloop
endfacet
facet normal -0 0 1
  outer loop
    vertex -3.552713678800501e-15 14 -37.5
    vertex 3.749999999999996 11 -37.5
    vertex 6.999999999999993 14 -37.5
  endloop
endfacet
facet normal 0 0 1
  outer loop
    vertex -14 3.552713678800501e-15 -37.5
    vertex -11 3.75 -37.5
    vertex -14 7 -37.5
  endloop
endfacet
facet normal 0 0 1
  outer loop
    vertex 6.999999999999993 14 -37.5
    vertex 3.749999999999996 11 -37.5
    vertex 8 8 -37.5
  endloop
endfacet
facet normal 0 0 1
  outer loop
    vertex 8 8 -37.5
    vertex 11 3.75 -37.5
    vertex 13.99999999999999 7 -37.5
  endloop
endfacet
facet normal 0 0 1
  outer loop
    vertex 8 -7.999999999999993 -37.5
    vertex 3.749999999999996 -10.99999999999999 -37.5
    vertex 6.999999999999993 -13.99999999999999 -37.5
  endloop
endfacet
facet normal 0 0 1
  outer loop
    vertex -8 -7.999999999999993 -37.5
    vertex -11 -3.749999999999995 -37.5
    vertex -14 -6.999999999999995 -37.5
  endloop
endfacet
facet normal 0 -0 1
  outer loop
    vertex -7.000000000000002 -13.99999999999999 -37.5
    vertex -3.75 -10.99999999999999 -37.5
    vertex -8 -7.999999999999993 -37.5
  endloop
endfacet
facet normal 0 0 1
  outer loop
    vertex -8 8 -37.5
    vertex -3.750000000000002 11 -37.5
    vertex -7.000000000000002 14 -37.5
  endloop
endfacet
facet normal -0 0 1
  outer loop
    vertex -14 7 -37.5
    vertex -11 3.75 -37.5
    vertex -8 8 -37.5
  endloop
endfacet
facet normal 0 0 1
  outer loop
    vertex 13.99999999999999 -6.999999999999995 -37.5
    vertex 11 -3.749999999999996 -37.5
    vertex 8 -7.999999999999993 -37.5
  endloop
endfacet
facet normal -0 0 1
  outer loop
    vertex 8 3.552713678800501e-15 -37.5
    vertex 11 -3.749999999999996 -37.5
    vertex 13.99999999999999 3.552713678800501e-15 -37.5
  endloop
endfacet
facet normal 0 0 1
  outer loop
    vertex -8 3.552713678800501e-15 -37.5
    vertex -11 3.75 -37.5
    vertex -14 3.552713678800501e-15 -37.5
  endloop
endfacet
facet normal 0 0 1
  outer loop
    vertex 0 -7.999999999999993 -37.5
    vertex -3.75 -10.99999999999999 -37.5
    vertex -3.552713678800501e-15 -13.99999999999999 -37.5
  endloop
endfacet
facet normal -0 0 1
  outer loop
    vertex -14 3.552713678800501e-15 -37.5
    vertex -11 -3.749999999999995 -37.5
    vertex -8 3.552713678800501e-15 -37.5
  endloop
endfacet
facet normal 0 0 1
  outer loop
    vertex -3.552713678800501e-15 -13.99999999999999 -37.5
    vertex 3.749999999999996 -10.99999999999999 -37.5
    vertex 0 -7.999999999999993 -37.5
  endloop
endfacet
facet normal 0 0 1
  outer loop
    vertex 13.99999999999999 3.552713678800501e-15 -37.5
    vertex 11 3.75 -37.5
    vertex 8 3.552713678800501e-15 -37.5
  endloop
endfacet
facet normal 0 0 1
  outer loop
    vertex -3.552713678800501e-15 14 -37.5
    vertex -3.750000000000002 11 -37.5
    vertex 0 8 -37.5
  endloop
endfacet
facet normal 0 -0 1
  outer loop
    vertex 0 8 -37.5
    vertex 3.749999999999996 11 -37.5
    vertex -3.552713678800501e-15 14 -37.5
  endloop
endfacet
facet normal -1 0 0
  outer loop
    vertex -14 7 -42.5
    vertex -14 7 -37.5
    vertex -14 10.5 -40
  endloop
endfacet
facet normal -1 0 0
  outer loop
    vertex -14 -13.99999999999999 -42.5
    vertex -14 -13.99999999999999 -37.5
    vertex -14 -10.49999999999999 -40
  endloop
endfacet
facet normal -1 0 0
  outer loop
    vertex -14 -6.999999999999995 -42.5
    vertex -14 -6.999999999999995 -37.5
    vertex -14 -3.499999999999995 -40
  endloop
endfacet
facet normal -1 0 0
  outer loop
    vertex -14 3.552713678800501e-15 -42.5
    vertex -14 3.552713678800501e-15 -37.5
    vertex -14 3.5 -40
  endloop
endfacet
facet normal -1 0 -0
  outer loop
    vertex -14 -6.999999999999995 -37.5
    vertex -14 -6.999999999999995 -42.5
    vertex -14 -10.49999999999999 -40
  endloop
endfacet
facet normal -1 0 -0
  outer loop
    vertex -14 3.552713678800501e-15 -37.5
    vertex -14 3.552713678800501e-15 -42.5
    vertex -14 -3.499999999999995 -40
  endloop
endfacet
facet normal -1 0 -0
  outer loop
    vertex -14 14 -37.5
    vertex -14 14 -42.5
    vertex -14 10.5 -40
  endloop
endfacet
facet normal -1 0 -0
  outer loop
    vertex -14 7 -37.5
    vertex -14 7 -42.5
    vertex -14 3.5 -40
  endloop
endfacet
facet normal -1 0 0
  outer loop
    vertex -14 -13.99999999999999 -37.5
    vertex -14 -6.999999999999995 -37.5
    vertex -14 -10.49999999999999 -40
  endloop
endfacet
facet normal -1 0 0
  outer loop
    vertex -14 7 -37.5
    vertex -14 14 -37.5
    vertex -14 10.5 -40
  endloop
endfacet
facet normal -1 0 0
  outer loop
    vertex -14 -6.999999999999995 -42.5
    vertex -14 -13.99999999999999 -42.5
    vertex -14 -10.49999999999999 -40
  endloop
endfacet
facet normal -1 0 0
  outer loop
    vertex -14 14 -42.5
    vertex -14 7 -42.5
    vertex -14 10.5 -40
  endloop
endfacet
facet normal -1 0 0
  outer loop
    vertex -14 -6.999999999999995 -37.5
    vertex -14 3.552713678800501e-15 -37.5
    vertex -14 -3.499999999999995 -40
  endloop
endfacet
facet normal -1 0 0
  outer loop
    vertex -14 3.552713678800501e-15 -37.5
    vertex -14 7 -37.5
    vertex -14 3.5 -40
  endloop
endfacet
facet normal -1 0 0
  outer loop
    vertex -14 3.552713678800501e-15 -42.5
    vertex -14 -6.999999999999995 -42.5
    vertex -14 -3.499999999999995 -40
  endloop
endfacet
facet normal -1 0 0
  outer loop
    vertex -14 7 -42.5
    vertex -14 3.552713678800501e-15 -42.5
    vertex -14 3.5 -40
  endloop
endfacet
facet normal 0 1 0
  outer loop
    vertex 6.999999999999993 14 -37.5
    vertex 10.49999999999999 14 -40
    vertex 6.999999999999993 14 -42.5
  endloop
endfacet
facet normal 0 1 0
  outer loop
    vertex -14 14 -37.5
    vertex -10.5 14 -40
    vertex -14 14 -42.5
  endloop
endfacet
facet normal 0 1 0
  outer loop
    vertex -7.000000000000002 14 -37.5
    vertex -3.500000000000002 14 -40
    vertex -7.000000000000002 14 -42.5
  endloop
endfacet
facet normal 0 1 0
  outer loop
    vertex -3.552713678800501e-15 14 -37.5
    vertex 3.499999999999993 14 -40
    vertex -3.552713678800501e-15 14 -42.5
  endloop
endfacet
facet normal 0 1 -0
  outer loop
    vertex -7.000000000000002 14 -42.5
    vertex -10.5 14 -40
    vertex -7.000000000000002 14 -37.5
  endloop
endfacet
facet normal 0 1 -0
  outer loop
    vertex -3.552713678800501e-15 14 -42.5
    vertex -3.500000000000002 14 -40
    vertex -3.552713678800501e-15 14 -37.5
  endloop
endfacet
facet normal 0 1 -0
  outer loop
    vertex 13.99999999999999 14 -42.5
    vertex 10.49999999999999 14 -40
    vertex 13.99999999999999 14 -37.5
  endloop
endfacet
facet normal 0 1 -0
  outer loop
    vertex 6.999999999999993 14 -42.5
    vertex 3.499999999999993 14 -40
    vertex 6.999999999999993 14 -37.5
  endloop
endfacet
facet normal 0 1 0
  outer loop
    vertex -7.000000000000002 14 -37.5
    vertex -10.5 14 -40
    vertex -14 14 -37.5
  endloop
endfacet
facet normal 0 1 0
  outer loop
    vertex 13.99999999999999 14 -37.5
    vertex 10.49999999999999 14 -40
    vertex 6.999999999999993 14 -37.5
  endloop
endfacet
facet normal 0 1 0
  outer loop
    vertex -14 14 -42.5
    vertex -10.5 14 -40
    vertex -7.000000000000002 14 -42.5
  endloop
endfacet
facet normal 0 1 0
  outer loop
    vertex 6.999999999999993 14 -42.5
    vertex 10.49999999999999 14 -40
    vertex 13.99999999999999 14 -42.5
  endloop
endfacet
facet normal 0 1 0
  outer loop
    vertex -3.552713678800501e-15 14 -37.5
    vertex -3.500000000000002 14 -40
    vertex -7.000000000000002 14 -37.5
  endloop
endfacet
facet normal 0 1 0
  outer loop
    vertex 6.999999999999993 14 -37.5
    vertex 3.499999999999993 14 -40
    vertex -3.552713678800501e-15 14 -37.5
  endloop
endfacet
facet normal 0 1 0
  outer loop
    vertex -7.000000000000002 14 -42.5
    vertex -3.500000000000002 14 -40
    vertex -3.552713678800501e-15 14 -42.5
  endloop
endfacet
facet normal 0 1 0
  outer loop
    vertex -3.552713678800501e-15 14 -42.5
    vertex 3.499999999999993 14 -40
    vertex 6.999999999999993 14 -42.5
  endloop
endfacet
facet normal 0 -1 0
  outer loop
    vertex 6.999999999999993 -13.99999999999999 -37.5
    vertex 6.999999999999993 -13.99999999999999 -42.5
    vertex 10.49999999999999 -13.99999999999999 -40
  endloop
endfacet
facet normal 0 -1 0
  outer loop
    vertex -14 -13.99999999999999 -37.5
    vertex -14 -13.99999999999999 -42.5
    vertex -10.5 -13.99999999999999 -40
  endloop
endfacet
facet normal 0 -1 0
  outer loop
    vertex -7.000000000000002 -13.99999999999999 -37.5
    vertex -7.000000000000002 -13.99999999999999 -42.5
    vertex -3.500000000000002 -13.99999999999999 -40
  endloop
endfacet
facet normal 0 -1 0
  outer loop
    vertex 6.999999999999993 -13.99999999999999 -42.5
    vertex 6.999999999999993 -13.99999999999999 -37.5
    vertex 3.499999999999993 -13.99999999999999 -40
  endloop
endfacet
facet normal 0 -1 0
  outer loop
    vertex -7.000000000000002 -13.99999999999999 -42.5
    vertex -7.000000000000002 -13.99999999999999 -37.5
    vertex -10.5 -13.99999999999999 -40
  endloop
endfacet
facet normal 0 -1 0
  outer loop
    vertex -3.552713678800501e-15 -13.99999999999999 -42.5
    vertex -3.552713678800501e-15 -13.99999999999999 -37.5
    vertex -3.500000000000002 -13.99999999999999 -40
  endloop
endfacet
facet normal 0 -1 0
  outer loop
    vertex 13.99999999999999 -13.99999999999999 -42.5
    vertex 13.99999999999999 -13.99999999999999 -37.5
    vertex 10.49999999999999 -13.99999999999999 -40
  endloop
endfacet
facet normal 0 -1 0
  outer loop
    vertex -3.552713678800501e-15 -13.99999999999999 -37.5
    vertex -3.552713678800501e-15 -13.99999999999999 -42.5
    vertex 3.499999999999993 -13.99999999999999 -40
  endloop
endfacet
facet normal -0 -1 0
  outer loop
    vertex -7.000000000000002 -13.99999999999999 -37.5
    vertex -14 -13.99999999999999 -37.5
    vertex -10.5 -13.99999999999999 -40
  endloop
endfacet
facet normal -0 -1 0
  outer loop
    vertex 13.99999999999999 -13.99999999999999 -37.5
    vertex 6.999999999999993 -13.99999999999999 -37.5
    vertex 10.49999999999999 -13.99999999999999 -40
  endloop
endfacet
facet normal 0 -1 0
  outer loop
    vertex -14 -13.99999999999999 -42.5
    vertex -7.000000000000002 -13.99999999999999 -42.5
    vertex -10.5 -13.99999999999999 -40
  endloop
endfacet
facet normal 0 -1 0
  outer loop
    vertex 6.999999999999993 -13.99999999999999 -42.5
    vertex 13.99999999999999 -13.99999999999999 -42.5
    vertex 10.49999999999999 -13.99999999999999 -40
  endloop
endfacet
facet normal -0 -1 0
  outer loop
    vertex -3.552713678800501e-15 -13.99999999999999 -37.5
    vertex -7.000000000000002 -13.99999999999999 -37.5
    vertex -3.500000000000002 -13.99999999999999 -40
  endloop
endfacet
facet normal -0 -1 0
  outer loop
    vertex 6.999999999999993 -13.99999999999999 -37.5
    vertex -3.552713678800501e-15 -13.99999999999999 -37.5
    vertex 3.499999999999993 -13.99999999999999 -40
  endloop
endfacet
facet normal 0 -1 0
  outer loop
    vertex -7.000000000000002 -13.99999999999999 -42.5
    vertex -3.552713678800501e-15 -13.99999999999999 -42.5
    vertex -3.500000000000002 -13.99999999999999 -40
  endloop
endfacet
facet normal 0 -1 0
  outer loop
    vertex -3.552713678800501e-15 -13.99999999999999 -42.5
    vertex 6.999999999999993 -13.99999999999999 -42.5
    vertex 3.499999999999993 -13.99999999999999 -40
  endloop
endfacet
facet normal 1 0 0
  outer loop
    vertex 13.99999999999999 7 -42.5
    vertex 13.99999999999999 10.5 -40
    vertex 13.99999999999999 7 -37.5
  endloop
endfacet
facet normal 1 0 0
  outer loop
    vertex 13.99999999999999 -13.99999999999999 -42.5
    vertex 13.99999999999999 -10.49999999999999 -40
    vertex 13.99999999999999 -13.99999999999999 -37.5
  endloop
endfacet
facet normal 1 0 0
  outer loop
    vertex 13.99999999999999 -6.999999999999995 -42.5
    vertex 13.99999999999999 -3.499999999999995 -40
    vertex 13.99999999999999 -6.999999999999995 -37.5
  endloop
endfacet
facet normal 1 0 0
  outer loop
    vertex 13.99999999999999 3.552713678800501e-15 -42.5
    vertex 13.99999999999999 3.5 -40
    vertex 13.99999999999999 3.552713678800501e-15 -37.5
  endloop
endfacet
facet normal 1 0 0
  outer loop
    vertex 13.99999999999999 -6.999999999999995 -37.5
    vertex 13.99999999999999 -10.49999999999999 -40
    vertex 13.99999999999999 -6.999999999999995 -42.5
  endloop
endfacet
facet normal 1 0 0
  outer loop
    vertex 13.99999999999999 3.552713678800501e-15 -37.5
    vertex 13.99999999999999 -3.499999999999995 -40
    vertex 13.99999999999999 3.552713678800501e-15 -42.5
  endloop
endfacet
facet normal 1 0 0
  outer loop
    vertex 13.99999999999999 14 -37.5
    vertex 13.99999999999999 10.5 -40
    vertex 13.99999999999999 14 -42.5
  endloop
endfacet
facet normal 1 0 0
  outer loop
    vertex 13.99999999999999 7 -37.5
    vertex 13.99999999999999 3.5 -40
    vertex 13.99999999999999 7 -42.5
  endloop
endfacet
facet normal 1 -0 0
  outer loop
    vertex 13.99999999999999 -13.99999999999999 -37.5
    vertex 13.99999999999999 -10.49999999999999 -40
    vertex 13.99999999999999 -6.999999999999995 -37.5
  endloop
endfacet
facet normal 1 -0 0
  outer loop
    vertex 13.99999999999999 7 -37.5
    vertex 13.99999999999999 10.5 -40
    vertex 13.99999999999999 14 -37.5
  endloop
endfacet
facet normal 1 0 0
  outer loop
    vertex 13.99999999999999 14 -42.5
    vertex 13.99999999999999 10.5 -40
    vertex 13.99999999999999 7 -42.5
  endloop
endfacet
facet normal 1 0 0
  outer loop
    vertex 13.99999999999999 -6.999999999999995 -42.5
    vertex 13.99999999999999 -10.49999999999999 -40
    vertex 13.99999999999999 -13.99999999999999 -42.5
  endloop
endfacet
facet normal 1 -0 0
  outer loop
    vertex 13.99999999999999 -6.999999999999995 -37.5
    vertex 13.99999999999999 -3.499999999999995 -40
    vertex 13.99999999999999 3.552713678800501e-15 -37.5
  endloop
endfacet
facet normal 1 -0 0
  outer loop
    vertex 13.99999999999999 3.552713678800501e-15 -37.5
    vertex 13.99999999999999 3.5 -40
    vertex 13.99999999999999 7 -37.5
  endloop
endfacet
facet normal 1 0 0
  outer loop
    vertex 13.99999999999999 3.552713678800501e-15 -42.5
    vertex 13.99999999999999 -3.499999999999995 -40
    vertex 13.99999999999999 -6.999999999999995 -42.5
  endloop
endfacet
facet normal 1 0 0
  outer loop
    vertex 13.99999999999999 7 -42.5
    vertex 13.99999999999999 3.5 -40
    vertex 13.99999999999999 3.552713678800501e-15 -42.5
  endloop
endfacet
facet normal 0 0 -1
  outer loop
    vertex 1.937347120383725 -0.1582076355905144 -42.5
    vertex -3.208810453426208 6.874364058501676 -42.5
    vertex 3.603709027102241 7.929627805467309 -42.5
  endloop
endfacet
facet normal 0 -0 -1
  outer loop
    vertex 1.937347120383725 -0.1582076355905144 -42.5
    vertex 3.805390039269493 -8.029525930235945 -42.5
    vertex -3.191787244019372 -6.940682069065743 -42.5
  endloop
endfacet
facet normal 0 -0 -1
  outer loop
    vertex -3.208810453426208 6.874364058501676 -42.5
    vertex 1.937347120383725 -0.1582076355905144 -42.5
    vertex -4.360870776961974 -0.100417543557084 -42.5
  endloop
endfacet
facet normal -0 0 -1
  outer loop
    vertex 1.937347120383725 -0.1582076355905144 -42.5
    vertex -3.191787244019372 -6.940682069065743 -42.5
    vertex -4.360870776961974 -0.100417543557084 -42.5
  endloop
endfacet
facet normal -0 0 -1
  outer loop
    vertex 8.090814989051331 3.49065523255706 -42.5
    vertex 1.937347120383725 -0.1582076355905144 -42.5
    vertex 3.603709027102241 7.929627805467309 -42.5
  endloop
endfacet
facet normal -0 0 -1
  outer loop
    vertex 8.458211867683577 -3.403880950121911 -42.5
    vertex 3.805390039269493 -8.029525930235945 -42.5
    vertex 1.937347120383725 -0.1582076355905144 -42.5
  endloop
endfacet
facet normal 0 0 -1
  outer loop
    vertex -3.191787244019372 -6.940682069065743 -42.5
    vertex -8.625426920878844 -3.482330710781437 -42.5
    vertex -4.360870776961974 -0.100417543557084 -42.5
  endloop
endfacet
facet normal 0 0 -1
  outer loop
    vertex -14 -6.999999999999995 -42.5
    vertex -14 3.552713678800501e-15 -42.5
    vertex -8.625426920878844 -3.482330710781437 -42.5
  endloop
endfacet
facet normal 0 0 -1
  outer loop
    vertex 6.999999999999993 -13.99999999999999 -42.5
    vertex -3.552713678800501e-15 -13.99999999999999 -42.5
    vertex 3.805390039269493 -8.029525930235945 -42.5
  endloop
endfacet
facet normal 0 0 -1
  outer loop
    vertex -7.000000000000002 14 -42.5
    vertex -3.552713678800501e-15 14 -42.5
    vertex -3.208810453426208 6.874364058501676 -42.5
  endloop
endfacet
facet normal 0 -0 -1
  outer loop
    vertex 13.99999999999999 7 -42.5
    vertex 13.99999999999999 3.552713678800501e-15 -42.5
    vertex 8.090814989051331 3.49065523255706 -42.5
  endloop
endfacet
facet normal 0 0 -1
  outer loop
    vertex -8.71567638686917 3.204768639150601 -42.5
    vertex -3.208810453426208 6.874364058501676 -42.5
    vertex -4.360870776961974 -0.100417543557084 -42.5
  endloop
endfacet
facet normal 0 0 -1
  outer loop
    vertex -3.552713678800501e-15 -13.99999999999999 -42.5
    vertex -7.000000000000002 -13.99999999999999 -42.5
    vertex -3.191787244019372 -6.940682069065743 -42.5
  endloop
endfacet
facet normal 0 0 -1
  outer loop
    vertex -14 3.552713678800501e-15 -42.5
    vertex -14 7 -42.5
    vertex -8.71567638686917 3.204768639150601 -42.5
  endloop
endfacet
facet normal 0 0 -1
  outer loop
    vertex -3.552713678800501e-15 14 -42.5
    vertex 6.999999999999993 14 -42.5
    vertex 3.603709027102241 7.929627805467309 -42.5
  endloop
endfacet
facet normal 0 -0 -1
  outer loop
    vertex 13.99999999999999 3.552713678800501e-15 -42.5
    vertex 13.99999999999999 -6.999999999999995 -42.5
    vertex 8.458211867683577 -3.403880950121911 -42.5
  endloop
endfacet
facet normal 0 -0 -1
  outer loop
    vertex 8.090814989051331 3.49065523255706 -42.5
    vertex 8.458211867683577 -3.403880950121911 -42.5
    vertex 1.937347120383725 -0.1582076355905144 -42.5
  endloop
endfacet
facet normal 0 0 -1
  outer loop
    vertex -8.625426920878844 -3.482330710781437 -42.5
    vertex -14 3.552713678800501e-15 -42.5
    vertex -8.71567638686917 3.204768639150601 -42.5
  endloop
endfacet
facet normal 0 0 -1
  outer loop
    vertex -3.208810453426208 6.874364058501676 -42.5
    vertex -3.552713678800501e-15 14 -42.5
    vertex 3.603709027102241 7.929627805467309 -42.5
  endloop
endfacet
facet normal 0 0 -1
  outer loop
    vertex 8.090814989051331 3.49065523255706 -42.5
    vertex 13.99999999999999 3.552713678800501e-15 -42.5
    vertex 8.458211867683577 -3.403880950121911 -42.5
  endloop
endfacet
facet normal -0 0 -1
  outer loop
    vertex 3.805390039269493 -8.029525930235945 -42.5
    vertex -3.552713678800501e-15 -13.99999999999999 -42.5
    vertex -3.191787244019372 -6.940682069065743 -42.5
  endloop
endfacet
facet normal 0 0 -1
  outer loop
    vertex 13.99999999999999 -13.99999999999999 -42.5
    vertex 6.999999999999993 -13.99999999999999 -42.5
    vertex 8.875644347017854 -8.875644347017849 -42.5
  endloop
endfacet
facet normal 0 0 -1
  outer loop
    vertex -14 -13.99999999999999 -42.5
    vertex -14 -6.999999999999995 -42.5
    vertex -8.875644347017861 -8.875644347017854 -42.5
  endloop
endfacet
facet normal 0 0 -1
  outer loop
    vertex -14 7 -42.5
    vertex -14 14 -42.5
    vertex -9.384897368059075 9.015826539530455 -42.5
  endloop
endfacet
facet normal 0 0 -1
  outer loop
    vertex -14 14 -42.5
    vertex -7.000000000000002 14 -42.5
    vertex -9.384897368059075 9.015826539530455 -42.5
  endloop
endfacet
facet normal 0 0 -1
  outer loop
    vertex -7.000000000000002 -13.99999999999999 -42.5
    vertex -14 -13.99999999999999 -42.5
    vertex -8.875644347017861 -8.875644347017854 -42.5
  endloop
endfacet
facet normal 0 0 -1
  outer loop
    vertex 6.999999999999993 14 -42.5
    vertex 13.99999999999999 14 -42.5
    vertex 8.875644347017857 8.875644347017865 -42.5
  endloop
endfacet
facet normal 0 -0 -1
  outer loop
    vertex 13.99999999999999 14 -42.5
    vertex 13.99999999999999 7 -42.5
    vertex 8.875644347017857 8.875644347017865 -42.5
  endloop
endfacet
facet normal 0 -0 -1
  outer loop
    vertex 13.99999999999999 -6.999999999999995 -42.5
    vertex 13.99999999999999 -13.99999999999999 -42.5
    vertex 8.875644347017854 -8.875644347017849 -42.5
  endloop
endfacet
facet normal 0 0 -1
  outer loop
    vertex -8.71567638686917 3.204768639150601 -42.5
    vertex -14 7 -42.5
    vertex -9.384897368059075 9.015826539530455 -42.5
  endloop
endfacet
facet normal 0 0 -1
  outer loop
    vertex 3.603709027102241 7.929627805467309 -42.5
    vertex 6.999999999999993 14 -42.5
    vertex 8.875644347017857 8.875644347017865 -42.5
  endloop
endfacet
facet normal 0 0 -1
  outer loop
    vertex -3.191787244019372 -6.940682069065743 -42.5
    vertex -7.000000000000002 -13.99999999999999 -42.5
    vertex -8.875644347017861 -8.875644347017854 -42.5
  endloop
endfacet
facet normal 0 0 -1
  outer loop
    vertex 8.458211867683577 -3.403880950121911 -42.5
    vertex 13.99999999999999 -6.999999999999995 -42.5
    vertex 8.875644347017854 -8.875644347017849 -42.5
  endloop
endfacet
facet normal 0 0 -1
  outer loop
    vertex -14 -6.999999999999995 -42.5
    vertex -8.625426920878844 -3.482330710781437 -42.5
    vertex -8.875644347017861 -8.875644347017854 -42.5
  endloop
endfacet
facet normal 0 -0 -1
  outer loop
    vertex -7.000000000000002 14 -42.5
    vertex -3.208810453426208 6.874364058501676 -42.5
    vertex -9.384897368059075 9.015826539530455 -42.5
  endloop
endfacet
facet normal 0 0 -1
  outer loop
    vertex 6.999999999999993 -13.99999999999999 -42.5
    vertex 3.805390039269493 -8.029525930235945 -42.5
    vertex 8.875644347017854 -8.875644347017849 -42.5
  endloop
endfacet
facet normal -0 0 -1
  outer loop
    vertex 13.99999999999999 7 -42.5
    vertex 8.090814989051331 3.49065523255706 -42.5
    vertex 8.875644347017857 8.875644347017865 -42.5
  endloop
endfacet
facet normal 0 0 -1
  outer loop
    vertex 8.090814989051331 3.49065523255706 -42.5
    vertex 3.603709027102241 7.929627805467309 -42.5
    vertex 8.875644347017857 8.875644347017865 -42.5
  endloop
endfacet
facet normal 0 -0 -1
  outer loop
    vertex -8.625426920878844 -3.482330710781437 -42.5
    vertex -3.191787244019372 -6.940682069065743 -42.5
    vertex -8.875644347017861 -8.875644347017854 -42.5
  endloop
endfacet
facet normal 0 0 -1
  outer loop
    vertex 3.805390039269493 -8.029525930235945 -42.5
    vertex 8.458211867683577 -3.403880950121911 -42.5
    vertex 8.875644347017854 -8.875644347017849 -42.5
  endloop
endfacet
facet normal -0 0 -1
  outer loop
    vertex -3.208810453426208 6.874364058501676 -42.5
    vertex -8.71567638686917 3.204768639150601 -42.5
    vertex -9.384897368059075 9.015826539530455 -42.5
  endloop
endfacet
facet normal 0 0 -1
  outer loop
    vertex -8.625426920878844 -3.482330710781437 -42.5
    vertex -8.71567638686917 3.204768639150601 -42.5
    vertex -4.360870776961974 -0.100417543557084 -42.5
  endloop
endfacet
endsolid Created by Gmsh
