solid Created by Gmsh
facet normal -1 -0 0
  outer loop
    vertex -10.99999999999999 -1.609028930648368 27.79023903661914
    vertex -10.99999999999999 -11 27.5
    vertex -10.99999999999999 -5.673717566028655 32.90861388532063
  endloop
endfacet
facet normal -1 0 0
  outer loop
    vertex -10.99999999999999 -11 27.5
    vertex -10.99999999999999 -1.609028930648368 27.79023903661914
    vertex -10.99999999999999 -5.740204042678021 22.39634523956785
  endloop
endfacet
facet normal -1 -0 0
  outer loop
    vertex -10.99999999999999 5.188908991316961 23.91482726806895
    vertex -10.99999999999999 -1.77635683940025e-15 18.85085296108588
    vertex -10.99999999999999 -1.609028930648368 27.79023903661914
  endloop
endfacet
facet normal -1 0 -0
  outer loop
    vertex -10.99999999999999 -1.609028930648368 27.79023903661914
    vertex -10.99999999999999 -1.77635683940025e-15 18.85085296108588
    vertex -10.99999999999999 -5.740204042678021 22.39634523956785
  endloop
endfacet
facet normal -1 0 -0
  outer loop
    vertex -10.99999999999999 -0.2796479175661268 36.07883659079454
    vertex -10.99999999999999 5.058575873296412 31.26445304650987
    vertex -10.99999999999999 -1.609028930648368 27.79023903661914
  endloop
endfacet
facet normal -1 0 0
  outer loop
    vertex -10.99999999999999 -3.666666666666667 42.5
    vertex -10.99999999999999 3.666666666666666 42.5
    vertex -10.99999999999999 -0.2796479175661268 36.07883659079454
  endloop
endfacet
facet normal -1 0 0
  outer loop
    vertex -10.99999999999999 3.666666666666666 12.5
    vertex -10.99999999999999 -3.666666666666667 12.5
    vertex -10.99999999999999 -1.77635683940025e-15 18.85085296108588
  endloop
endfacet
facet normal -1 0 -0
  outer loop
    vertex -10.99999999999999 11 27.5
    vertex -10.99999999999999 11 20
    vertex -10.99999999999999 5.188908991316961 23.91482726806895
  endloop
endfacet
facet normal -1 0 -0
  outer loop
    vertex -10.99999999999999 5.058575873296412 31.26445304650987
    vertex -10.99999999999999 5.188908991316961 23.91482726806895
    vertex -10.99999999999999 -1.609028930648368 27.79023903661914
  endloop
endfacet
facet normal -1 0 0
  outer loop
    vertex -10.99999999999999 -11 27.5
    vertex -10.99999999999999 -11 35
    vertex -10.99999999999999 -5.673717566028655 32.90861388532063
  endloop
endfacet
facet normal -1 0 0
  outer loop
    vertex -10.99999999999999 -0.2796479175661268 36.07883659079454
    vertex -10.99999999999999 -1.609028930648368 27.79023903661914
    vertex -10.99999999999999 -5.673717566028655 32.90861388532063
  endloop
endfacet
facet normal -1 0 0
  outer loop
    vertex -10.99999999999999 -11 20
    vertex -10.99999999999999 -11 27.5
    vertex -10.99999999999999 -5.740204042678021 22.39634523956785
  endloop
endfacet
facet normal -1 0 -0
  outer loop
    vertex -10.99999999999999 11 35
    vertex -10.99999999999999 11 27.5
    vertex -10.99999999999999 5.058575873296412 31.26445304650987
  endloop
endfacet
facet normal -1 0 -0
  outer loop
    vertex -10.99999999999999 11 20
    vertex -10.99999999999999 11 12.5
    vertex -10.99999999999999 5.660896799147157 17.88527127787093
  endloop
endfacet
facet normal -1 0 -0
  outer loop
    vertex -10.99999999999999 11 42.5
    vertex -10.99999999999999 11 35
    vertex -10.99999999999999 5.660896799147157 37.11472872212907
  endloop
endfacet
facet normal -1 0 0
  outer loop
    vertex -10.99999999999999 11 12.5
    vertex -10.99999999999999 3.666666666666666 12.5
    vertex -10.99999999999999 5.660896799147157 17.88527127787093
  endloop
endfacet
facet normal -1 0 0
  outer loop
    vertex -10.99999999999999 3.666666666666666 42.5
    vertex -10.99999999999999 11 42.5
    vertex -10.99999999999999 5.660896799147157 37.11472872212907
  endloop
endfacet
facet normal -1 0 0
  outer loop
    vertex -10.99999999999999 5.058575873296412 31.26445304650987
    vertex -10.99999999999999 11 27.5
    vertex -10.99999999999999 5.188908991316961 23.91482726806895
  endloop
endfacet
facet normal -1 0 0
  outer loop
    vertex -10.99999999999999 -11 12.5
    vertex -10.99999999999999 -11 20
    vertex -10.99999999999999 -6.281374141868938 17.24943964013075
  endloop
endfacet
facet normal -1 0 0
  outer loop
    vertex -10.99999999999999 -3.666666666666667 12.5
    vertex -10.99999999999999 -11 12.5
    vertex -10.99999999999999 -6.281374141868938 17.24943964013075
  endloop
endfacet
facet normal -1 0 -0
  outer loop
    vertex -10.99999999999999 -3.666666666666667 42.5
    vertex -10.99999999999999 -0.2796479175661268 36.07883659079454
    vertex -10.99999999999999 -6.32400643005229 37.79749009522304
  endloop
endfacet
facet normal -1 0 0
  outer loop
    vertex -10.99999999999999 5.188908991316961 23.91482726806895
    vertex -10.99999999999999 11 20
    vertex -10.99999999999999 5.660896799147157 17.88527127787093
  endloop
endfacet
facet normal -1 0 0
  outer loop
    vertex -10.99999999999999 -11 35
    vertex -10.99999999999999 -11 42.5
    vertex -10.99999999999999 -6.32400643005229 37.79749009522304
  endloop
endfacet
facet normal -1 0 0
  outer loop
    vertex -10.99999999999999 -1.77635683940025e-15 18.85085296108588
    vertex -10.99999999999999 -3.666666666666667 12.5
    vertex -10.99999999999999 -6.281374141868938 17.24943964013075
  endloop
endfacet
facet normal -1 0 0
  outer loop
    vertex -10.99999999999999 -11 42.5
    vertex -10.99999999999999 -3.666666666666667 42.5
    vertex -10.99999999999999 -6.32400643005229 37.79749009522304
  endloop
endfacet
facet normal -1 0 0
  outer loop
    vertex -10.99999999999999 3.666666666666666 12.5
    vertex -10.99999999999999 -1.77635683940025e-15 18.85085296108588
    vertex -10.99999999999999 5.660896799147157 17.88527127787093
  endloop
endfacet
facet normal -1 0 0
  outer loop
    vertex -10.99999999999999 -0.2796479175661268 36.07883659079454
    vertex -10.99999999999999 3.666666666666666 42.5
    vertex -10.99999999999999 5.660896799147157 37.11472872212907
  endloop
endfacet
facet normal -1 0 0
  outer loop
    vertex -10.99999999999999 -1.77635683940025e-15 18.85085296108588
    vertex -10.99999999999999 5.188908991316961 23.91482726806895
    vertex -10.99999999999999 5.660896799147157 17.88527127787093
  endloop
endfacet
facet normal -1 0 0
  outer loop
    vertex -10.99999999999999 5.058575873296412 31.26445304650987
    vertex -10.99999999999999 -0.2796479175661268 36.07883659079454
    vertex -10.99999999999999 5.660896799147157 37.11472872212907
  endloop
endfacet
facet normal -1 -0 0
  outer loop
    vertex -10.99999999999999 11 35
    vertex -10.99999999999999 5.058575873296412 31.26445304650987
    vertex -10.99999999999999 5.660896799147157 37.11472872212907
  endloop
endfacet
facet normal -1 -0 0
  outer loop
    vertex -10.99999999999999 -0.2796479175661268 36.07883659079454
    vertex -10.99999999999999 -5.673717566028655 32.90861388532063
    vertex -10.99999999999999 -6.32400643005229 37.79749009522304
  endloop
endfacet
facet normal -1 0 -0
  outer loop
    vertex -10.99999999999999 -5.740204042678021 22.39634523956785
    vertex -10.99999999999999 -1.77635683940025e-15 18.85085296108588
    vertex -10.99999999999999 -6.281374141868938 17.24943964013075
  endloop
endfacet
facet normal -1 0 0
  outer loop
    vertex -10.99999999999999 -11 20
    vertex -10.99999999999999 -5.740204042678021 22.39634523956785
    vertex -10.99999999999999 -6.281374141868938 17.24943964013075
  endloop
endfacet
facet normal -1 0 0
  outer loop
    vertex -10.99999999999999 -5.673717566028655 32.90861388532063
    vertex -10.99999999999999 -11 35
    vertex -10.99999999999999 -6.32400643005229 37.79749009522304
  endloop
endfacet
facet normal 0 -1 0
  outer loop
    vertex 1.609028930648371 -11 27.79023903661914
    vertex 11 -11 27.5
    vertex 5.673717566028657 -11 32.90861388532065
  endloop
endfacet
facet normal -0 -1 0
  outer loop
    vertex 11 -11 27.5
    vertex 1.609028930648371 -11 27.79023903661914
    vertex 5.740204042678023 -11 22.39634523956785
  endloop
endfacet
facet normal 0 -1 0
  outer loop
    vertex -5.188908991316957 -11 23.91482726806895
    vertex 5.329070518200751e-15 -11 18.85085296108588
    vertex 1.609028930648371 -11 27.79023903661914
  endloop
endfacet
facet normal 0 -1 -0
  outer loop
    vertex 1.609028930648371 -11 27.79023903661914
    vertex 5.329070518200751e-15 -11 18.85085296108588
    vertex 5.740204042678023 -11 22.39634523956785
  endloop
endfacet
facet normal 0 -1 -0
  outer loop
    vertex 0.2796479175661286 -11 36.07883659079454
    vertex -5.058575873296403 -11 31.26445304650987
    vertex 1.609028930648371 -11 27.79023903661914
  endloop
endfacet
facet normal 0 -1 0
  outer loop
    vertex -3.666666666666662 -11 12.5
    vertex 3.66666666666667 -11 12.5
    vertex 5.329070518200751e-15 -11 18.85085296108588
  endloop
endfacet
facet normal -0 -1 0
  outer loop
    vertex 3.66666666666667 -11 42.5
    vertex -3.666666666666662 -11 42.5
    vertex 0.2796479175661286 -11 36.07883659079454
  endloop
endfacet
facet normal 0 -1 0
  outer loop
    vertex -10.99999999999999 -11 27.5
    vertex -10.99999999999999 -11 20
    vertex -5.188908991316957 -11 23.91482726806895
  endloop
endfacet
facet normal 0 -1 -0
  outer loop
    vertex -5.058575873296403 -11 31.26445304650987
    vertex -5.188908991316957 -11 23.91482726806895
    vertex 1.609028930648371 -11 27.79023903661914
  endloop
endfacet
facet normal 0 -1 0
  outer loop
    vertex 11 -11 27.5
    vertex 11 -11 35
    vertex 5.673717566028657 -11 32.90861388532065
  endloop
endfacet
facet normal 0 -1 0
  outer loop
    vertex 0.2796479175661286 -11 36.07883659079454
    vertex 1.609028930648371 -11 27.79023903661914
    vertex 5.673717566028657 -11 32.90861388532065
  endloop
endfacet
facet normal 0 -1 0
  outer loop
    vertex 11 -11 20
    vertex 11 -11 27.5
    vertex 5.740204042678023 -11 22.39634523956785
  endloop
endfacet
facet normal 0 -1 0
  outer loop
    vertex -10.99999999999999 -11 35
    vertex -10.99999999999999 -11 27.5
    vertex -5.058575873296403 -11 31.26445304650987
  endloop
endfacet
facet normal 0 -1 0
  outer loop
    vertex -10.99999999999999 -11 42.5
    vertex -10.99999999999999 -11 35
    vertex -5.660896799147149 -11 37.11472872212907
  endloop
endfacet
facet normal 0 -1 0
  outer loop
    vertex -10.99999999999999 -11 20
    vertex -10.99999999999999 -11 12.5
    vertex -5.660896799147151 -11 17.88527127787093
  endloop
endfacet
facet normal -0 -1 0
  outer loop
    vertex -3.666666666666662 -11 42.5
    vertex -10.99999999999999 -11 42.5
    vertex -5.660896799147149 -11 37.11472872212907
  endloop
endfacet
facet normal 0 -1 0
  outer loop
    vertex -10.99999999999999 -11 12.5
    vertex -3.666666666666662 -11 12.5
    vertex -5.660896799147151 -11 17.88527127787093
  endloop
endfacet
facet normal 0 -1 0
  outer loop
    vertex -5.058575873296403 -11 31.26445304650987
    vertex -10.99999999999999 -11 27.5
    vertex -5.188908991316957 -11 23.91482726806895
  endloop
endfacet
facet normal 0 -1 0
  outer loop
    vertex 11 -11 12.5
    vertex 11 -11 20
    vertex 6.281374141868941 -11 17.24943964013075
  endloop
endfacet
facet normal 0 -1 0
  outer loop
    vertex 3.66666666666667 -11 12.5
    vertex 11 -11 12.5
    vertex 6.281374141868941 -11 17.24943964013075
  endloop
endfacet
facet normal 0 -1 -0
  outer loop
    vertex 3.66666666666667 -11 42.5
    vertex 0.2796479175661286 -11 36.07883659079454
    vertex 6.32400643005229 -11 37.79749009522304
  endloop
endfacet
facet normal 0 -1 0
  outer loop
    vertex -5.188908991316957 -11 23.91482726806895
    vertex -10.99999999999999 -11 20
    vertex -5.660896799147151 -11 17.88527127787093
  endloop
endfacet
facet normal 0 -1 0
  outer loop
    vertex 11 -11 35
    vertex 11 -11 42.5
    vertex 6.32400643005229 -11 37.79749009522304
  endloop
endfacet
facet normal 0 -1 0
  outer loop
    vertex 5.329070518200751e-15 -11 18.85085296108588
    vertex 3.66666666666667 -11 12.5
    vertex 6.281374141868941 -11 17.24943964013075
  endloop
endfacet
facet normal -0 -1 0
  outer loop
    vertex 11 -11 42.5
    vertex 3.66666666666667 -11 42.5
    vertex 6.32400643005229 -11 37.79749009522304
  endloop
endfacet
facet normal 0 -1 0
  outer loop
    vertex -3.666666666666662 -11 12.5
    vertex 5.329070518200751e-15 -11 18.85085296108588
    vertex -5.660896799147151 -11 17.88527127787093
  endloop
endfacet
facet normal 0 -1 0
  outer loop
    vertex 0.2796479175661286 -11 36.07883659079454
    vertex -3.666666666666662 -11 42.5
    vertex -5.660896799147149 -11 37.11472872212907
  endloop
endfacet
facet normal -0 -1 0
  outer loop
    vertex 5.329070518200751e-15 -11 18.85085296108588
    vertex -5.188908991316957 -11 23.91482726806895
    vertex -5.660896799147151 -11 17.88527127787093
  endloop
endfacet
facet normal 0 -1 0
  outer loop
    vertex -5.058575873296403 -11 31.26445304650987
    vertex 0.2796479175661286 -11 36.07883659079454
    vertex -5.660896799147149 -11 37.11472872212907
  endloop
endfacet
facet normal 0 -1 0
  outer loop
    vertex -10.99999999999999 -11 35
    vertex -5.058575873296403 -11 31.26445304650987
    vertex -5.660896799147149 -11 37.11472872212907
  endloop
endfacet
facet normal 0 -1 0
  outer loop
    vertex 0.2796479175661286 -11 36.07883659079454
    vertex 5.673717566028657 -11 32.90861388532065
    vertex 6.32400643005229 -11 37.79749009522304
  endloop
endfacet
facet normal 0 -1 -0
  outer loop
    vertex 5.740204042678023 -11 22.39634523956785
    vertex 5.329070518200751e-15 -11 18.85085296108588
    vertex 6.281374141868941 -11 17.24943964013075
  endloop
endfacet
facet normal -0 -1 0
  outer loop
    vertex 11 -11 20
    vertex 5.740204042678023 -11 22.39634523956785
    vertex 6.281374141868941 -11 17.24943964013075
  endloop
endfacet
facet normal 0 -1 0
  outer loop
    vertex 5.673717566028657 -11 32.90861388532065
    vertex 11 -11 35
    vertex 6.32400643005229 -11 37.79749009522304
  endloop
endfacet
facet normal 0 0 1
  outer loop
    vertex 4.511113743733924 0 42.5
    vertex 0.0008885470428854347 5.556321797754308 42.5
    vertex -4.505782461476619 0 42.5
  endloop
endfacet
facet normal -0 0 1
  outer loop
    vertex -4.505782461476619 0 42.5
    vertex 0.0008885470428854347 -5.556321797754308 42.5
    vertex 4.511113743733924 0 42.5
  endloop
endfacet
facet normal 0 0 1
  outer loop
    vertex -10.99999999999999 -3.666666666666667 42.5
    vertex -4.505782461476619 0 42.5
    vertex -10.99999999999999 3.666666666666666 42.5
  endloop
endfacet
facet normal 0 0 1
  outer loop
    vertex 11 3.666666666666666 42.5
    vertex 4.511113743733924 0 42.5
    vertex 11 -3.666666666666667 42.5
  endloop
endfacet
facet normal -0 0 1
  outer loop
    vertex -3.666666666666662 11 42.5
    vertex 0.0008885470428854347 5.556321797754308 42.5
    vertex 3.66666666666667 11 42.5
  endloop
endfacet
facet normal 0 0 1
  outer loop
    vertex 3.66666666666667 -11 42.5
    vertex 0.0008885470428854347 -5.556321797754308 42.5
    vertex -3.666666666666662 -11 42.5
  endloop
endfacet
facet normal 0 0 1
  outer loop
    vertex -10.99999999999999 -11 42.5
    vertex -5.668965393262912 -5.668965393262919 42.5
    vertex -10.99999999999999 -3.666666666666667 42.5
  endloop
endfacet
facet normal 0 0 1
  outer loop
    vertex -3.666666666666662 -11 42.5
    vertex -5.668965393262912 -5.668965393262919 42.5
    vertex -10.99999999999999 -11 42.5
  endloop
endfacet
facet normal 0 0 1
  outer loop
    vertex 11 -3.666666666666667 42.5
    vertex 5.668965393262919 -5.668965393262924 42.5
    vertex 11 -11 42.5
  endloop
endfacet
facet normal 0 0 1
  outer loop
    vertex 11 11 42.5
    vertex 5.668965393262923 5.668965393262919 42.5
    vertex 11 3.666666666666666 42.5
  endloop
endfacet
facet normal -0 0 1
  outer loop
    vertex -10.99999999999999 11 42.5
    vertex -5.668965393262914 5.668965393262923 42.5
    vertex -3.666666666666662 11 42.5
  endloop
endfacet
facet normal -0 0 1
  outer loop
    vertex 3.66666666666667 11 42.5
    vertex 5.668965393262923 5.668965393262919 42.5
    vertex 11 11 42.5
  endloop
endfacet
facet normal 0 0 1
  outer loop
    vertex -10.99999999999999 3.666666666666666 42.5
    vertex -5.668965393262914 5.668965393262923 42.5
    vertex -10.99999999999999 11 42.5
  endloop
endfacet
facet normal 0 0 1
  outer loop
    vertex 11 -11 42.5
    vertex 5.668965393262919 -5.668965393262924 42.5
    vertex 3.66666666666667 -11 42.5
  endloop
endfacet
facet normal 0 0 1
  outer loop
    vertex -4.505782461476619 0 42.5
    vertex -5.668965393262914 5.668965393262923 42.5
    vertex -10.99999999999999 3.666666666666666 42.5
  endloop
endfacet
facet normal 0 0 1
  outer loop
    vertex 11 3.666666666666666 42.5
    vertex 5.668965393262923 5.668965393262919 42.5
    vertex 4.511113743733924 0 42.5
  endloop
endfacet
facet normal 0 0 1
  outer loop
    vertex 4.511113743733924 0 42.5
    vertex 5.668965393262919 -5.668965393262924 42.5
    vertex 11 -3.666666666666667 42.5
  endloop
endfacet
facet normal -0 0 1
  outer loop
    vertex -10.99999999999999 -3.666666666666667 42.5
    vertex -5.668965393262912 -5.668965393262919 42.5
    vertex -4.505782461476619 0 42.5
  endloop
endfacet
facet normal 0 -0 1
  outer loop
    vertex 4.511113743733924 0 42.5
    vertex 5.668965393262923 5.668965393262919 42.5
    vertex 0.0008885470428854347 5.556321797754308 42.5
  endloop
endfacet
facet normal 0 0 1
  outer loop
    vertex 0.0008885470428854347 5.556321797754308 42.5
    vertex -5.668965393262914 5.668965393262923 42.5
    vertex -4.505782461476619 0 42.5
  endloop
endfacet
facet normal 0 0 1
  outer loop
    vertex -4.505782461476619 0 42.5
    vertex -5.668965393262912 -5.668965393262919 42.5
    vertex 0.0008885470428854347 -5.556321797754308 42.5
  endloop
endfacet
facet normal -0 0 1
  outer loop
    vertex 0.0008885470428854347 -5.556321797754308 42.5
    vertex 5.668965393262919 -5.668965393262924 42.5
    vertex 4.511113743733924 0 42.5
  endloop
endfacet
facet normal 0 0 1
  outer loop
    vertex 0.0008885470428854347 -5.556321797754308 42.5
    vertex -5.668965393262912 -5.668965393262919 42.5
    vertex -3.666666666666662 -11 42.5
  endloop
endfacet
facet normal 0 -0 1
  outer loop
    vertex 3.66666666666667 -11 42.5
    vertex 5.668965393262919 -5.668965393262924 42.5
    vertex 0.0008885470428854347 -5.556321797754308 42.5
  endloop
endfacet
facet normal 0 0 1
  outer loop
    vertex -3.666666666666662 11 42.5
    vertex -5.668965393262914 5.668965393262923 42.5
    vertex 0.0008885470428854347 5.556321797754308 42.5
  endloop
endfacet
facet normal 0 0 1
  outer loop
    vertex 0.0008885470428854347 5.556321797754308 42.5
    vertex 5.668965393262923 5.668965393262919 42.5
    vertex 3.66666666666667 11 42.5
  endloop
endfacet
facet normal -0 1 0
  outer loop
    vertex 1.609028930648371 11 27.79023903661914
    vertex 5.673717566028657 11 32.90861388532065
    vertex 11 11 27.5
  endloop
endfacet
facet normal 0 1 0
  outer loop
    vertex 11 11 27.5
    vertex 5.740204042678023 11 22.39634523956785
    vertex 1.609028930648371 11 27.79023903661914
  endloop
endfacet
facet normal -0 1 0
  outer loop
    vertex -5.188908991316957 11 23.91482726806895
    vertex 1.609028930648371 11 27.79023903661914
    vertex 5.329070518200751e-15 11 18.85085296108588
  endloop
endfacet
facet normal 0 1 0
  outer loop
    vertex 1.609028930648371 11 27.79023903661914
    vertex 5.740204042678023 11 22.39634523956785
    vertex 5.329070518200751e-15 11 18.85085296108588
  endloop
endfacet
facet normal 0 1 0
  outer loop
    vertex 0.2796479175661286 11 36.07883659079454
    vertex 1.609028930648371 11 27.79023903661914
    vertex -5.058575873296403 11 31.26445304650987
  endloop
endfacet
facet normal 0 1 0
  outer loop
    vertex -3.666666666666662 11 12.5
    vertex 5.329070518200751e-15 11 18.85085296108588
    vertex 3.66666666666667 11 12.5
  endloop
endfacet
facet normal 0 1 0
  outer loop
    vertex 3.66666666666667 11 42.5
    vertex 0.2796479175661286 11 36.07883659079454
    vertex -3.666666666666662 11 42.5
  endloop
endfacet
facet normal 0 1 0
  outer loop
    vertex -10.99999999999999 11 27.5
    vertex -5.188908991316957 11 23.91482726806895
    vertex -10.99999999999999 11 20
  endloop
endfacet
facet normal 0 1 0
  outer loop
    vertex -5.058575873296403 11 31.26445304650987
    vertex 1.609028930648371 11 27.79023903661914
    vertex -5.188908991316957 11 23.91482726806895
  endloop
endfacet
facet normal 0 1 -0
  outer loop
    vertex 11 11 27.5
    vertex 5.673717566028657 11 32.90861388532065
    vertex 11 11 35
  endloop
endfacet
facet normal 0 1 0
  outer loop
    vertex 0.2796479175661286 11 36.07883659079454
    vertex 5.673717566028657 11 32.90861388532065
    vertex 1.609028930648371 11 27.79023903661914
  endloop
endfacet
facet normal 0 1 -0
  outer loop
    vertex 11 11 20
    vertex 5.740204042678023 11 22.39634523956785
    vertex 11 11 27.5
  endloop
endfacet
facet normal 0 1 0
  outer loop
    vertex -10.99999999999999 11 35
    vertex -5.058575873296403 11 31.26445304650987
    vertex -10.99999999999999 11 27.5
  endloop
endfacet
facet normal 0 1 0
  outer loop
    vertex -10.99999999999999 11 42.5
    vertex -5.660896799147149 11 37.11472872212907
    vertex -10.99999999999999 11 35
  endloop
endfacet
facet normal 0 1 0
  outer loop
    vertex -10.99999999999999 11 20
    vertex -5.660896799147151 11 17.88527127787093
    vertex -10.99999999999999 11 12.5
  endloop
endfacet
facet normal 0 1 0
  outer loop
    vertex -3.666666666666662 11 42.5
    vertex -5.660896799147149 11 37.11472872212907
    vertex -10.99999999999999 11 42.5
  endloop
endfacet
facet normal 0 1 0
  outer loop
    vertex -10.99999999999999 11 12.5
    vertex -5.660896799147151 11 17.88527127787093
    vertex -3.666666666666662 11 12.5
  endloop
endfacet
facet normal 0 1 0
  outer loop
    vertex -5.058575873296403 11 31.26445304650987
    vertex -5.188908991316957 11 23.91482726806895
    vertex -10.99999999999999 11 27.5
  endloop
endfacet
facet normal 0 1 -0
  outer loop
    vertex 11 11 12.5
    vertex 6.281374141868941 11 17.24943964013075
    vertex 11 11 20
  endloop
endfacet
facet normal 0 1 0
  outer loop
    vertex 3.66666666666667 11 12.5
    vertex 6.281374141868941 11 17.24943964013075
    vertex 11 11 12.5
  endloop
endfacet
facet normal 0 1 0
  outer loop
    vertex 3.66666666666667 11 42.5
    vertex 6.32400643005229 11 37.79749009522304
    vertex 0.2796479175661286 11 36.07883659079454
  endloop
endfacet
facet normal 0 1 0
  outer loop
    vertex -5.188908991316957 11 23.91482726806895
    vertex -5.660896799147151 11 17.88527127787093
    vertex -10.99999999999999 11 20
  endloop
endfacet
facet normal 0 1 -0
  outer loop
    vertex 11 11 35
    vertex 6.32400643005229 11 37.79749009522304
    vertex 11 11 42.5
  endloop
endfacet
facet normal 0 1 0
  outer loop
    vertex 5.329070518200751e-15 11 18.85085296108588
    vertex 6.281374141868941 11 17.24943964013075
    vertex 3.66666666666667 11 12.5
  endloop
endfacet
facet normal 0 1 0
  outer loop
    vertex 11 11 42.5
    vertex 6.32400643005229 11 37.79749009522304
    vertex 3.66666666666667 11 42.5
  endloop
endfacet
facet normal 0 1 -0
  outer loop
    vertex -3.666666666666662 11 12.5
    vertex -5.660896799147151 11 17.88527127787093
    vertex 5.329070518200751e-15 11 18.85085296108588
  endloop
endfacet
facet normal 0 1 0
  outer loop
    vertex 0.2796479175661286 11 36.07883659079454
    vertex -5.660896799147149 11 37.11472872212907
    vertex -3.666666666666662 11 42.5
  endloop
endfacet
facet normal 0 1 0
  outer loop
    vertex 5.329070518200751e-15 11 18.85085296108588
    vertex -5.660896799147151 11 17.88527127787093
    vertex -5.188908991316957 11 23.91482726806895
  endloop
endfacet
facet normal 0 1 -0
  outer loop
    vertex -5.058575873296403 11 31.26445304650987
    vertex -5.660896799147149 11 37.11472872212907
    vertex 0.2796479175661286 11 36.07883659079454
  endloop
endfacet
facet normal -0 1 0
  outer loop
    vertex -10.99999999999999 11 35
    vertex -5.660896799147149 11 37.11472872212907
    vertex -5.058575873296403 11 31.26445304650987
  endloop
endfacet
facet normal -0 1 0
  outer loop
    vertex 0.2796479175661286 11 36.07883659079454
    vertex 6.32400643005229 11 37.79749009522304
    vertex 5.673717566028657 11 32.90861388532065
  endloop
endfacet
facet normal 0 1 0
  outer loop
    vertex 5.740204042678023 11 22.39634523956785
    vertex 6.281374141868941 11 17.24943964013075
    vertex 5.329070518200751e-15 11 18.85085296108588
  endloop
endfacet
facet normal 0 1 0
  outer loop
    vertex 11 11 20
    vertex 6.281374141868941 11 17.24943964013075
    vertex 5.740204042678023 11 22.39634523956785
  endloop
endfacet
facet normal 0 1 0
  outer loop
    vertex 5.673717566028657 11 32.90861388532065
    vertex 6.32400643005229 11 37.79749009522304
    vertex 11 11 35
  endloop
endfacet
facet normal 0 0 -1
  outer loop
    vertex -10.99999999999999 -11 12.5
    vertex -10.99999999999999 -3.666666666666667 12.5
    vertex -7.999999999999993 -8 12.5
  endloop
endfacet
facet normal 0 0 -1
  outer loop
    vertex -3.666666666666662 -11 12.5
    vertex -10.99999999999999 -11 12.5
    vertex -7.999999999999993 -8 12.5
  endloop
endfacet
facet normal 0 0 -1
  outer loop
    vertex -10.99999999999999 11 12.5
    vertex -7.999999999999993 8 12.5
    vertex -10.99999999999999 3.666666666666666 12.5
  endloop
endfacet
facet normal 0 0 -1
  outer loop
    vertex -7.999999999999993 8 12.5
    vertex -10.99999999999999 11 12.5
    vertex -3.666666666666662 11 12.5
  endloop
endfacet
facet normal 0 -0 -1
  outer loop
    vertex 8 -8 12.5
    vertex 11 -11 12.5
    vertex 3.66666666666667 -11 12.5
  endloop
endfacet
facet normal 0 0 -1
  outer loop
    vertex 11 -11 12.5
    vertex 8 -8 12.5
    vertex 11 -3.666666666666667 12.5
  endloop
endfacet
facet normal -0 0 -1
  outer loop
    vertex 11 11 12.5
    vertex 8 8 12.5
    vertex 3.66666666666667 11 12.5
  endloop
endfacet
facet normal 0 0 -1
  outer loop
    vertex 8 8 12.5
    vertex 11 11 12.5
    vertex 11 3.666666666666666 12.5
  endloop
endfacet
facet normal 0 0 -1
  outer loop
    vertex -10.99999999999999 -3.666666666666667 12.5
    vertex -7.999999999999993 0 12.5
    vertex -7.999999999999993 -8 12.5
  endloop
endfacet
facet normal -0 0 -1
  outer loop
    vertex 3.552713678800501e-15 -8 12.5
    vertex -3.666666666666662 -11 12.5
    vertex -7.999999999999993 -8 12.5
  endloop
endfacet
facet normal 0 -0 -1
  outer loop
    vertex -7.999999999999993 8 12.5
    vertex -7.999999999999993 0 12.5
    vertex -10.99999999999999 3.666666666666666 12.5
  endloop
endfacet
facet normal 0 0 -1
  outer loop
    vertex 3.552713678800501e-15 8 12.5
    vertex -7.999999999999993 8 12.5
    vertex -3.666666666666662 11 12.5
  endloop
endfacet
facet normal 0 0 -1
  outer loop
    vertex 8 8 12.5
    vertex 3.552713678800501e-15 8 12.5
    vertex 3.66666666666667 11 12.5
  endloop
endfacet
facet normal 0 0 -1
  outer loop
    vertex 8 0 12.5
    vertex 8 8 12.5
    vertex 11 3.666666666666666 12.5
  endloop
endfacet
facet normal 0 0 -1
  outer loop
    vertex 3.552713678800501e-15 -8 12.5
    vertex 8 -8 12.5
    vertex 3.66666666666667 -11 12.5
  endloop
endfacet
facet normal 0 0 -1
  outer loop
    vertex 8 -8 12.5
    vertex 8 0 12.5
    vertex 11 -3.666666666666667 12.5
  endloop
endfacet
facet normal 0 0 -1
  outer loop
    vertex -10.99999999999999 3.666666666666666 12.5
    vertex -7.999999999999993 0 12.5
    vertex -10.99999999999999 -3.666666666666667 12.5
  endloop
endfacet
facet normal 0 0 -1
  outer loop
    vertex -3.666666666666662 -11 12.5
    vertex 3.552713678800501e-15 -8 12.5
    vertex 3.66666666666667 -11 12.5
  endloop
endfacet
facet normal -0 0 -1
  outer loop
    vertex 3.66666666666667 11 12.5
    vertex 3.552713678800501e-15 8 12.5
    vertex -3.666666666666662 11 12.5
  endloop
endfacet
facet normal 0 0 -1
  outer loop
    vertex 11 -3.666666666666667 12.5
    vertex 8 0 12.5
    vertex 11 3.666666666666666 12.5
  endloop
endfacet
facet normal 1 0 0
  outer loop
    vertex 11 -1.609028930648368 27.79023903661914
    vertex 11 -5.673717566028655 32.90861388532063
    vertex 11 -11 27.5
  endloop
endfacet
facet normal 1 -0 0
  outer loop
    vertex 11 -11 27.5
    vertex 11 -5.740204042678021 22.39634523956785
    vertex 11 -1.609028930648368 27.79023903661914
  endloop
endfacet
facet normal 1 0 0
  outer loop
    vertex 11 5.188908991316961 23.91482726806895
    vertex 11 -1.609028930648368 27.79023903661914
    vertex 11 -1.77635683940025e-15 18.85085296108588
  endloop
endfacet
facet normal 1 0 0
  outer loop
    vertex 11 -1.609028930648368 27.79023903661914
    vertex 11 -5.740204042678021 22.39634523956785
    vertex 11 -1.77635683940025e-15 18.85085296108588
  endloop
endfacet
facet normal 1 0 0
  outer loop
    vertex 11 -0.2796479175661268 36.07883659079454
    vertex 11 -1.609028930648368 27.79023903661914
    vertex 11 5.058575873296412 31.26445304650987
  endloop
endfacet
facet normal 1 -0 0
  outer loop
    vertex 11 -3.666666666666667 42.5
    vertex 11 -0.2796479175661268 36.07883659079454
    vertex 11 3.666666666666666 42.5
  endloop
endfacet
facet normal 1 0 0
  outer loop
    vertex 11 3.666666666666666 12.5
    vertex 11 -1.77635683940025e-15 18.85085296108588
    vertex 11 -3.666666666666667 12.5
  endloop
endfacet
facet normal 1 0 0
  outer loop
    vertex 11 11 27.5
    vertex 11 5.188908991316961 23.91482726806895
    vertex 11 11 20
  endloop
endfacet
facet normal 1 0 0
  outer loop
    vertex 11 5.058575873296412 31.26445304650987
    vertex 11 -1.609028930648368 27.79023903661914
    vertex 11 5.188908991316961 23.91482726806895
  endloop
endfacet
facet normal 1 0 0
  outer loop
    vertex 11 -11 27.5
    vertex 11 -5.673717566028655 32.90861388532063
    vertex 11 -11 35
  endloop
endfacet
facet normal 1 0 0
  outer loop
    vertex 11 -0.2796479175661268 36.07883659079454
    vertex 11 -5.673717566028655 32.90861388532063
    vertex 11 -1.609028930648368 27.79023903661914
  endloop
endfacet
facet normal 1 0 0
  outer loop
    vertex 11 -11 20
    vertex 11 -5.740204042678021 22.39634523956785
    vertex 11 -11 27.5
  endloop
endfacet
facet normal 1 0 0
  outer loop
    vertex 11 11 35
    vertex 11 5.058575873296412 31.26445304650987
    vertex 11 11 27.5
  endloop
endfacet
facet normal 1 0 0
  outer loop
    vertex 11 11 42.5
    vertex 11 5.660896799147157 37.11472872212907
    vertex 11 11 35
  endloop
endfacet
facet normal 1 0 0
  outer loop
    vertex 11 11 20
    vertex 11 5.660896799147157 17.88527127787093
    vertex 11 11 12.5
  endloop
endfacet
facet normal 1 0 0
  outer loop
    vertex 11 11 12.5
    vertex 11 5.660896799147157 17.88527127787093
    vertex 11 3.666666666666666 12.5
  endloop
endfacet
facet normal 1 -0 0
  outer loop
    vertex 11 3.666666666666666 42.5
    vertex 11 5.660896799147157 37.11472872212907
    vertex 11 11 42.5
  endloop
endfacet
facet normal 1 0 0
  outer loop
    vertex 11 5.058575873296412 31.26445304650987
    vertex 11 5.188908991316961 23.91482726806895
    vertex 11 11 27.5
  endloop
endfacet
facet normal 1 0 0
  outer loop
    vertex 11 -11 12.5
    vertex 11 -6.281374141868938 17.24943964013075
    vertex 11 -11 20
  endloop
endfacet
facet normal 1 0 0
  outer loop
    vertex 11 -3.666666666666667 12.5
    vertex 11 -6.281374141868938 17.24943964013075
    vertex 11 -11 12.5
  endloop
endfacet
facet normal 1 0 0
  outer loop
    vertex 11 -3.666666666666667 42.5
    vertex 11 -6.32400643005229 37.79749009522304
    vertex 11 -0.2796479175661268 36.07883659079454
  endloop
endfacet
facet normal 1 0 0
  outer loop
    vertex 11 5.188908991316961 23.91482726806895
    vertex 11 5.660896799147157 17.88527127787093
    vertex 11 11 20
  endloop
endfacet
facet normal 1 0 0
  outer loop
    vertex 11 -11 35
    vertex 11 -6.32400643005229 37.79749009522304
    vertex 11 -11 42.5
  endloop
endfacet
facet normal 1 0 0
  outer loop
    vertex 11 -1.77635683940025e-15 18.85085296108588
    vertex 11 -6.281374141868938 17.24943964013075
    vertex 11 -3.666666666666667 12.5
  endloop
endfacet
facet normal 1 -0 0
  outer loop
    vertex 11 -11 42.5
    vertex 11 -6.32400643005229 37.79749009522304
    vertex 11 -3.666666666666667 42.5
  endloop
endfacet
facet normal 1 0 -0
  outer loop
    vertex 11 3.666666666666666 12.5
    vertex 11 5.660896799147157 17.88527127787093
    vertex 11 -1.77635683940025e-15 18.85085296108588
  endloop
endfacet
facet normal 1 0 0
  outer loop
    vertex 11 -0.2796479175661268 36.07883659079454
    vertex 11 5.660896799147157 37.11472872212907
    vertex 11 3.666666666666666 42.5
  endloop
endfacet
facet normal 1 -0 0
  outer loop
    vertex 11 -1.77635683940025e-15 18.85085296108588
    vertex 11 5.660896799147157 17.88527127787093
    vertex 11 5.188908991316961 23.91482726806895
  endloop
endfacet
facet normal 1 0 -0
  outer loop
    vertex 11 5.058575873296412 31.26445304650987
    vertex 11 5.660896799147157 37.11472872212907
    vertex 11 -0.2796479175661268 36.07883659079454
  endloop
endfacet
facet normal 1 0 0
  outer loop
    vertex 11 11 35
    vertex 11 5.660896799147157 37.11472872212907
    vertex 11 5.058575873296412 31.26445304650987
  endloop
endfacet
facet normal 1 0 0
  outer loop
    vertex 11 -0.2796479175661268 36.07883659079454
    vertex 11 -6.32400643005229 37.79749009522304
    vertex 11 -5.673717566028655 32.90861388532063
  endloop
endfacet
facet normal 1 0 0
  outer loop
    vertex 11 -5.740204042678021 22.39634523956785
    vertex 11 -6.281374141868938 17.24943964013075
    vertex 11 -1.77635683940025e-15 18.85085296108588
  endloop
endfacet
facet normal 1 -0 0
  outer loop
    vertex 11 -11 20
    vertex 11 -6.281374141868938 17.24943964013075
    vertex 11 -5.740204042678021 22.39634523956785
  endloop
endfacet
facet normal 1 0 0
  outer loop
    vertex 11 -5.673717566028655 32.90861388532063
    vertex 11 -6.32400643005229 37.79749009522304
    vertex 11 -11 35
  endloop
endfacet
facet normal -1 0 -0
  outer loop
    vertex -7.999999999999993 8 12.5
    vertex -7.999999999999993 8 5.357142857142861
    vertex -7.999999999999993 2.321446479134796 7.142857142857139
  endloop
endfacet
facet normal -1 0 0
  outer loop
    vertex -7.999999999999993 -8 -37.5
    vertex -7.999999999999993 -8 -30.35714285714286
    vertex -7.999999999999993 -2.184657919525412 -32.06360569489885
  endloop
endfacet
facet normal -1 0 0
  outer loop
    vertex -7.999999999999993 0 12.5
    vertex -7.999999999999993 8 12.5
    vertex -7.999999999999993 2.321446479134796 7.142857142857139
  endloop
endfacet
facet normal -1 0 0
  outer loop
    vertex -7.999999999999993 0 -37.5
    vertex -7.999999999999993 -8 -37.5
    vertex -7.999999999999993 -2.184657919525412 -32.06360569489885
  endloop
endfacet
facet normal -1 0 0
  outer loop
    vertex -7.999999999999993 2.460222329130431 -26.48534691941935
    vertex -7.999999999999993 -1.814104258682582 -19.64285714285714
    vertex -7.999999999999993 3.737867908219627 -19.74336859365085
  endloop
endfacet
facet normal -1 0 -0
  outer loop
    vertex -7.999999999999993 -1.814104258682582 -19.64285714285714
    vertex -7.999999999999993 2.460222329130431 -26.48534691941935
    vertex -7.999999999999993 -3.568169846282895 -26.61057296425951
  endloop
endfacet
facet normal -1 0 0
  outer loop
    vertex -7.999999999999993 -1.814104258682582 -19.64285714285714
    vertex -7.999999999999993 2.043221470650284 -13.30292462026345
    vertex -7.999999999999993 3.737867908219627 -19.74336859365085
  endloop
endfacet
facet normal -1 0 0
  outer loop
    vertex -7.999999999999993 2.075952500931383 -4.668921754059902
    vertex -7.999999999999993 -1.814104258682583 1.785714285714278
    vertex -7.999999999999993 3.742783133491368 1.785714285714285
  endloop
endfacet
facet normal -1 -0 0
  outer loop
    vertex -7.999999999999993 8 -8.928571428571427
    vertex -7.999999999999993 2.043221470650284 -13.30292462026345
    vertex -7.999999999999993 2.075952500931383 -4.668921754059902
  endloop
endfacet
facet normal -1 0 -0
  outer loop
    vertex -7.999999999999993 8 -23.21428571428572
    vertex -7.999999999999993 8 -30.35714285714286
    vertex -7.999999999999993 2.460222329130431 -26.48534691941935
  endloop
endfacet
facet normal -1 0 -0
  outer loop
    vertex -7.999999999999993 8 -8.928571428571427
    vertex -7.999999999999993 8 -16.07142857142857
    vertex -7.999999999999993 2.043221470650284 -13.30292462026345
  endloop
endfacet
facet normal -1 0 -0
  outer loop
    vertex -7.999999999999993 8 -1.785714285714285
    vertex -7.999999999999993 8 -8.928571428571427
    vertex -7.999999999999993 2.075952500931383 -4.668921754059902
  endloop
endfacet
facet normal -1 0 0
  outer loop
    vertex -7.999999999999993 -8 -23.21428571428572
    vertex -7.999999999999993 -8 -16.07142857142857
    vertex -7.999999999999993 -1.814104258682582 -19.64285714285714
  endloop
endfacet
facet normal -1 0 0
  outer loop
    vertex -7.999999999999993 -8 -1.785714285714285
    vertex -7.999999999999993 -8 5.357142857142861
    vertex -7.999999999999993 -1.814104258682583 1.785714285714278
  endloop
endfacet
facet normal -1 0 0
  outer loop
    vertex -7.999999999999993 2.043221470650284 -13.30292462026345
    vertex -7.999999999999993 -1.814104258682582 -19.64285714285714
    vertex -7.999999999999993 -3.642799079171668 -13.3748706383384
  endloop
endfacet
facet normal -1 0 -0
  outer loop
    vertex -7.999999999999993 -1.814104258682583 1.785714285714278
    vertex -7.999999999999993 2.075952500931383 -4.668921754059902
    vertex -7.999999999999993 -3.636252873115448 -4.505212922240553
  endloop
endfacet
facet normal -1 0 0
  outer loop
    vertex -7.999999999999993 -8 -23.21428571428572
    vertex -7.999999999999993 -1.814104258682582 -19.64285714285714
    vertex -7.999999999999993 -3.568169846282895 -26.61057296425951
  endloop
endfacet
facet normal -1 -0 0
  outer loop
    vertex -7.999999999999993 8 -23.21428571428572
    vertex -7.999999999999993 2.460222329130431 -26.48534691941935
    vertex -7.999999999999993 3.737867908219627 -19.74336859365085
  endloop
endfacet
facet normal -1 0 0
  outer loop
    vertex -7.999999999999993 2.043221470650284 -13.30292462026345
    vertex -7.999999999999993 8 -16.07142857142857
    vertex -7.999999999999993 3.737867908219627 -19.74336859365085
  endloop
endfacet
facet normal -1 -0 0
  outer loop
    vertex -7.999999999999993 8 -1.785714285714285
    vertex -7.999999999999993 2.075952500931383 -4.668921754059902
    vertex -7.999999999999993 3.742783133491368 1.785714285714285
  endloop
endfacet
facet normal -1 0 0
  outer loop
    vertex -7.999999999999993 -8 -8.928571428571427
    vertex -7.999999999999993 -8 -1.785714285714285
    vertex -7.999999999999993 -3.636252873115448 -4.505212922240553
  endloop
endfacet
facet normal -1 0 0
  outer loop
    vertex -7.999999999999993 -8 -16.07142857142857
    vertex -7.999999999999993 -8 -8.928571428571427
    vertex -7.999999999999993 -3.642799079171668 -13.3748706383384
  endloop
endfacet
facet normal -1 0 0
  outer loop
    vertex -7.999999999999993 -1.814104258682583 1.785714285714278
    vertex -7.999999999999993 -8 5.357142857142861
    vertex -7.999999999999993 -3.098531555909557 7.857142857142861
  endloop
endfacet
facet normal -1 0 0
  outer loop
    vertex -7.999999999999993 2.460222329130431 -26.48534691941935
    vertex -7.999999999999993 8 -30.35714285714286
    vertex -7.999999999999993 3.255112881921004 -32.78121909429221
  endloop
endfacet
facet normal -1 0 0
  outer loop
    vertex -7.999999999999993 -8 12.5
    vertex -7.999999999999993 0 12.5
    vertex -7.999999999999993 -3.098531555909557 7.857142857142861
  endloop
endfacet
facet normal -1 0 0
  outer loop
    vertex -7.999999999999993 8 -37.5
    vertex -7.999999999999993 0 -37.5
    vertex -7.999999999999993 3.255112881921004 -32.78121909429221
  endloop
endfacet
facet normal -1 -0 0
  outer loop
    vertex -7.999999999999993 -2.44311260782604 -8.928571428571423
    vertex -7.999999999999993 -8 -8.928571428571427
    vertex -7.999999999999993 -3.636252873115448 -4.505212922240553
  endloop
endfacet
facet normal -1 0 0
  outer loop
    vertex -7.999999999999993 -8 -8.928571428571427
    vertex -7.999999999999993 -2.44311260782604 -8.928571428571423
    vertex -7.999999999999993 -3.642799079171668 -13.3748706383384
  endloop
endfacet
facet normal -1 0 0
  outer loop
    vertex -7.999999999999993 2.075952500931383 -4.668921754059902
    vertex -7.999999999999993 2.043221470650284 -13.30292462026345
    vertex -7.999999999999993 -2.44311260782604 -8.928571428571423
  endloop
endfacet
facet normal -1 0 -0
  outer loop
    vertex -7.999999999999993 8 5.357142857142861
    vertex -7.999999999999993 8 -1.785714285714285
    vertex -7.999999999999993 3.742783133491368 1.785714285714285
  endloop
endfacet
facet normal -1 0 0
  outer loop
    vertex -7.999999999999993 -8 -30.35714285714286
    vertex -7.999999999999993 -8 -23.21428571428572
    vertex -7.999999999999993 -3.568169846282895 -26.61057296425951
  endloop
endfacet
facet normal -1 0 -0
  outer loop
    vertex -7.999999999999993 8 -16.07142857142857
    vertex -7.999999999999993 8 -23.21428571428572
    vertex -7.999999999999993 3.737867908219627 -19.74336859365085
  endloop
endfacet
facet normal -1 -0 0
  outer loop
    vertex -7.999999999999993 2.321446479134796 7.142857142857139
    vertex -7.999999999999993 -1.814104258682583 1.785714285714278
    vertex -7.999999999999993 -3.098531555909557 7.857142857142861
  endloop
endfacet
facet normal -1 0 0
  outer loop
    vertex -7.999999999999993 -2.184657919525412 -32.06360569489885
    vertex -7.999999999999993 2.460222329130431 -26.48534691941935
    vertex -7.999999999999993 3.255112881921004 -32.78121909429221
  endloop
endfacet
facet normal -1 -0 0
  outer loop
    vertex -7.999999999999993 8 5.357142857142861
    vertex -7.999999999999993 3.742783133491368 1.785714285714285
    vertex -7.999999999999993 2.321446479134796 7.142857142857139
  endloop
endfacet
facet normal -1 0 0
  outer loop
    vertex -7.999999999999993 -8 -30.35714285714286
    vertex -7.999999999999993 -3.568169846282895 -26.61057296425951
    vertex -7.999999999999993 -2.184657919525412 -32.06360569489885
  endloop
endfacet
facet normal -1 0 0
  outer loop
    vertex -7.999999999999993 -1.814104258682582 -19.64285714285714
    vertex -7.999999999999993 -8 -16.07142857142857
    vertex -7.999999999999993 -3.642799079171668 -13.3748706383384
  endloop
endfacet
facet normal -1 0 0
  outer loop
    vertex -7.999999999999993 -8 -1.785714285714285
    vertex -7.999999999999993 -1.814104258682583 1.785714285714278
    vertex -7.999999999999993 -3.636252873115448 -4.505212922240553
  endloop
endfacet
facet normal -1 0 -0
  outer loop
    vertex -7.999999999999993 8 -30.35714285714286
    vertex -7.999999999999993 8 -37.5
    vertex -7.999999999999993 3.255112881921004 -32.78121909429221
  endloop
endfacet
facet normal -1 0 0
  outer loop
    vertex -7.999999999999993 -8 5.357142857142861
    vertex -7.999999999999993 -8 12.5
    vertex -7.999999999999993 -3.098531555909557 7.857142857142861
  endloop
endfacet
facet normal -1 -0 0
  outer loop
    vertex -7.999999999999993 3.742783133491368 1.785714285714285
    vertex -7.999999999999993 -1.814104258682583 1.785714285714278
    vertex -7.999999999999993 2.321446479134796 7.142857142857139
  endloop
endfacet
facet normal -1 0 0
  outer loop
    vertex -7.999999999999993 -3.568169846282895 -26.61057296425951
    vertex -7.999999999999993 2.460222329130431 -26.48534691941935
    vertex -7.999999999999993 -2.184657919525412 -32.06360569489885
  endloop
endfacet
facet normal -1 -0 0
  outer loop
    vertex -7.999999999999993 2.075952500931383 -4.668921754059902
    vertex -7.999999999999993 -2.44311260782604 -8.928571428571423
    vertex -7.999999999999993 -3.636252873115448 -4.505212922240553
  endloop
endfacet
facet normal -1 0 -0
  outer loop
    vertex -7.999999999999993 -2.44311260782604 -8.928571428571423
    vertex -7.999999999999993 2.043221470650284 -13.30292462026345
    vertex -7.999999999999993 -3.642799079171668 -13.3748706383384
  endloop
endfacet
facet normal -1 0 0
  outer loop
    vertex -7.999999999999993 0 -37.5
    vertex -7.999999999999993 -2.184657919525412 -32.06360569489885
    vertex -7.999999999999993 3.255112881921004 -32.78121909429221
  endloop
endfacet
facet normal -1 0 -0
  outer loop
    vertex -7.999999999999993 0 12.5
    vertex -7.999999999999993 2.321446479134796 7.142857142857139
    vertex -7.999999999999993 -3.098531555909557 7.857142857142861
  endloop
endfacet
facet normal 0 -1 0
  outer loop
    vertex 3.552713678800501e-15 -8 -37.5
    vertex 8 -8 -37.5
    vertex 2.454201908430182 -8 -30.32667002250309
  endloop
endfacet
facet normal 0 -1 0
  outer loop
    vertex 8 -8 5.357142857142861
    vertex 8 -8 12.5
    vertex 2.184657919525414 -8 7.063605694898854
  endloop
endfacet
facet normal 0 -1 0
  outer loop
    vertex 2.003682886751029 -8 -12.72099356919173
    vertex 1.81410425868258 -8 -5.357142857142861
    vertex -2.999714297804309 -8 -11.21472516458296
  endloop
endfacet
facet normal 0 -1 0
  outer loop
    vertex -2.999714297804309 -8 -11.21472516458296
    vertex 1.81410425868258 -8 -5.357142857142861
    vertex -3.929166473650428 -8 -5.16016136331843
  endloop
endfacet
facet normal 0 -1 0
  outer loop
    vertex 8 -8 -37.5
    vertex 8 -8 -30.35714285714286
    vertex 2.454201908430182 -8 -30.32667002250309
  endloop
endfacet
facet normal 0 -1 0
  outer loop
    vertex 8 -8 -30.35714285714286
    vertex 8 -8 -23.21428571428572
    vertex 2.454201908430182 -8 -30.32667002250309
  endloop
endfacet
facet normal 0 -1 0
  outer loop
    vertex 8 -8 -23.21428571428572
    vertex 1.832774231439924 -8 -23.32890715995189
    vertex 2.454201908430182 -8 -30.32667002250309
  endloop
endfacet
facet normal -0 -1 0
  outer loop
    vertex 8 -8 12.5
    vertex 3.552713678800501e-15 -8 12.5
    vertex 2.184657919525414 -8 7.063605694898854
  endloop
endfacet
facet normal 0 -1 0
  outer loop
    vertex -2.460222329130425 -8 1.485346919419342
    vertex 1.81410425868258 -8 -5.357142857142861
    vertex 3.568169846282899 -8 1.610572964259504
  endloop
endfacet
facet normal 0 -1 0
  outer loop
    vertex 1.81410425868258 -8 -5.357142857142861
    vertex -2.460222329130425 -8 1.485346919419342
    vertex -3.929166473650428 -8 -5.16016136331843
  endloop
endfacet
facet normal 0 -1 0
  outer loop
    vertex -2.073289798768105 -8 -18.8530717040203
    vertex 2.003682886751029 -8 -12.72099356919173
    vertex -2.999714297804309 -8 -11.21472516458296
  endloop
endfacet
facet normal 0 -1 0
  outer loop
    vertex -7.999999999999993 -8 -23.21428571428572
    vertex -7.999999999999993 -8 -30.35714285714286
    vertex -2.214161183575792 -8 -26.65669498650878
  endloop
endfacet
facet normal 0 -1 0
  outer loop
    vertex -7.999999999999993 -8 -23.21428571428572
    vertex -2.214161183575792 -8 -26.65669498650878
    vertex -2.073289798768105 -8 -18.8530717040203
  endloop
endfacet
facet normal 0 -1 0
  outer loop
    vertex -7.999999999999993 -8 -16.07142857142857
    vertex -7.999999999999993 -8 -23.21428571428572
    vertex -2.073289798768105 -8 -18.8530717040203
  endloop
endfacet
facet normal 0 -1 0
  outer loop
    vertex -7.999999999999993 -8 5.357142857142861
    vertex -7.999999999999993 -8 -1.785714285714285
    vertex -2.460222329130425 -8 1.485346919419342
  endloop
endfacet
facet normal 0 -1 0
  outer loop
    vertex 8 -8 -16.07142857142857
    vertex 8 -8 -8.928571428571427
    vertex 2.003682886751029 -8 -12.72099356919173
  endloop
endfacet
facet normal 0 -1 0
  outer loop
    vertex 8 -8 -8.928571428571427
    vertex 8 -8 -1.785714285714285
    vertex 1.81410425868258 -8 -5.357142857142861
  endloop
endfacet
facet normal 0 -1 0
  outer loop
    vertex 2.003682886751029 -8 -12.72099356919173
    vertex 8 -8 -8.928571428571427
    vertex 1.81410425868258 -8 -5.357142857142861
  endloop
endfacet
facet normal 0 -1 -0
  outer loop
    vertex 2.003682886751029 -8 -12.72099356919173
    vertex -2.073289798768105 -8 -18.8530717040203
    vertex 3.552633463884568 -8 -18.83773734377564
  endloop
endfacet
facet normal 0 -1 0
  outer loop
    vertex 1.81410425868258 -8 -5.357142857142861
    vertex 8 -8 -1.785714285714285
    vertex 3.568169846282899 -8 1.610572964259504
  endloop
endfacet
facet normal 0 -1 0
  outer loop
    vertex -7.999999999999993 -8 -16.07142857142857
    vertex -2.073289798768105 -8 -18.8530717040203
    vertex -2.999714297804309 -8 -11.21472516458296
  endloop
endfacet
facet normal 0 -1 0
  outer loop
    vertex -2.460222329130425 -8 1.485346919419342
    vertex -7.999999999999993 -8 -1.785714285714285
    vertex -3.929166473650428 -8 -5.16016136331843
  endloop
endfacet
facet normal 0 -1 0
  outer loop
    vertex 8 -8 -23.21428571428572
    vertex 8 -8 -16.07142857142857
    vertex 3.552633463884568 -8 -18.83773734377564
  endloop
endfacet
facet normal 0 -1 0
  outer loop
    vertex -7.999999999999993 -8 -37.5
    vertex 3.552713678800501e-15 -8 -37.5
    vertex -2.917141271217318 -8 -32.45520805387917
  endloop
endfacet
facet normal 0 -1 0
  outer loop
    vertex -7.999999999999993 -8 -30.35714285714286
    vertex -7.999999999999993 -8 -37.5
    vertex -2.917141271217318 -8 -32.45520805387917
  endloop
endfacet
facet normal 0 -1 0
  outer loop
    vertex -7.999999999999993 -8 5.357142857142861
    vertex -2.460222329130425 -8 1.485346919419342
    vertex -3.255112881920999 -8 7.781219094292219
  endloop
endfacet
facet normal -0 -1 0
  outer loop
    vertex 3.552713678800501e-15 -8 12.5
    vertex -7.999999999999993 -8 12.5
    vertex -3.255112881920999 -8 7.781219094292219
  endloop
endfacet
facet normal 0 -1 0
  outer loop
    vertex 1.832774231439924 -8 -23.32890715995189
    vertex 8 -8 -23.21428571428572
    vertex 3.552633463884568 -8 -18.83773734377564
  endloop
endfacet
facet normal 0 -1 0
  outer loop
    vertex -7.999999999999993 -8 -8.928571428571427
    vertex -2.999714297804309 -8 -11.21472516458296
    vertex -3.929166473650428 -8 -5.16016136331843
  endloop
endfacet
facet normal 0 -1 0
  outer loop
    vertex 8 -8 -1.785714285714285
    vertex 8 -8 5.357142857142861
    vertex 3.568169846282899 -8 1.610572964259504
  endloop
endfacet
facet normal 0 -1 -0
  outer loop
    vertex -2.073289798768105 -8 -18.8530717040203
    vertex -2.214161183575792 -8 -26.65669498650878
    vertex 1.832774231439924 -8 -23.32890715995189
  endloop
endfacet
facet normal 0 -1 0
  outer loop
    vertex -7.999999999999993 -8 -1.785714285714285
    vertex -7.999999999999993 -8 -8.928571428571427
    vertex -3.929166473650428 -8 -5.16016136331843
  endloop
endfacet
facet normal 0 -1 0
  outer loop
    vertex -7.999999999999993 -8 -8.928571428571427
    vertex -7.999999999999993 -8 -16.07142857142857
    vertex -2.999714297804309 -8 -11.21472516458296
  endloop
endfacet
facet normal 0 -1 0
  outer loop
    vertex -2.460222329130425 -8 1.485346919419342
    vertex 2.184657919525414 -8 7.063605694898854
    vertex -3.255112881920999 -8 7.781219094292219
  endloop
endfacet
facet normal 0 -1 0
  outer loop
    vertex -2.214161183575792 -8 -26.65669498650878
    vertex -7.999999999999993 -8 -30.35714285714286
    vertex -2.917141271217318 -8 -32.45520805387917
  endloop
endfacet
facet normal 0 -1 0
  outer loop
    vertex 3.568169846282899 -8 1.610572964259504
    vertex 8 -8 5.357142857142861
    vertex 2.184657919525414 -8 7.063605694898854
  endloop
endfacet
facet normal 0 -1 -0
  outer loop
    vertex 1.832774231439924 -8 -23.32890715995189
    vertex -2.214161183575792 -8 -26.65669498650878
    vertex 2.454201908430182 -8 -30.32667002250309
  endloop
endfacet
facet normal 0 -1 0
  outer loop
    vertex -2.917141271217318 -8 -32.45520805387917
    vertex 3.552713678800501e-15 -8 -37.5
    vertex 2.454201908430182 -8 -30.32667002250309
  endloop
endfacet
facet normal -0 -1 0
  outer loop
    vertex 8 -8 -16.07142857142857
    vertex 2.003682886751029 -8 -12.72099356919173
    vertex 3.552633463884568 -8 -18.83773734377564
  endloop
endfacet
facet normal 0 -1 0
  outer loop
    vertex -7.999999999999993 -8 12.5
    vertex -7.999999999999993 -8 5.357142857142861
    vertex -3.255112881920999 -8 7.781219094292219
  endloop
endfacet
facet normal 0 -1 0
  outer loop
    vertex -2.460222329130425 -8 1.485346919419342
    vertex 3.568169846282899 -8 1.610572964259504
    vertex 2.184657919525414 -8 7.063605694898854
  endloop
endfacet
facet normal 0 -1 0
  outer loop
    vertex -2.073289798768105 -8 -18.8530717040203
    vertex 1.832774231439924 -8 -23.32890715995189
    vertex 3.552633463884568 -8 -18.83773734377564
  endloop
endfacet
facet normal 0 -1 -0
  outer loop
    vertex -2.214161183575792 -8 -26.65669498650878
    vertex -2.917141271217318 -8 -32.45520805387917
    vertex 2.454201908430182 -8 -30.32667002250309
  endloop
endfacet
facet normal 0 -1 0
  outer loop
    vertex 2.184657919525414 -8 7.063605694898854
    vertex 3.552713678800501e-15 -8 12.5
    vertex -3.255112881920999 -8 7.781219094292219
  endloop
endfacet
facet normal 1 0 0
  outer loop
    vertex 8 8 12.5
    vertex 8 2.321446479134796 7.142857142857139
    vertex 8 8 5.357142857142861
  endloop
endfacet
facet normal 1 0 0
  outer loop
    vertex 8 -8 -37.5
    vertex 8 -2.184657919525412 -32.06360569489885
    vertex 8 -8 -30.35714285714286
  endloop
endfacet
facet normal 1 -0 0
  outer loop
    vertex 8 0 12.5
    vertex 8 2.321446479134796 7.142857142857139
    vertex 8 8 12.5
  endloop
endfacet
facet normal 1 0 0
  outer loop
    vertex 8 0 -37.5
    vertex 8 -2.184657919525412 -32.06360569489885
    vertex 8 -8 -37.5
  endloop
endfacet
facet normal 1 0 -0
  outer loop
    vertex 8 2.460222329130431 -26.48534691941935
    vertex 8 3.737867908219627 -19.74336859365085
    vertex 8 -1.814104258682582 -19.64285714285714
  endloop
endfacet
facet normal 1 0 0
  outer loop
    vertex 8 -1.814104258682582 -19.64285714285714
    vertex 8 -3.568169846282895 -26.61057296425951
    vertex 8 2.460222329130431 -26.48534691941935
  endloop
endfacet
facet normal 1 -0 0
  outer loop
    vertex 8 -1.814104258682582 -19.64285714285714
    vertex 8 3.737867908219627 -19.74336859365085
    vertex 8 2.043221470650284 -13.30292462026345
  endloop
endfacet
facet normal 1 0 -0
  outer loop
    vertex 8 2.075952500931383 -4.668921754059902
    vertex 8 3.742783133491368 1.785714285714285
    vertex 8 -1.814104258682583 1.785714285714278
  endloop
endfacet
facet normal 1 0 0
  outer loop
    vertex 8 8 -8.928571428571427
    vertex 8 2.075952500931383 -4.668921754059902
    vertex 8 2.043221470650284 -13.30292462026345
  endloop
endfacet
facet normal 1 0 0
  outer loop
    vertex 8 8 -23.21428571428572
    vertex 8 2.460222329130431 -26.48534691941935
    vertex 8 8 -30.35714285714286
  endloop
endfacet
facet normal 1 0 0
  outer loop
    vertex 8 8 -8.928571428571427
    vertex 8 2.043221470650284 -13.30292462026345
    vertex 8 8 -16.07142857142857
  endloop
endfacet
facet normal 1 0 0
  outer loop
    vertex 8 8 -1.785714285714285
    vertex 8 2.075952500931383 -4.668921754059902
    vertex 8 8 -8.928571428571427
  endloop
endfacet
facet normal 1 0 0
  outer loop
    vertex 8 -8 -23.21428571428572
    vertex 8 -1.814104258682582 -19.64285714285714
    vertex 8 -8 -16.07142857142857
  endloop
endfacet
facet normal 1 0 0
  outer loop
    vertex 8 -8 -1.785714285714285
    vertex 8 -1.814104258682583 1.785714285714278
    vertex 8 -8 5.357142857142861
  endloop
endfacet
facet normal 1 0 0
  outer loop
    vertex 8 2.043221470650284 -13.30292462026345
    vertex 8 -3.642799079171668 -13.3748706383384
    vertex 8 -1.814104258682582 -19.64285714285714
  endloop
endfacet
facet normal 1 0 0
  outer loop
    vertex 8 -1.814104258682583 1.785714285714278
    vertex 8 -3.636252873115448 -4.505212922240553
    vertex 8 2.075952500931383 -4.668921754059902
  endloop
endfacet
facet normal 1 -0 0
  outer loop
    vertex 8 -8 -23.21428571428572
    vertex 8 -3.568169846282895 -26.61057296425951
    vertex 8 -1.814104258682582 -19.64285714285714
  endloop
endfacet
facet normal 1 0 0
  outer loop
    vertex 8 8 -23.21428571428572
    vertex 8 3.737867908219627 -19.74336859365085
    vertex 8 2.460222329130431 -26.48534691941935
  endloop
endfacet
facet normal 1 0 0
  outer loop
    vertex 8 2.043221470650284 -13.30292462026345
    vertex 8 3.737867908219627 -19.74336859365085
    vertex 8 8 -16.07142857142857
  endloop
endfacet
facet normal 1 0 0
  outer loop
    vertex 8 8 -1.785714285714285
    vertex 8 3.742783133491368 1.785714285714285
    vertex 8 2.075952500931383 -4.668921754059902
  endloop
endfacet
facet normal 1 0 0
  outer loop
    vertex 8 -8 -8.928571428571427
    vertex 8 -3.636252873115448 -4.505212922240553
    vertex 8 -8 -1.785714285714285
  endloop
endfacet
facet normal 1 0 0
  outer loop
    vertex 8 -8 -16.07142857142857
    vertex 8 -3.642799079171668 -13.3748706383384
    vertex 8 -8 -8.928571428571427
  endloop
endfacet
facet normal 1 0 0
  outer loop
    vertex 8 -1.814104258682583 1.785714285714278
    vertex 8 -3.098531555909557 7.857142857142861
    vertex 8 -8 5.357142857142861
  endloop
endfacet
facet normal 1 0 0
  outer loop
    vertex 8 2.460222329130431 -26.48534691941935
    vertex 8 3.255112881921004 -32.78121909429221
    vertex 8 8 -30.35714285714286
  endloop
endfacet
facet normal 1 -0 0
  outer loop
    vertex 8 -8 12.5
    vertex 8 -3.098531555909557 7.857142857142861
    vertex 8 0 12.5
  endloop
endfacet
facet normal 1 0 0
  outer loop
    vertex 8 8 -37.5
    vertex 8 3.255112881921004 -32.78121909429221
    vertex 8 0 -37.5
  endloop
endfacet
facet normal 1 0 0
  outer loop
    vertex 8 -2.44311260782604 -8.928571428571423
    vertex 8 -3.636252873115448 -4.505212922240553
    vertex 8 -8 -8.928571428571427
  endloop
endfacet
facet normal 1 -0 0
  outer loop
    vertex 8 -8 -8.928571428571427
    vertex 8 -3.642799079171668 -13.3748706383384
    vertex 8 -2.44311260782604 -8.928571428571423
  endloop
endfacet
facet normal 1 0 0
  outer loop
    vertex 8 2.075952500931383 -4.668921754059902
    vertex 8 -2.44311260782604 -8.928571428571423
    vertex 8 2.043221470650284 -13.30292462026345
  endloop
endfacet
facet normal 1 0 0
  outer loop
    vertex 8 8 5.357142857142861
    vertex 8 3.742783133491368 1.785714285714285
    vertex 8 8 -1.785714285714285
  endloop
endfacet
facet normal 1 0 0
  outer loop
    vertex 8 -8 -30.35714285714286
    vertex 8 -3.568169846282895 -26.61057296425951
    vertex 8 -8 -23.21428571428572
  endloop
endfacet
facet normal 1 0 0
  outer loop
    vertex 8 8 -16.07142857142857
    vertex 8 3.737867908219627 -19.74336859365085
    vertex 8 8 -23.21428571428572
  endloop
endfacet
facet normal 1 0 0
  outer loop
    vertex 8 2.321446479134796 7.142857142857139
    vertex 8 -3.098531555909557 7.857142857142861
    vertex 8 -1.814104258682583 1.785714285714278
  endloop
endfacet
facet normal 1 -0 0
  outer loop
    vertex 8 -2.184657919525412 -32.06360569489885
    vertex 8 3.255112881921004 -32.78121909429221
    vertex 8 2.460222329130431 -26.48534691941935
  endloop
endfacet
facet normal 1 0 0
  outer loop
    vertex 8 8 5.357142857142861
    vertex 8 2.321446479134796 7.142857142857139
    vertex 8 3.742783133491368 1.785714285714285
  endloop
endfacet
facet normal 1 -0 0
  outer loop
    vertex 8 -8 -30.35714285714286
    vertex 8 -2.184657919525412 -32.06360569489885
    vertex 8 -3.568169846282895 -26.61057296425951
  endloop
endfacet
facet normal 1 0 0
  outer loop
    vertex 8 -1.814104258682582 -19.64285714285714
    vertex 8 -3.642799079171668 -13.3748706383384
    vertex 8 -8 -16.07142857142857
  endloop
endfacet
facet normal 1 -0 0
  outer loop
    vertex 8 -8 -1.785714285714285
    vertex 8 -3.636252873115448 -4.505212922240553
    vertex 8 -1.814104258682583 1.785714285714278
  endloop
endfacet
facet normal 1 0 0
  outer loop
    vertex 8 8 -30.35714285714286
    vertex 8 3.255112881921004 -32.78121909429221
    vertex 8 8 -37.5
  endloop
endfacet
facet normal 1 0 0
  outer loop
    vertex 8 -8 5.357142857142861
    vertex 8 -3.098531555909557 7.857142857142861
    vertex 8 -8 12.5
  endloop
endfacet
facet normal 1 0 0
  outer loop
    vertex 8 3.742783133491368 1.785714285714285
    vertex 8 2.321446479134796 7.142857142857139
    vertex 8 -1.814104258682583 1.785714285714278
  endloop
endfacet
facet normal 1 -0 0
  outer loop
    vertex 8 -3.568169846282895 -26.61057296425951
    vertex 8 -2.184657919525412 -32.06360569489885
    vertex 8 2.460222329130431 -26.48534691941935
  endloop
endfacet
facet normal 1 0 0
  outer loop
    vertex 8 2.075952500931383 -4.668921754059902
    vertex 8 -3.636252873115448 -4.505212922240553
    vertex 8 -2.44311260782604 -8.928571428571423
  endloop
endfacet
facet normal 1 0 0
  outer loop
    vertex 8 -2.44311260782604 -8.928571428571423
    vertex 8 -3.642799079171668 -13.3748706383384
    vertex 8 2.043221470650284 -13.30292462026345
  endloop
endfacet
facet normal 1 0 -0
  outer loop
    vertex 8 0 -37.5
    vertex 8 3.255112881921004 -32.78121909429221
    vertex 8 -2.184657919525412 -32.06360569489885
  endloop
endfacet
facet normal 1 0 0
  outer loop
    vertex 8 0 12.5
    vertex 8 -3.098531555909557 7.857142857142861
    vertex 8 2.321446479134796 7.142857142857139
  endloop
endfacet
facet normal 0 1 0
  outer loop
    vertex -7.999999999999993 8 -30.35714285714286
    vertex -2.184657919525407 8 -32.06360569489885
    vertex -7.999999999999993 8 -37.5
  endloop
endfacet
facet normal 0 1 0
  outer loop
    vertex -7.999999999999993 8 12.5
    vertex -2.184657919525407 8 7.063605694898861
    vertex -7.999999999999993 8 5.357142857142861
  endloop
endfacet
facet normal 0 1 0
  outer loop
    vertex -7.999999999999993 8 -37.5
    vertex -2.184657919525407 8 -32.06360569489885
    vertex 3.552713678800501e-15 8 -37.5
  endloop
endfacet
facet normal 0 1 0
  outer loop
    vertex 3.552713678800501e-15 8 12.5
    vertex -2.184657919525407 8 7.063605694898861
    vertex -7.999999999999993 8 12.5
  endloop
endfacet
facet normal 0 1 0
  outer loop
    vertex 1.814104258682582 8 -12.5
    vertex -3.742783133491369 8 -12.5
    vertex -1.814104258682574 8 -5.357142857142847
  endloop
endfacet
facet normal 0 1 0
  outer loop
    vertex -1.814104258682574 8 -5.357142857142847
    vertex 3.742783133491377 8 -5.357142857142854
    vertex 1.814104258682582 8 -12.5
  endloop
endfacet
facet normal -0 1 0
  outer loop
    vertex -1.814104258682574 8 -19.64285714285714
    vertex 3.742783133491377 8 -19.64285714285714
    vertex 2.460222329130433 8 -26.48534691941935
  endloop
endfacet
facet normal 0 1 -0
  outer loop
    vertex -1.814104258682574 8 -19.64285714285714
    vertex -3.742783133491369 8 -12.5
    vertex 1.814104258682582 8 -12.5
  endloop
endfacet
facet normal 0 1 0
  outer loop
    vertex 1.814104258682582 8 -12.5
    vertex 3.742783133491377 8 -19.64285714285714
    vertex -1.814104258682574 8 -19.64285714285714
  endloop
endfacet
facet normal 0 1 0
  outer loop
    vertex 2.460222329130431 8 1.485346919419349
    vertex 3.742783133491377 8 -5.357142857142854
    vertex -1.814104258682574 8 -5.357142857142847
  endloop
endfacet
facet normal 0 1 0
  outer loop
    vertex 2.460222329130433 8 -26.48534691941935
    vertex -3.568169846282891 8 -26.61057296425951
    vertex -1.814104258682574 8 -19.64285714285714
  endloop
endfacet
facet normal 0 1 -0
  outer loop
    vertex -1.814104258682574 8 -5.357142857142847
    vertex -3.568169846282893 8 1.610572964259504
    vertex 2.460222329130431 8 1.485346919419349
  endloop
endfacet
facet normal 0 1 -0
  outer loop
    vertex 8 8 -16.07142857142857
    vertex 1.814104258682582 8 -12.5
    vertex 8 8 -8.928571428571427
  endloop
endfacet
facet normal 0 1 0
  outer loop
    vertex -7.999999999999993 8 -1.785714285714285
    vertex -1.814104258682574 8 -5.357142857142847
    vertex -7.999999999999993 8 -8.928571428571427
  endloop
endfacet
facet normal 0 1 -0
  outer loop
    vertex 8 8 -30.35714285714286
    vertex 2.460222329130433 8 -26.48534691941935
    vertex 8 8 -23.21428571428572
  endloop
endfacet
facet normal 0 1 0
  outer loop
    vertex -7.999999999999993 8 -16.07142857142857
    vertex -1.814104258682574 8 -19.64285714285714
    vertex -7.999999999999993 8 -23.21428571428572
  endloop
endfacet
facet normal 0 1 -0
  outer loop
    vertex 8 8 -1.785714285714285
    vertex 2.460222329130431 8 1.485346919419349
    vertex 8 8 5.357142857142861
  endloop
endfacet
facet normal 0 1 0
  outer loop
    vertex -1.814104258682574 8 -5.357142857142847
    vertex -3.742783133491369 8 -12.5
    vertex -7.999999999999993 8 -8.928571428571427
  endloop
endfacet
facet normal 0 1 0
  outer loop
    vertex 2.460222329130433 8 -26.48534691941935
    vertex 3.742783133491377 8 -19.64285714285714
    vertex 8 8 -23.21428571428572
  endloop
endfacet
facet normal 0 1 0
  outer loop
    vertex 1.814104258682582 8 -12.5
    vertex 3.742783133491377 8 -5.357142857142854
    vertex 8 8 -8.928571428571427
  endloop
endfacet
facet normal 0 1 0
  outer loop
    vertex 8 8 -1.785714285714285
    vertex 3.742783133491377 8 -5.357142857142854
    vertex 2.460222329130431 8 1.485346919419349
  endloop
endfacet
facet normal -0 1 0
  outer loop
    vertex -7.999999999999993 8 -16.07142857142857
    vertex -3.742783133491369 8 -12.5
    vertex -1.814104258682574 8 -19.64285714285714
  endloop
endfacet
facet normal 0 1 0
  outer loop
    vertex 8 8 -16.07142857142857
    vertex 3.742783133491377 8 -19.64285714285714
    vertex 1.814104258682582 8 -12.5
  endloop
endfacet
facet normal 0 1 0
  outer loop
    vertex -1.814104258682574 8 -19.64285714285714
    vertex -3.568169846282891 8 -26.61057296425951
    vertex -7.999999999999993 8 -23.21428571428572
  endloop
endfacet
facet normal -0 1 0
  outer loop
    vertex -7.999999999999993 8 -1.785714285714285
    vertex -3.568169846282893 8 1.610572964259504
    vertex -1.814104258682574 8 -5.357142857142847
  endloop
endfacet
facet normal 0 1 0
  outer loop
    vertex 2.460222329130431 8 1.485346919419349
    vertex 3.255112881921008 8 7.781219094292219
    vertex 8 8 5.357142857142861
  endloop
endfacet
facet normal 0 1 0
  outer loop
    vertex 8 8 -30.35714285714286
    vertex 3.255112881921006 8 -32.78121909429221
    vertex 2.460222329130433 8 -26.48534691941935
  endloop
endfacet
facet normal 0 1 0
  outer loop
    vertex 8 8 12.5
    vertex 3.255112881921008 8 7.781219094292219
    vertex 3.552713678800501e-15 8 12.5
  endloop
endfacet
facet normal 0 1 0
  outer loop
    vertex 3.552713678800501e-15 8 -37.5
    vertex 3.255112881921006 8 -32.78121909429221
    vertex 8 8 -37.5
  endloop
endfacet
facet normal 0 1 0
  outer loop
    vertex -7.999999999999993 8 -23.21428571428572
    vertex -3.568169846282891 8 -26.61057296425951
    vertex -7.999999999999993 8 -30.35714285714286
  endloop
endfacet
facet normal 0 1 0
  outer loop
    vertex -7.999999999999993 8 5.357142857142861
    vertex -3.568169846282893 8 1.610572964259504
    vertex -7.999999999999993 8 -1.785714285714285
  endloop
endfacet
facet normal 0 1 -0
  outer loop
    vertex 8 8 -23.21428571428572
    vertex 3.742783133491377 8 -19.64285714285714
    vertex 8 8 -16.07142857142857
  endloop
endfacet
facet normal 0 1 0
  outer loop
    vertex -7.999999999999993 8 -8.928571428571427
    vertex -3.742783133491369 8 -12.5
    vertex -7.999999999999993 8 -16.07142857142857
  endloop
endfacet
facet normal 0 1 -0
  outer loop
    vertex 8 8 -8.928571428571427
    vertex 3.742783133491377 8 -5.357142857142854
    vertex 8 8 -1.785714285714285
  endloop
endfacet
facet normal -0 1 0
  outer loop
    vertex -2.184657919525407 8 7.063605694898861
    vertex 3.255112881921008 8 7.781219094292219
    vertex 2.460222329130431 8 1.485346919419349
  endloop
endfacet
facet normal 0 1 0
  outer loop
    vertex 2.460222329130433 8 -26.48534691941935
    vertex 3.255112881921006 8 -32.78121909429221
    vertex -2.184657919525407 8 -32.06360569489885
  endloop
endfacet
facet normal 0 1 0
  outer loop
    vertex -3.568169846282891 8 -26.61057296425951
    vertex -2.184657919525407 8 -32.06360569489885
    vertex -7.999999999999993 8 -30.35714285714286
  endloop
endfacet
facet normal -0 1 0
  outer loop
    vertex -7.999999999999993 8 5.357142857142861
    vertex -2.184657919525407 8 7.063605694898861
    vertex -3.568169846282893 8 1.610572964259504
  endloop
endfacet
facet normal 0 1 -0
  outer loop
    vertex 8 8 5.357142857142861
    vertex 3.255112881921008 8 7.781219094292219
    vertex 8 8 12.5
  endloop
endfacet
facet normal 0 1 -0
  outer loop
    vertex 8 8 -37.5
    vertex 3.255112881921006 8 -32.78121909429221
    vertex 8 8 -30.35714285714286
  endloop
endfacet
facet normal -0 1 0
  outer loop
    vertex -3.568169846282893 8 1.610572964259504
    vertex -2.184657919525407 8 7.063605694898861
    vertex 2.460222329130431 8 1.485346919419349
  endloop
endfacet
facet normal 0 1 0
  outer loop
    vertex 2.460222329130433 8 -26.48534691941935
    vertex -2.184657919525407 8 -32.06360569489885
    vertex -3.568169846282891 8 -26.61057296425951
  endloop
endfacet
facet normal 0 1 0
  outer loop
    vertex 3.552713678800501e-15 8 12.5
    vertex 3.255112881921008 8 7.781219094292219
    vertex -2.184657919525407 8 7.063605694898861
  endloop
endfacet
facet normal 0 1 0
  outer loop
    vertex -2.184657919525407 8 -32.06360569489885
    vertex 3.255112881921006 8 -32.78121909429221
    vertex 3.552713678800501e-15 8 -37.5
  endloop
endfacet
facet normal 0 0 1
  outer loop
    vertex 8 8 -37.5
    vertex 3.75 11 -37.5
    vertex 3.552713678800501e-15 8 -37.5
  endloop
endfacet
facet normal 0 0 1
  outer loop
    vertex -7.999999999999993 0 -37.5
    vertex -10.99999999999999 -3.75 -37.5
    vertex -7.999999999999993 -8 -37.5
  endloop
endfacet
facet normal 0 0 1
  outer loop
    vertex 3.552713678800501e-15 8 -37.5
    vertex -3.749999999999996 11 -37.5
    vertex -7.999999999999993 8 -37.5
  endloop
endfacet
facet normal 0 0 1
  outer loop
    vertex -7.999999999999993 8 -37.5
    vertex -10.99999999999999 3.749999999999996 -37.5
    vertex -7.999999999999993 0 -37.5
  endloop
endfacet
facet normal -0 0 1
  outer loop
    vertex -7.999999999999993 -8 -37.5
    vertex -3.749999999999995 -11 -37.5
    vertex 3.552713678800501e-15 -8 -37.5
  endloop
endfacet
facet normal -0 0 1
  outer loop
    vertex 3.552713678800501e-15 -8 -37.5
    vertex 3.75 -11 -37.5
    vertex 8 -8 -37.5
  endloop
endfacet
facet normal 0 0 1
  outer loop
    vertex 8 -8 -37.5
    vertex 11 -3.750000000000002 -37.5
    vertex 8 0 -37.5
  endloop
endfacet
facet normal 0 0 1
  outer loop
    vertex 8 0 -37.5
    vertex 11 3.75 -37.5
    vertex 8 8 -37.5
  endloop
endfacet
facet normal 0 0 1
  outer loop
    vertex -6.999999999999995 13.99999999999999 -37.5
    vertex -13.99999999999999 13.99999999999999 -37.5
    vertex -7.999999999999993 8 -37.5
  endloop
endfacet
facet normal 0 0 1
  outer loop
    vertex -7.999999999999993 -8 -37.5
    vertex -13.99999999999999 -7.000000000000002 -37.5
    vertex -13.99999999999999 -14 -37.5
  endloop
endfacet
facet normal 0 0 1
  outer loop
    vertex -13.99999999999999 -14 -37.5
    vertex -6.999999999999995 -14 -37.5
    vertex -7.999999999999993 -8 -37.5
  endloop
endfacet
facet normal 0 0 1
  outer loop
    vertex 8 -8 -37.5
    vertex 7 -14 -37.5
    vertex 14 -14 -37.5
  endloop
endfacet
facet normal 0 -0 1
  outer loop
    vertex 14 -14 -37.5
    vertex 14 -7.000000000000002 -37.5
    vertex 8 -8 -37.5
  endloop
endfacet
facet normal 0 -0 1
  outer loop
    vertex 8 8 -37.5
    vertex 14 13.99999999999999 -37.5
    vertex 7 13.99999999999999 -37.5
  endloop
endfacet
facet normal 0 0 1
  outer loop
    vertex -13.99999999999999 13.99999999999999 -37.5
    vertex -13.99999999999999 6.999999999999993 -37.5
    vertex -7.999999999999993 8 -37.5
  endloop
endfacet
facet normal -0 0 1
  outer loop
    vertex 8 8 -37.5
    vertex 14 6.999999999999993 -37.5
    vertex 14 13.99999999999999 -37.5
  endloop
endfacet
facet normal -0 0 1
  outer loop
    vertex -6.999999999999995 13.99999999999999 -37.5
    vertex -3.749999999999996 11 -37.5
    vertex 3.552713678800501e-15 13.99999999999999 -37.5
  endloop
endfacet
facet normal -0 0 1
  outer loop
    vertex 3.552713678800501e-15 13.99999999999999 -37.5
    vertex 3.75 11 -37.5
    vertex 7 13.99999999999999 -37.5
  endloop
endfacet
facet normal 0 0 1
  outer loop
    vertex 14 -3.552713678800501e-15 -37.5
    vertex 11 -3.750000000000002 -37.5
    vertex 14 -7.000000000000002 -37.5
  endloop
endfacet
facet normal 0 0 1
  outer loop
    vertex -13.99999999999999 -7.000000000000002 -37.5
    vertex -10.99999999999999 -3.75 -37.5
    vertex -13.99999999999999 -3.552713678800501e-15 -37.5
  endloop
endfacet
facet normal 0 0 1
  outer loop
    vertex 3.552713678800501e-15 -14 -37.5
    vertex -3.749999999999995 -11 -37.5
    vertex -6.999999999999995 -14 -37.5
  endloop
endfacet
facet normal 0 0 1
  outer loop
    vertex 14 6.999999999999993 -37.5
    vertex 11 3.75 -37.5
    vertex 14 -3.552713678800501e-15 -37.5
  endloop
endfacet
facet normal 0 0 1
  outer loop
    vertex -13.99999999999999 -3.552713678800501e-15 -37.5
    vertex -10.99999999999999 3.749999999999996 -37.5
    vertex -13.99999999999999 6.999999999999993 -37.5
  endloop
endfacet
facet normal 0 0 1
  outer loop
    vertex 7 -14 -37.5
    vertex 3.75 -11 -37.5
    vertex 3.552713678800501e-15 -14 -37.5
  endloop
endfacet
facet normal -0 0 1
  outer loop
    vertex -13.99999999999999 6.999999999999993 -37.5
    vertex -10.99999999999999 3.749999999999996 -37.5
    vertex -7.999999999999993 8 -37.5
  endloop
endfacet
facet normal 0 0 1
  outer loop
    vertex 8 8 -37.5
    vertex 11 3.75 -37.5
    vertex 14 6.999999999999993 -37.5
  endloop
endfacet
facet normal 0 0 1
  outer loop
    vertex -7.999999999999993 -8 -37.5
    vertex -10.99999999999999 -3.75 -37.5
    vertex -13.99999999999999 -7.000000000000002 -37.5
  endloop
endfacet
facet normal 0 -0 1
  outer loop
    vertex -6.999999999999995 -14 -37.5
    vertex -3.749999999999995 -11 -37.5
    vertex -7.999999999999993 -8 -37.5
  endloop
endfacet
facet normal 0 0 1
  outer loop
    vertex -7.999999999999993 8 -37.5
    vertex -3.749999999999996 11 -37.5
    vertex -6.999999999999995 13.99999999999999 -37.5
  endloop
endfacet
facet normal 0 0 1
  outer loop
    vertex 14 -7.000000000000002 -37.5
    vertex 11 -3.750000000000002 -37.5
    vertex 8 -8 -37.5
  endloop
endfacet
facet normal 0 0 1
  outer loop
    vertex 7 13.99999999999999 -37.5
    vertex 3.75 11 -37.5
    vertex 8 8 -37.5
  endloop
endfacet
facet normal 0 0 1
  outer loop
    vertex 8 -8 -37.5
    vertex 3.75 -11 -37.5
    vertex 7 -14 -37.5
  endloop
endfacet
facet normal 0 0 1
  outer loop
    vertex 3.552713678800501e-15 13.99999999999999 -37.5
    vertex -3.749999999999996 11 -37.5
    vertex 3.552713678800501e-15 8 -37.5
  endloop
endfacet
facet normal 0 0 1
  outer loop
    vertex 3.552713678800501e-15 -14 -37.5
    vertex 3.75 -11 -37.5
    vertex 3.552713678800501e-15 -8 -37.5
  endloop
endfacet
facet normal 0 0 1
  outer loop
    vertex 8 0 -37.5
    vertex 11 -3.750000000000002 -37.5
    vertex 14 -3.552713678800501e-15 -37.5
  endloop
endfacet
facet normal -0 0 1
  outer loop
    vertex -13.99999999999999 -3.552713678800501e-15 -37.5
    vertex -10.99999999999999 -3.75 -37.5
    vertex -7.999999999999993 0 -37.5
  endloop
endfacet
facet normal 0 0 1
  outer loop
    vertex -7.999999999999993 0 -37.5
    vertex -10.99999999999999 3.749999999999996 -37.5
    vertex -13.99999999999999 -3.552713678800501e-15 -37.5
  endloop
endfacet
facet normal 0 0 1
  outer loop
    vertex 3.552713678800501e-15 -8 -37.5
    vertex -3.749999999999995 -11 -37.5
    vertex 3.552713678800501e-15 -14 -37.5
  endloop
endfacet
facet normal 0 0 1
  outer loop
    vertex 14 -3.552713678800501e-15 -37.5
    vertex 11 3.75 -37.5
    vertex 8 0 -37.5
  endloop
endfacet
facet normal 0 0 1
  outer loop
    vertex 3.552713678800501e-15 8 -37.5
    vertex 3.75 11 -37.5
    vertex 3.552713678800501e-15 13.99999999999999 -37.5
  endloop
endfacet
facet normal -1 0 0
  outer loop
    vertex -13.99999999999999 6.999999999999993 -42.5
    vertex -13.99999999999999 6.999999999999993 -37.5
    vertex -13.99999999999999 10.49999999999999 -40
  endloop
endfacet
facet normal -1 0 0
  outer loop
    vertex -13.99999999999999 -14 -42.5
    vertex -13.99999999999999 -14 -37.5
    vertex -13.99999999999999 -10.5 -40
  endloop
endfacet
facet normal -1 0 0
  outer loop
    vertex -13.99999999999999 -7.000000000000002 -42.5
    vertex -13.99999999999999 -7.000000000000002 -37.5
    vertex -13.99999999999999 -3.500000000000002 -40
  endloop
endfacet
facet normal -1 0 0
  outer loop
    vertex -13.99999999999999 -3.552713678800501e-15 -42.5
    vertex -13.99999999999999 -3.552713678800501e-15 -37.5
    vertex -13.99999999999999 3.499999999999993 -40
  endloop
endfacet
facet normal -1 0 -0
  outer loop
    vertex -13.99999999999999 -7.000000000000002 -37.5
    vertex -13.99999999999999 -7.000000000000002 -42.5
    vertex -13.99999999999999 -10.5 -40
  endloop
endfacet
facet normal -1 0 -0
  outer loop
    vertex -13.99999999999999 -3.552713678800501e-15 -37.5
    vertex -13.99999999999999 -3.552713678800501e-15 -42.5
    vertex -13.99999999999999 -3.500000000000002 -40
  endloop
endfacet
facet normal -1 0 -0
  outer loop
    vertex -13.99999999999999 13.99999999999999 -37.5
    vertex -13.99999999999999 13.99999999999999 -42.5
    vertex -13.99999999999999 10.49999999999999 -40
  endloop
endfacet
facet normal -1 0 -0
  outer loop
    vertex -13.99999999999999 6.999999999999993 -37.5
    vertex -13.99999999999999 6.999999999999993 -42.5
    vertex -13.99999999999999 3.499999999999993 -40
  endloop
endfacet
facet normal -1 0 0
  outer loop
    vertex -13.99999999999999 -14 -37.5
    vertex -13.99999999999999 -7.000000000000002 -37.5
    vertex -13.99999999999999 -10.5 -40
  endloop
endfacet
facet normal -1 0 0
  outer loop
    vertex -13.99999999999999 6.999999999999993 -37.5
    vertex -13.99999999999999 13.99999999999999 -37.5
    vertex -13.99999999999999 10.49999999999999 -40
  endloop
endfacet
facet normal -1 0 0
  outer loop
    vertex -13.99999999999999 -7.000000000000002 -42.5
    vertex -13.99999999999999 -14 -42.5
    vertex -13.99999999999999 -10.5 -40
  endloop
endfacet
facet normal -1 0 0
  outer loop
    vertex -13.99999999999999 13.99999999999999 -42.5
    vertex -13.99999999999999 6.999999999999993 -42.5
    vertex -13.99999999999999 10.49999999999999 -40
  endloop
endfacet
facet normal -1 0 0
  outer loop
    vertex -13.99999999999999 -7.000000000000002 -37.5
    vertex -13.99999999999999 -3.552713678800501e-15 -37.5
    vertex -13.99999999999999 -3.500000000000002 -40
  endloop
endfacet
facet normal -1 0 0
  outer loop
    vertex -13.99999999999999 -3.552713678800501e-15 -37.5
    vertex -13.99999999999999 6.999999999999993 -37.5
    vertex -13.99999999999999 3.499999999999993 -40
  endloop
endfacet
facet normal -1 0 0
  outer loop
    vertex -13.99999999999999 -3.552713678800501e-15 -42.5
    vertex -13.99999999999999 -7.000000000000002 -42.5
    vertex -13.99999999999999 -3.500000000000002 -40
  endloop
endfacet
facet normal -1 0 0
  outer loop
    vertex -13.99999999999999 6.999999999999993 -42.5
    vertex -13.99999999999999 -3.552713678800501e-15 -42.5
    vertex -13.99999999999999 3.499999999999993 -40
  endloop
endfacet
facet normal 0 1 0
  outer loop
    vertex 7 13.99999999999999 -37.5
    vertex 10.5 13.99999999999999 -40
    vertex 7 13.99999999999999 -42.5
  endloop
endfacet
facet normal 0 1 0
  outer loop
    vertex -13.99999999999999 13.99999999999999 -37.5
    vertex -10.49999999999999 13.99999999999999 -40
    vertex -13.99999999999999 13.99999999999999 -42.5
  endloop
endfacet
facet normal 0 1 0
  outer loop
    vertex -6.999999999999995 13.99999999999999 -37.5
    vertex -3.499999999999995 13.99999999999999 -40
    vertex -6.999999999999995 13.99999999999999 -42.5
  endloop
endfacet
facet normal 0 1 0
  outer loop
    vertex 3.552713678800501e-15 13.99999999999999 -37.5
    vertex 3.5 13.99999999999999 -40
    vertex 3.552713678800501e-15 13.99999999999999 -42.5
  endloop
endfacet
facet normal 0 1 -0
  outer loop
    vertex -6.999999999999995 13.99999999999999 -42.5
    vertex -10.49999999999999 13.99999999999999 -40
    vertex -6.999999999999995 13.99999999999999 -37.5
  endloop
endfacet
facet normal 0 1 -0
  outer loop
    vertex 3.552713678800501e-15 13.99999999999999 -42.5
    vertex -3.499999999999995 13.99999999999999 -40
    vertex 3.552713678800501e-15 13.99999999999999 -37.5
  endloop
endfacet
facet normal 0 1 -0
  outer loop
    vertex 14 13.99999999999999 -42.5
    vertex 10.5 13.99999999999999 -40
    vertex 14 13.99999999999999 -37.5
  endloop
endfacet
facet normal 0 1 -0
  outer loop
    vertex 7 13.99999999999999 -42.5
    vertex 3.5 13.99999999999999 -40
    vertex 7 13.99999999999999 -37.5
  endloop
endfacet
facet normal 0 1 0
  outer loop
    vertex -6.999999999999995 13.99999999999999 -37.5
    vertex -10.49999999999999 13.99999999999999 -40
    vertex -13.99999999999999 13.99999999999999 -37.5
  endloop
endfacet
facet normal 0 1 0
  outer loop
    vertex 14 13.99999999999999 -37.5
    vertex 10.5 13.99999999999999 -40
    vertex 7 13.99999999999999 -37.5
  endloop
endfacet
facet normal 0 1 0
  outer loop
    vertex -13.99999999999999 13.99999999999999 -42.5
    vertex -10.49999999999999 13.99999999999999 -40
    vertex -6.999999999999995 13.99999999999999 -42.5
  endloop
endfacet
facet normal 0 1 0
  outer loop
    vertex 7 13.99999999999999 -42.5
    vertex 10.5 13.99999999999999 -40
    vertex 14 13.99999999999999 -42.5
  endloop
endfacet
facet normal 0 1 0
  outer loop
    vertex 3.552713678800501e-15 13.99999999999999 -37.5
    vertex -3.499999999999995 13.99999999999999 -40
    vertex -6.999999999999995 13.99999999999999 -37.5
  endloop
endfacet
facet normal 0 1 0
  outer loop
    vertex 7 13.99999999999999 -37.5
    vertex 3.5 13.99999999999999 -40
    vertex 3.552713678800501e-15 13.99999999999999 -37.5
  endloop
endfacet
facet normal 0 1 0
  outer loop
    vertex -6.999999999999995 13.99999999999999 -42.5
    vertex -3.499999999999995 13.99999999999999 -40
    vertex 3.552713678800501e-15 13.99999999999999 -42.5
  endloop
endfacet
facet normal 0 1 0
  outer loop
    vertex 3.552713678800501e-15 13.99999999999999 -42.5
    vertex 3.5 13.99999999999999 -40
    vertex 7 13.99999999999999 -42.5
  endloop
endfacet
facet normal 0 -1 0
  outer loop
    vertex 7 -14 -37.5
    vertex 7 -14 -42.5
    vertex 10.5 -14 -40
  endloop
endfacet
facet normal 0 -1 0
  outer loop
    vertex -13.99999999999999 -14 -37.5
    vertex -13.99999999999999 -14 -42.5
    vertex -10.49999999999999 -14 -40
  endloop
endfacet
facet normal 0 -1 0
  outer loop
    vertex -6.999999999999995 -14 -37.5
    vertex -6.999999999999995 -14 -42.5
    vertex -3.499999999999995 -14 -40
  endloop
endfacet
facet normal 0 -1 0
  outer loop
    vertex 7 -14 -42.5
    vertex 7 -14 -37.5
    vertex 3.5 -14 -40
  endloop
endfacet
facet normal 0 -1 0
  outer loop
    vertex -6.999999999999995 -14 -42.5
    vertex -6.999999999999995 -14 -37.5
    vertex -10.49999999999999 -14 -40
  endloop
endfacet
facet normal 0 -1 0
  outer loop
    vertex 3.552713678800501e-15 -14 -42.5
    vertex 3.552713678800501e-15 -14 -37.5
    vertex -3.499999999999995 -14 -40
  endloop
endfacet
facet normal 0 -1 0
  outer loop
    vertex 14 -14 -42.5
    vertex 14 -14 -37.5
    vertex 10.5 -14 -40
  endloop
endfacet
facet normal 0 -1 0
  outer loop
    vertex 3.552713678800501e-15 -14 -37.5
    vertex 3.552713678800501e-15 -14 -42.5
    vertex 3.5 -14 -40
  endloop
endfacet
facet normal -0 -1 0
  outer loop
    vertex -6.999999999999995 -14 -37.5
    vertex -13.99999999999999 -14 -37.5
    vertex -10.49999999999999 -14 -40
  endloop
endfacet
facet normal -0 -1 0
  outer loop
    vertex 14 -14 -37.5
    vertex 7 -14 -37.5
    vertex 10.5 -14 -40
  endloop
endfacet
facet normal 0 -1 0
  outer loop
    vertex -13.99999999999999 -14 -42.5
    vertex -6.999999999999995 -14 -42.5
    vertex -10.49999999999999 -14 -40
  endloop
endfacet
facet normal 0 -1 0
  outer loop
    vertex 7 -14 -42.5
    vertex 14 -14 -42.5
    vertex 10.5 -14 -40
  endloop
endfacet
facet normal -0 -1 0
  outer loop
    vertex 3.552713678800501e-15 -14 -37.5
    vertex -6.999999999999995 -14 -37.5
    vertex -3.499999999999995 -14 -40
  endloop
endfacet
facet normal -0 -1 0
  outer loop
    vertex 7 -14 -37.5
    vertex 3.552713678800501e-15 -14 -37.5
    vertex 3.5 -14 -40
  endloop
endfacet
facet normal 0 -1 0
  outer loop
    vertex -6.999999999999995 -14 -42.5
    vertex 3.552713678800501e-15 -14 -42.5
    vertex -3.499999999999995 -14 -40
  endloop
endfacet
facet normal 0 -1 0
  outer loop
    vertex 3.552713678800501e-15 -14 -42.5
    vertex 7 -14 -42.5
    vertex 3.5 -14 -40
  endloop
endfacet
facet normal 1 0 0
  outer loop
    vertex 14 6.999999999999993 -42.5
    vertex 14 10.49999999999999 -40
    vertex 14 6.999999999999993 -37.5
  endloop
endfacet
facet normal 1 0 0
  outer loop
    vertex 14 -14 -42.5
    vertex 14 -10.5 -40
    vertex 14 -14 -37.5
  endloop
endfacet
facet normal 1 0 0
  outer loop
    vertex 14 -7.000000000000002 -42.5
    vertex 14 -3.500000000000002 -40
    vertex 14 -7.000000000000002 -37.5
  endloop
endfacet
facet normal 1 0 0
  outer loop
    vertex 14 -3.552713678800501e-15 -42.5
    vertex 14 3.499999999999993 -40
    vertex 14 -3.552713678800501e-15 -37.5
  endloop
endfacet
facet normal 1 0 0
  outer loop
    vertex 14 -7.000000000000002 -37.5
    vertex 14 -10.5 -40
    vertex 14 -7.000000000000002 -42.5
  endloop
endfacet
facet normal 1 0 0
  outer loop
    vertex 14 -3.552713678800501e-15 -37.5
    vertex 14 -3.500000000000002 -40
    vertex 14 -3.552713678800501e-15 -42.5
  endloop
endfacet
facet normal 1 0 0
  outer loop
    vertex 14 13.99999999999999 -37.5
    vertex 14 10.49999999999999 -40
    vertex 14 13.99999999999999 -42.5
  endloop
endfacet
facet normal 1 0 0
  outer loop
    vertex 14 6.999999999999993 -37.5
    vertex 14 3.499999999999993 -40
    vertex 14 6.999999999999993 -42.5
  endloop
endfacet
facet normal 1 -0 0
  outer loop
    vertex 14 -14 -37.5
    vertex 14 -10.5 -40
    vertex 14 -7.000000000000002 -37.5
  endloop
endfacet
facet normal 1 -0 0
  outer loop
    vertex 14 6.999999999999993 -37.5
    vertex 14 10.49999999999999 -40
    vertex 14 13.99999999999999 -37.5
  endloop
endfacet
facet normal 1 0 0
  outer loop
    vertex 14 13.99999999999999 -42.5
    vertex 14 10.49999999999999 -40
    vertex 14 6.999999999999993 -42.5
  endloop
endfacet
facet normal 1 0 0
  outer loop
    vertex 14 -7.000000000000002 -42.5
    vertex 14 -10.5 -40
    vertex 14 -14 -42.5
  endloop
endfacet
facet normal 1 -0 0
  outer loop
    vertex 14 -7.000000000000002 -37.5
    vertex 14 -3.500000000000002 -40
    vertex 14 -3.552713678800501e-15 -37.5
  endloop
endfacet
facet normal 1 -0 0
  outer loop
    vertex 14 -3.552713678800501e-15 -37.5
    vertex 14 3.499999999999993 -40
    vertex 14 6.999999999999993 -37.5
  endloop
endfacet
facet normal 1 0 0
  outer loop
    vertex 14 -3.552713678800501e-15 -42.5
    vertex 14 -3.500000000000002 -40
    vertex 14 -7.000000000000002 -42.5
  endloop
endfacet
facet normal 1 0 0
  outer loop
    vertex 14 6.999999999999993 -42.5
    vertex 14 3.499999999999993 -40
    vertex 14 -3.552713678800501e-15 -42.5
  endloop
endfacet
facet normal 0 0 -1
  outer loop
    vertex 1.937347120383732 -0.1582076355905215 -42.5
    vertex -3.208810453426201 6.874364058501669 -42.5
    vertex 3.603709027102248 7.929627805467302 -42.5
  endloop
endfacet
facet normal 0 -0 -1
  outer loop
    vertex 1.937347120383732 -0.1582076355905215 -42.5
    vertex 3.805390039269501 -8.029525930235952 -42.5
    vertex -3.191787244019364 -6.94068206906575 -42.5
  endloop
endfacet
facet normal 0 -0 -1
  outer loop
    vertex -3.208810453426201 6.874364058501669 -42.5
    vertex 1.937347120383732 -0.1582076355905215 -42.5
    vertex -4.360870776961967 -0.1004175435570911 -42.5
  endloop
endfacet
facet normal -0 0 -1
  outer loop
    vertex 1.937347120383732 -0.1582076355905215 -42.5
    vertex -3.191787244019364 -6.94068206906575 -42.5
    vertex -4.360870776961967 -0.1004175435570911 -42.5
  endloop
endfacet
facet normal -0 0 -1
  outer loop
    vertex 8.090814989051339 3.490655232557053 -42.5
    vertex 1.937347120383732 -0.1582076355905215 -42.5
    vertex 3.603709027102248 7.929627805467302 -42.5
  endloop
endfacet
facet normal -0 0 -1
  outer loop
    vertex 8.458211867683584 -3.403880950121918 -42.5
    vertex 3.805390039269501 -8.029525930235952 -42.5
    vertex 1.937347120383732 -0.1582076355905215 -42.5
  endloop
endfacet
facet normal 0 0 -1
  outer loop
    vertex -3.191787244019364 -6.94068206906575 -42.5
    vertex -8.625426920878837 -3.482330710781444 -42.5
    vertex -4.360870776961967 -0.1004175435570911 -42.5
  endloop
endfacet
facet normal 0 0 -1
  outer loop
    vertex -13.99999999999999 -7.000000000000002 -42.5
    vertex -13.99999999999999 -3.552713678800501e-15 -42.5
    vertex -8.625426920878837 -3.482330710781444 -42.5
  endloop
endfacet
facet normal 0 0 -1
  outer loop
    vertex 7 -14 -42.5
    vertex 3.552713678800501e-15 -14 -42.5
    vertex 3.805390039269501 -8.029525930235952 -42.5
  endloop
endfacet
facet normal 0 0 -1
  outer loop
    vertex -6.999999999999995 13.99999999999999 -42.5
    vertex 3.552713678800501e-15 13.99999999999999 -42.5
    vertex -3.208810453426201 6.874364058501669 -42.5
  endloop
endfacet
facet normal 0 -0 -1
  outer loop
    vertex 14 6.999999999999993 -42.5
    vertex 14 -3.552713678800501e-15 -42.5
    vertex 8.090814989051339 3.490655232557053 -42.5
  endloop
endfacet
facet normal 0 0 -1
  outer loop
    vertex -8.715676386869163 3.204768639150593 -42.5
    vertex -3.208810453426201 6.874364058501669 -42.5
    vertex -4.360870776961967 -0.1004175435570911 -42.5
  endloop
endfacet
facet normal 0 0 -1
  outer loop
    vertex 3.552713678800501e-15 -14 -42.5
    vertex -6.999999999999995 -14 -42.5
    vertex -3.191787244019364 -6.94068206906575 -42.5
  endloop
endfacet
facet normal 0 0 -1
  outer loop
    vertex -13.99999999999999 -3.552713678800501e-15 -42.5
    vertex -13.99999999999999 6.999999999999993 -42.5
    vertex -8.715676386869163 3.204768639150593 -42.5
  endloop
endfacet
facet normal 0 0 -1
  outer loop
    vertex 3.552713678800501e-15 13.99999999999999 -42.5
    vertex 7 13.99999999999999 -42.5
    vertex 3.603709027102248 7.929627805467302 -42.5
  endloop
endfacet
facet normal 0 -0 -1
  outer loop
    vertex 14 -3.552713678800501e-15 -42.5
    vertex 14 -7.000000000000002 -42.5
    vertex 8.458211867683584 -3.403880950121918 -42.5
  endloop
endfacet
facet normal 0 -0 -1
  outer loop
    vertex 8.090814989051339 3.490655232557053 -42.5
    vertex 8.458211867683584 -3.403880950121918 -42.5
    vertex 1.937347120383732 -0.1582076355905215 -42.5
  endloop
endfacet
facet normal 0 0 -1
  outer loop
    vertex -8.625426920878837 -3.482330710781444 -42.5
    vertex -13.99999999999999 -3.552713678800501e-15 -42.5
    vertex -8.715676386869163 3.204768639150593 -42.5
  endloop
endfacet
facet normal 0 0 -1
  outer loop
    vertex -3.208810453426201 6.874364058501669 -42.5
    vertex 3.552713678800501e-15 13.99999999999999 -42.5
    vertex 3.603709027102248 7.929627805467302 -42.5
  endloop
endfacet
facet normal 0 0 -1
  outer loop
    vertex 8.090814989051339 3.490655232557053 -42.5
    vertex 14 -3.552713678800501e-15 -42.5
    vertex 8.458211867683584 -3.403880950121918 -42.5
  endloop
endfacet
facet normal -0 0 -1
  outer loop
    vertex 3.805390039269501 -8.029525930235952 -42.5
    vertex 3.552713678800501e-15 -14 -42.5
    vertex -3.191787244019364 -6.94068206906575 -42.5
  endloop
endfacet
facet normal 0 0 -1
  outer loop
    vertex 14 -14 -42.5
    vertex 7 -14 -42.5
    vertex 8.875644347017861 -8.875644347017856 -42.5
  endloop
endfacet
facet normal 0 0 -1
  outer loop
    vertex -13.99999999999999 -14 -42.5
    vertex -13.99999999999999 -7.000000000000002 -42.5
    vertex -8.875644347017854 -8.875644347017861 -42.5
  endloop
endfacet
facet normal 0 0 -1
  outer loop
    vertex -13.99999999999999 6.999999999999993 -42.5
    vertex -13.99999999999999 13.99999999999999 -42.5
    vertex -9.384897368059068 9.015826539530448 -42.5
  endloop
endfacet
facet normal 0 0 -1
  outer loop
    vertex -13.99999999999999 13.99999999999999 -42.5
    vertex -6.999999999999995 13.99999999999999 -42.5
    vertex -9.384897368059068 9.015826539530448 -42.5
  endloop
endfacet
facet normal 0 0 -1
  outer loop
    vertex -6.999999999999995 -14 -42.5
    vertex -13.99999999999999 -14 -42.5
    vertex -8.875644347017854 -8.875644347017861 -42.5
  endloop
endfacet
facet normal 0 0 -1
  outer loop
    vertex 7 13.99999999999999 -42.5
    vertex 14 13.99999999999999 -42.5
    vertex 8.875644347017865 8.875644347017857 -42.5
  endloop
endfacet
facet normal 0 -0 -1
  outer loop
    vertex 14 13.99999999999999 -42.5
    vertex 14 6.999999999999993 -42.5
    vertex 8.875644347017865 8.875644347017857 -42.5
  endloop
endfacet
facet normal 0 -0 -1
  outer loop
    vertex 14 -7.000000000000002 -42.5
    vertex 14 -14 -42.5
    vertex 8.875644347017861 -8.875644347017856 -42.5
  endloop
endfacet
facet normal 0 0 -1
  outer loop
    vertex -8.715676386869163 3.204768639150593 -42.5
    vertex -13.99999999999999 6.999999999999993 -42.5
    vertex -9.384897368059068 9.015826539530448 -42.5
  endloop
endfacet
facet normal 0 0 -1
  outer loop
    vertex 3.603709027102248 7.929627805467302 -42.5
    vertex 7 13.99999999999999 -42.5
    vertex 8.875644347017865 8.875644347017857 -42.5
  endloop
endfacet
facet normal 0 0 -1
  outer loop
    vertex -3.191787244019364 -6.94068206906575 -42.5
    vertex -6.999999999999995 -14 -42.5
    vertex -8.875644347017854 -8.875644347017861 -42.5
  endloop
endfacet
facet normal 0 0 -1
  outer loop
    vertex 8.458211867683584 -3.403880950121918 -42.5
    vertex 14 -7.000000000000002 -42.5
    vertex 8.875644347017861 -8.875644347017856 -42.5
  endloop
endfacet
facet normal 0 0 -1
  outer loop
    vertex -13.99999999999999 -7.000000000000002 -42.5
    vertex -8.625426920878837 -3.482330710781444 -42.5
    vertex -8.875644347017854 -8.875644347017861 -42.5
  endloop
endfacet
facet normal 0 -0 -1
  outer loop
    vertex -6.999999999999995 13.99999999999999 -42.5
    vertex -3.208810453426201 6.874364058501669 -42.5
    vertex -9.384897368059068 9.015826539530448 -42.5
  endloop
endfacet
facet normal 0 0 -1
  outer loop
    vertex 7 -14 -42.5
    vertex 3.805390039269501 -8.029525930235952 -42.5
    vertex 8.875644347017861 -8.875644347017856 -42.5
  endloop
endfacet
facet normal -0 0 -1
  outer loop
    vertex 14 6.999999999999993 -42.5
    vertex 8.090814989051339 3.490655232557053 -42.5
    vertex 8.875644347017865 8.875644347017857 -42.5
  endloop
endfacet
facet normal 0 0 -1
  outer loop
    vertex 8.090814989051339 3.490655232557053 -42.5
    vertex 3.603709027102248 7.929627805467302 -42.5
    vertex 8.875644347017865 8.875644347017857 -42.5
  endloop
endfacet
facet normal 0 -0 -1
  outer loop
    vertex -8.625426920878837 -3.482330710781444 -42.5
    vertex -3.191787244019364 -6.94068206906575 -42.5
    vertex -8.875644347017854 -8.875644347017861 -42.5
  endloop
endfacet
facet normal 0 0 -1
  outer loop
    vertex 3.805390039269501 -8.029525930235952 -42.5
    vertex 8.458211867683584 -3.403880950121918 -42.5
    vertex 8.875644347017861 -8.875644347017856 -42.5
  endloop
endfacet
facet normal -0 0 -1
  outer loop
    vertex -3.208810453426201 6.874364058501669 -42.5
    vertex -8.715676386869163 3.204768639150593 -42.5
    vertex -9.384897368059068 9.015826539530448 -42.5
  endloop
endfacet
facet normal 0 0 -1
  outer loop
    vertex -8.625426920878837 -3.482330710781444 -42.5
    vertex -8.715676386869163 3.204768639150593 -42.5
    vertex -4.360870776961967 -0.1004175435570911 -42.5
  endloop
endfacet
endsolid Created by Gmsh
